<svg xmlns="http://www.w3.org/2000/svg" xmlns:xlink="http://www.w3.org/1999/xlink" width="1920" height="1080" viewBox="0 0 1920 1080">
  <defs>
    <clipPath id="clip-_403_1">
      <rect width="1920" height="1080"/>
    </clipPath>
  </defs>
  <g id="_403_1" data-name="403 – 1" clip-path="url(#clip-_403_1)">
    <rect width="1920" height="1080" fill="#fff"/>
    <g id="Group_1759" data-name="Group 1759" transform="translate(72.138 87.081)">
      <path id="Path_1860" data-name="Path 1860" d="M1035.53,355.281a1.964,1.964,0,0,1-.02-.409c-.01-.3-.02-.681-.03-1.165-.01-1.057-.03-2.55-.06-4.47-.03-3.915-.07-9.563-.13-16.69l.24.234-84.409.148c.169-.17-.386.381.377-.382v5.822q0,2.892,0,5.739c0,3.794-.005,7.525-.006,11.174l-.373-.372,60.182.17,17.74.105,4.8.049,1.25.023a3.732,3.732,0,0,1,.44.024,2.165,2.165,0,0,1-.39.025l-1.21.023-4.71.049-17.66.105-60.442.17-.372,0v-.374q0-5.474-.006-11.175,0-2.847,0-5.739v-5.821c.764-.764.216-.213.387-.383l84.405.148h.24v.234c-.06,7.185-.1,12.88-.13,16.827-.03,1.9-.04,3.373-.06,4.419-.01.466-.02.836-.02,1.122A1.54,1.54,0,0,1,1035.53,355.281Z" fill="#e0e0e0"/>
      <path id="Path_1861" data-name="Path 1861" d="M630.12,51.585H545.709V74.319H630.12Z" fill="#ebebeb"/>
      <path id="Path_1862" data-name="Path 1862" d="M665.44,97.636a3.074,3.074,0,0,1-.023-.411c-.006-.3-.015-.68-.025-1.164q-.02-1.586-.057-4.472c-.031-3.914-.075-9.563-.129-16.689l.233.233-84.407.148c.169-.17-.386.381.377-.381v5.821q0,2.893,0,5.739,0,5.694-.006,11.174l-.373-.372,60.182.17c7.518.046,13.548.081,17.744.107l4.793.048,1.252.023a3.241,3.241,0,0,1,.44.025,2.089,2.089,0,0,1-.393.023l-1.207.023-4.712.049-17.657.105-60.442.17h-.372v-.374q0-5.474-.006-11.174,0-2.847,0-5.739V74.9c.765-.764.216-.211.388-.383l84.406.148h.236V74.9c-.056,7.185-.1,12.88-.129,16.827-.025,1.9-.043,3.373-.057,4.419-.011.466-.018.836-.025,1.122A1.933,1.933,0,0,1,665.44,97.636Z" fill="#e0e0e0"/>
      <path id="Path_1863" data-name="Path 1863" d="M206.93,448.988a2.769,2.769,0,0,1-.024-.411c-.006-.3-.015-.68-.025-1.163q-.02-1.586-.057-4.472c-.031-3.914-.073-9.562-.129-16.687l.233.233-84.407.148c.169-.17-.385.381.377-.381v5.822q0,2.894,0,5.739c0,3.794,0,7.526-.006,11.175l-.372-.373,60.181.17,17.744.107,4.793.049,1.253.023a3.34,3.34,0,0,1,.44.021,2.328,2.328,0,0,1-.393.023c-.307.006-.7.015-1.208.024l-4.712.048-17.657.106c-15.141.042-36.274.1-60.441.17h-.373v-.374q0-5.473-.006-11.174,0-2.847,0-5.739V426.25c.764-.764.215-.213.387-.383l84.407.148h.236l0,.234c-.056,7.185-.1,12.88-.129,16.827q-.037,2.847-.057,4.419c-.01.466-.018.836-.025,1.122A2,2,0,0,1,206.93,448.988Z" fill="#e0e0e0"/>
      <path id="Path_1864" data-name="Path 1864" d="M216.332,471.721a2.7,2.7,0,0,1-.03-.433c-.009-.322-.019-.72-.033-1.208-.017-1.113-.042-2.64-.073-4.567-.037-3.984-.089-9.617-.154-16.525l.289.289-42.2.092c-.343.34.461-.465.379-.38v2.988q0,1.49,0,2.959,0,2.94,0,5.795c-.006,3.8-.012,7.479-.018,10.987l-.358-.358,30.244.173c3.7.041,6.653.075,8.761.1.979.019,1.761.034,2.357.044a7.333,7.333,0,0,1,.844.047,4.531,4.531,0,0,1-.758.043l-2.285.044-8.68.1-30.483.173-.356,0v-.359c-.006-3.509-.012-7.184-.018-10.987q0-2.855,0-5.8,0-1.47,0-2.96v-2.987c-.083.08.723-.726.385-.385l42.2.093h.292l0,.289c-.064,6.981-.117,12.676-.154,16.7-.03,1.9-.055,3.406-.073,4.5-.013.466-.023.846-.032,1.154A1.441,1.441,0,0,1,216.332,471.721Z" fill="#e0e0e0"/>
      <path id="Path_1865" data-name="Path 1865" d="M1004.4,115.4a2.358,2.358,0,0,1-.03-.409c0-.3-.01-.681-.02-1.165q-.015-1.585-.06-4.472c-.03-3.914-.07-9.562-.13-16.687l.24.233-84.41.148c.169-.17-.386.38.377-.381v5.823q0,2.893,0,5.739,0,5.694-.006,11.175l-.373-.373,60.182.171,17.744.105,4.8.049,1.25.023a3.529,3.529,0,0,1,.44.022,2.4,2.4,0,0,1-.39.024l-1.21.023-4.714.048-17.657.106c-15.141.043-36.274.1-60.442.17l-.372,0V115.4q0-5.474-.006-11.175,0-2.847,0-5.739V92.659c.765-.764.216-.211.388-.383l84.405.148h.24v.233c-.06,7.185-.1,12.88-.13,16.827q-.045,2.847-.06,4.419c-.01.466-.02.836-.03,1.122A2.309,2.309,0,0,1,1004.4,115.4Z" fill="#e0e0e0"/>
      <path id="Path_1866" data-name="Path 1866" d="M1013.8,138.131a2.721,2.721,0,0,1-.03-.433c-.01-.323-.02-.72-.03-1.209-.02-1.113-.04-2.64-.08-4.567-.03-3.983-.09-9.618-.15-16.525l.29.289-42.2.093c-.343.34.461-.465.379-.38v2.987q0,1.489,0,2.96,0,2.94,0,5.795c-.006,3.8-.012,7.477-.018,10.985l-.358-.358,30.246.173,8.76.1c.98.017,1.76.032,2.36.044a7.458,7.458,0,0,1,.84.047,4.51,4.51,0,0,1-.76.042c-.58.012-1.33.027-2.28.044l-8.68.1-30.486.174h-.357v-.359c-.006-3.509-.012-7.184-.018-10.986q0-2.853,0-5.794,0-1.47,0-2.96V115.4c-.083.081.723-.726.384-.384l42.2.092h.29v.289c-.07,6.982-.12,12.677-.16,16.7-.03,1.9-.05,3.4-.07,4.5-.01.467-.02.847-.03,1.155A1.561,1.561,0,0,1,1013.8,138.131Z" fill="#e0e0e0"/>
      <path id="Path_1867" data-name="Path 1867" d="M148.272,220.465H63.861V243.2h84.411Z" fill="#ebebeb"/>
      <path id="Path_1868" data-name="Path 1868" d="M183.592,266.515a2.93,2.93,0,0,1-.024-.41c-.006-.3-.014-.681-.025-1.164-.013-1.057-.032-2.55-.057-4.471-.031-3.915-.073-9.563-.129-16.688l.233.233-84.406.148c.169-.17-.386.382.377-.381V249.6q0,2.894,0,5.739c0,3.794,0,7.526-.006,11.175l-.372-.373,60.181.17,17.744.107,4.793.049,1.253.023a3.483,3.483,0,0,1,.44.022,2.218,2.218,0,0,1-.393.024l-1.207.023-4.713.049-17.657.105-60.441.17-.373,0v-.374q0-5.474-.006-11.175,0-2.847,0-5.739v-5.821c.764-.764.216-.211.387-.383l84.407.148h.236l0,.233c-.055,7.186-.1,12.881-.129,16.828-.025,1.9-.044,3.373-.057,4.419-.01.466-.018.836-.025,1.122A2.424,2.424,0,0,1,183.592,266.515Z" fill="#e0e0e0"/>
      <path id="Path_1869" data-name="Path 1869" d="M794.286,399.577H709.875V422.31h84.411Z" fill="#ebebeb"/>
      <path id="Path_1870" data-name="Path 1870" d="M829.606,445.628a3.1,3.1,0,0,1-.023-.411c-.006-.3-.015-.681-.025-1.165q-.02-1.586-.057-4.472c-.031-3.914-.074-9.562-.129-16.687l.233.233-84.407.148c.169-.17-.386.381.377-.381v5.821q0,2.894,0,5.739,0,5.694-.006,11.175l-.373-.373,60.182.17,17.744.107,4.793.049,1.252.023a2.97,2.97,0,0,1,.44.024,2.307,2.307,0,0,1-.393.023c-.306.006-.7.015-1.207.023l-4.712.049-17.657.105L745.2,446h-.372v-.374q0-5.474-.006-11.174,0-2.847,0-5.74v-5.821c.765-.764.216-.212.388-.383l84.406.149h.236v.233c-.056,7.185-.1,12.88-.129,16.827q-.038,2.847-.057,4.419c-.011.466-.018.836-.025,1.122A1.959,1.959,0,0,1,829.606,445.628Z" fill="#e0e0e0"/>
      <path id="Path_1871" data-name="Path 1871" d="M412.3,531.617a3.606,3.606,0,0,1-.023-.411c-.006-.3-.015-.68-.025-1.163-.013-1.057-.032-2.551-.057-4.472-.031-3.914-.075-9.562-.129-16.688l.233.234-84.407.148c.169-.17-.386.381.377-.382v5.823q0,2.894,0,5.739c0,3.794-.005,7.526-.008,11.175l-.372-.373,60.181.17,17.744.107,4.793.049,1.253.023a2.978,2.978,0,0,1,.441.021,2.051,2.051,0,0,1-.393.023c-.306.006-.7.015-1.207.024l-4.712.048-17.657.107c-15.141.043-36.274.1-60.442.17l-.374,0v-.374q0-5.473-.006-11.175,0-2.847,0-5.739V508.88c.764-.764.215-.212.387-.382l84.407.148h.236l0,.233c-.055,7.185-.1,12.88-.129,16.827q-.038,2.847-.057,4.419c-.01.467-.017.836-.025,1.124A1.987,1.987,0,0,1,412.3,531.617Z" fill="#e0e0e0"/>
      <path id="Path_1872" data-name="Path 1872" d="M344.038,130.6a3.539,3.539,0,0,1-.023-.41c-.006-.3-.015-.681-.025-1.165q-.02-1.585-.057-4.472c-.031-3.914-.073-9.562-.129-16.688l.233.234-84.407.148c.169-.17-.385.381.377-.382v5.822q0,2.892,0,5.739c0,3.794-.005,7.525-.008,11.174l-.372-.372,60.182.17,17.743.107,4.793.048c.521.011.935.018,1.253.024a3.077,3.077,0,0,1,.441.023,2.081,2.081,0,0,1-.393.024l-1.207.023-4.712.049-17.657.107-60.442.17h-.374V130.6q0-5.473-.005-11.174,0-2.847,0-5.739v-5.822c.764-.764.216-.212.387-.382l84.407.148h.236v.233c-.056,7.185-.1,12.88-.129,16.827q-.037,2.847-.058,4.419c-.01.467-.017.836-.025,1.122A1.764,1.764,0,0,1,344.038,130.6Z" fill="#e0e0e0"/>
      <path id="Path_1873" data-name="Path 1873" d="M896.284,681.732c-23.451-18.494-27.157-50.509-24.537-78.942.437-4.746.205-9.79,2.708-13.832s7.948-6.587,12.09-4.336c3.435,1.867,4.736,6.065,6.515,9.578a27.869,27.869,0,0,0,10.535,11.3c2.938,1.747,6.628,2.926,9.714,1.45,4.233-2.025,5.045-7.664,5.29-12.4q.684-13.228,1.369-26.456c.245-4.731.51-9.561,2.242-13.965s5.224-8.385,9.8-9.386,9.987,1.919,10.669,6.6c.284,1.95-.225,3.927-.207,5.9s.806,4.2,2.638,4.852c1.856.664,3.827-.568,5.32-1.87,5.16-4.493,8.828-10.453,12.279-16.392s6.82-12.028,11.551-16.979,11.1-8.724,17.9-8.715,13.769,4.609,15.1,11.357c1.33,6.769-2.95,13.308-7.5,18.46a105.729,105.729,0,0,1-23.2,19.678c-1.552.973-3.235,2.021-3.906,3.74-1.21,3.093,1.6,6.4,4.65,7.617,3.457,1.378,7.3,1.235,10.966,1.883s7.564,2.506,8.757,6.073c1.658,4.947-2.679,9.78-6.85,12.867a90.585,90.585,0,0,1-27.663,13.9c-3.554,1.071-7.281,1.976-10.227,4.258s-4.887,6.435-3.387,9.864,5.792,4.752,9.476,4.288,7.061-2.255,10.609-3.364c6.642-2.076,15.01-1.141,18.848,4.719,2.521,3.851,2.464,9.007.826,13.327s-4.666,7.95-7.848,11.275c-11.127,11.617-25.033,20.684-40.417,25.039S910.951,688.081,896.284,681.732Z" fill="#f5f5f5"/>
      <path id="Path_1874" data-name="Path 1874" d="M904.675,664.3c5.028-14.134,11.823-29.171,19.47-44.654l5.7-11.443c1.88-3.75,3.746-7.471,5.8-11a211.886,211.886,0,0,1,12.936-19.588c4.416-6.03,8.826-11.592,12.987-16.763,4.176-5.165,8.156-9.905,11.97-14.069a168.152,168.152,0,0,1,19.439-18.3c2.455-1.975,4.41-3.441,5.748-4.419.644-.464,1.148-.828,1.525-1.1a3.791,3.791,0,0,1,.54-.351,2.981,2.981,0,0,1-.48.424c-.372.291-.861.678-1.481,1.171-1.3,1.022-3.222,2.533-5.642,4.544a177.707,177.707,0,0,0-19.2,18.452c-3.773,4.18-7.719,8.93-11.862,14.108s-8.517,10.758-12.905,16.786a214.426,214.426,0,0,0-12.842,19.537c-2.033,3.51-3.878,7.2-5.761,10.96l-5.7,11.439c-7.642,15.47-14.441,30.461-19.5,44.538" fill="#e0e0e0"/>
      <path id="Path_1875" data-name="Path 1875" d="M935.9,597.184a9.6,9.6,0,0,1-.344-2.044c-.173-1.322-.36-3.241-.555-5.616-.4-4.748-.718-11.324-1.047-18.575s-.744-13.808-1.21-18.536c-.227-2.366-.43-4.278-.587-5.6a9.494,9.494,0,0,1-.145-2.068,9.362,9.362,0,0,1,.48,2.016c.261,1.307.557,3.214.862,5.578.626,4.729,1.141,11.3,1.468,18.564.3,7.156.581,13.629.792,18.577.109,2.233.2,4.116.279,5.627A9.445,9.445,0,0,1,935.9,597.184Z" fill="#e0e0e0"/>
      <path id="Path_1876" data-name="Path 1876" d="M997.365,589.346a12.954,12.954,0,0,1-2.442.15c-1.568.048-3.839.106-6.64.267-5.6.279-13.333.933-21.828,2.03s-16.141,2.445-21.644,3.568c-2.757.543-4.975,1.042-6.51,1.377a13.144,13.144,0,0,1-2.407.445,12.936,12.936,0,0,1,2.326-.779c1.513-.437,3.716-1.031,6.464-1.654,5.485-1.284,13.141-2.718,21.661-3.834a214.157,214.157,0,0,1,21.915-1.776c2.813-.083,5.092-.046,6.664.013A13.041,13.041,0,0,1,997.365,589.346Z" fill="#e0e0e0"/>
      <path id="Path_1877" data-name="Path 1877" d="M905.487,663.222a3.209,3.209,0,0,1-.374-.765c-.246-.612-.547-1.357-.912-2.26-.783-1.966-1.843-4.842-3.1-8.41-2.53-7.137-5.714-17.1-9.078-28.151s-6.455-21.035-8.833-28.215c-1.166-3.49-2.126-6.36-2.841-8.494-.3-.926-.554-1.69-.759-2.316a3.17,3.17,0,0,1-.21-.829,3.216,3.216,0,0,1,.374.767c.246.612.547,1.355.912,2.259.783,1.967,1.844,4.841,3.1,8.41,2.53,7.136,5.714,17.1,9.08,28.155s6.454,21.031,8.831,28.211c1.168,3.49,2.127,6.361,2.841,8.494.3.927.554,1.691.76,2.317A3.2,3.2,0,0,1,905.487,663.222Z" fill="#e0e0e0"/>
      <path id="Path_1878" data-name="Path 1878" d="M987.806,641.866a3.305,3.305,0,0,1-.822.285c-.644.174-1.434.39-2.392.651l-8.816,2.3c-7.443,1.947-17.694,4.752-29.015,7.868s-21.611,5.831-29.1,7.622c-3.743.9-6.779,1.593-8.885,2.03-.974.2-1.776.356-2.431.49a3.238,3.238,0,0,1-.861.111,3.429,3.429,0,0,1,.822-.286l2.392-.648,8.815-2.3c7.443-1.945,17.7-4.752,29.021-7.867s21.606-5.83,29.092-7.621c3.743-.9,6.779-1.593,8.887-2.03l2.43-.49A3.17,3.17,0,0,1,987.806,641.866Z" fill="#e0e0e0"/>
      <path id="Path_1879" data-name="Path 1879" d="M175.874,488.654s-11.817,4.074.229,29.342,20.525,37.846,20.525,37.846,2.1,5.847-2.8,6.614-15.574-1.232-17.9,4.67c-2.417,6.122,1.916,12.074,10.883,17.434s28.18,17.828,29.912,18.962c1.7,1.113,3.365,3.852.113,4.91s-27.444,2.926-25.87,14.353,29.006,22.256,31.983,23.5,3.661,2.536,3.372,4.18-8.48,1.506-15.34,2.319-14.669,2.958-13.208,9.475,17.5,20.556,57.248,25.534l18.567,1.1,10.536-15.428c20.535-34.39,19.342-55.676,15.105-60.839s-10.736-.325-15.6,4.581-9.794,11.447-11.268,10.664-2.073-2.12-1.22-5.23,9.2-31.4,1.161-39.671-24.4,9.646-27.233,11.557-3.97-1.085-3.8-3.11c.173-2.064,2.172-24.881,3.464-35.247s-.733-17.445-7.044-19.307c-6.087-1.8-11.084,7.852-14.7,11.239s-6.934-1.867-6.934-1.867-4.7-14.424-17.2-39.468-23.215-18.014-23.215-18.014" fill="#ebebeb"/>
      <path id="Path_1880" data-name="Path 1880" d="M274.431,693.289c-9.109-18.429-24.751-51.457-38.327-79.743s-25.882-53.865-34.9-72.339c-4.51-9.216-8.162-16.682-10.7-21.866-1.254-2.566-2.229-4.566-2.9-5.949q-.477-1-.742-1.553c-.165-.352-.235-.539-.235-.539s.107.169.287.512l.794,1.528,3,5.9c2.6,5.126,6.314,12.571,10.865,21.787,9.11,18.43,21.481,43.993,35.052,72.269s29.157,61.339,38.175,79.813" fill="#e0e0e0"/>
      <path id="Path_1881" data-name="Path 1881" d="M190.754,570.524a6.1,6.1,0,0,1,1.287.4c.816.286,1.982.737,3.42,1.3,2.872,1.143,6.8,2.821,11.1,4.752,4.232,1.92,8.059,3.655,10.988,4.982l3.337,1.489a5.993,5.993,0,0,1,1.205.6,6.183,6.183,0,0,1-1.289-.386c-.816-.289-1.983-.738-3.414-1.322-2.862-1.17-6.765-2.9-11.064-4.831L195.3,572.6l-3.347-1.473A6.067,6.067,0,0,1,190.754,570.524Z" fill="#e0e0e0"/>
      <path id="Path_1882" data-name="Path 1882" d="M223.392,582.887c-.148-.059,2.955-8.306,6.933-18.418s7.323-18.268,7.471-18.209-2.955,8.3-6.933,18.42S223.54,582.946,223.392,582.887Z" fill="#e0e0e0"/>
      <path id="Path_1883" data-name="Path 1883" d="M242.276,627.258a6.338,6.338,0,0,1,.786-1.128c.611-.792,1.376-1.78,2.282-2.952,1.923-2.495,4.566-5.953,7.339-9.875s5.182-7.549,6.9-10.192c.808-1.244,1.489-2.291,2.033-3.13a6.388,6.388,0,0,1,.8-1.115,6.289,6.289,0,0,1-.61,1.231c-.427.773-1.063,1.88-1.88,3.23-1.628,2.7-3.978,6.381-6.77,10.31s-5.484,7.361-7.492,9.8c-1.009,1.213-1.838,2.185-2.429,2.841A6.118,6.118,0,0,1,242.276,627.258Z" fill="#e0e0e0"/>
      <path id="Path_1884" data-name="Path 1884" d="M210.295,622.572a5.451,5.451,0,0,1,1.269.056l3.432.365c2.893.333,6.887.835,11.293,1.423s8.392,1.153,11.273,1.59l3.407.547a5.465,5.465,0,0,1,1.239.278,5.334,5.334,0,0,1-1.268-.055l-3.432-.366c-2.894-.332-6.888-.834-11.295-1.422s-8.391-1.153-11.272-1.59l-3.407-.547A5.322,5.322,0,0,1,210.295,622.572Z" fill="#e0e0e0"/>
      <path id="Path_1885" data-name="Path 1885" d="M221.992,663.862a8.751,8.751,0,0,1,1.624.088l4.4.451c3.712.407,8.835,1.009,14.489,1.709s10.771,1.365,14.47,1.876l4.377.633a8.839,8.839,0,0,1,1.6.311,8.73,8.73,0,0,1-1.622-.088l-4.4-.451c-3.712-.407-8.835-1.008-14.49-1.709s-10.769-1.366-14.469-1.876l-4.377-.634A8.773,8.773,0,0,1,221.992,663.862Z" fill="#e0e0e0"/>
      <path id="Path_1886" data-name="Path 1886" d="M262,668.533a9.928,9.928,0,0,1,.959-1.453l2.759-3.849c2.326-3.252,5.522-7.754,8.909-12.826s6.347-9.734,8.461-13.128c1.016-1.63,1.86-2.982,2.506-4.017a10.026,10.026,0,0,1,.977-1.441,9.959,9.959,0,0,1-.783,1.555c-.537.983-1.335,2.391-2.351,4.116-2.027,3.451-4.93,8.162-8.331,13.236s-6.645,9.554-9.058,12.747c-1.21,1.593-2.2,2.873-2.908,3.742A10.5,10.5,0,0,1,262,668.533Z" fill="#e0e0e0"/>
      <path id="Path_1887" data-name="Path 1887" d="M171.235,623.858c-6.918-8.166-7.839-21.275-6.82-31.929s3.489-21.377,1.809-31.946c-1-6.261-3.425-12.24-4.246-18.528s.343-13.4,5.214-17.455c5.6-4.664,14.415-3.564,20.241.816s9.2,11.259,11.666,18.117c5.418,15.066,7.407,31.773,2.957,47.154s-14.9,29.131-30.218,33.773" fill="#fcbf49"/>
      <path id="Path_1888" data-name="Path 1888" d="M207.98,642.413c1.137-3.941,3.573-7.751,7.341-9.375,3.919-1.688,8.458-.728,12.468.73s7.949,3.407,12.207,3.67,9.066-1.757,10.342-5.83c1.2-3.828-1.109-7.911-4-10.692a25.238,25.238,0,0,0-41.35,9.926" fill="#e8505b"/>
      <g id="Group_1757" data-name="Group 1757" opacity="0.3">
        <path id="Path_1889" data-name="Path 1889" d="M207.98,642.413c1.137-3.941,3.573-7.751,7.341-9.375,3.919-1.688,8.458-.728,12.468.73s7.949,3.407,12.207,3.67,9.066-1.757,10.342-5.83c1.2-3.828-1.109-7.911-4-10.692a25.238,25.238,0,0,0-41.35,9.926"/>
      </g>
      <path id="Path_1890" data-name="Path 1890" d="M174.24,659.52c-6.248-5.936-5.937-16.27-2.819-24.3s9.92-14.205,17.519-18.272a55.479,55.479,0,0,1,48.353-1.566,22.952,22.952,0,0,0-18.556,10.9c-3.425,5.687-4.186,12.588-7.015,18.594A29.274,29.274,0,0,1,174.24,659.52Z" fill="#fcbf49"/>
      <path id="Path_1891" data-name="Path 1891" d="M167.915,690.86a4.339,4.339,0,0,1-.046-.942c0-.617-.012-1.528.034-2.7.076-2.344.292-5.733.808-9.9a130.8,130.8,0,0,1,2.64-14.495,66.653,66.653,0,0,1,6.612-16.795,69.871,69.871,0,0,1,22.168-23.864c1.733-1.192,3.409-2.1,4.851-2.933,1.478-.77,2.77-1.4,3.828-1.907l2.5-1.031a4.557,4.557,0,0,1,.889-.311,4.313,4.313,0,0,1-.828.452l-2.431,1.157c-1.034.544-2.3,1.21-3.748,2.011-1.414.867-3.058,1.8-4.757,3.008a71.542,71.542,0,0,0-21.8,23.789c-6.351,11.107-8.1,22.792-9.383,30.988-.582,4.138-.88,7.509-1.047,9.841-.072,1.1-.13,1.994-.176,2.689A4.428,4.428,0,0,1,167.915,690.86Z" fill="#263238"/>
      <path id="Path_1892" data-name="Path 1892" d="M107.792,601.236c-12.8,7.724-12.76,14.754-10.621,21.387s9.993,11.244,16.506,8.759c3.682-1.4,6.35-4.6,8.627-7.82s4.418-6.657,7.611-8.967,7.82-3.193,11.028-.9" fill="#e8505b"/>
      <g id="Group_1758" data-name="Group 1758" opacity="0.3">
        <path id="Path_1893" data-name="Path 1893" d="M107.792,601.236c-12.8,7.724-12.76,14.754-10.621,21.387s9.993,11.244,16.506,8.759c3.682-1.4,6.35-4.6,8.627-7.82s4.418-6.657,7.611-8.967,7.82-3.193,11.028-.9"/>
      </g>
      <path id="Path_1894" data-name="Path 1894" d="M98.209,609.7c3.345-4.624,11.615-5.963,16.836-3.656s9.045,6.884,12.468,11.452,6.755,9.391,11.5,12.569,11.365,4.33,16.091,1.128a13.828,13.828,0,0,0,5.466-9.465,31.517,31.517,0,0,0-.751-11.159c-1.129-5.368-2.973-10.974-7.269-14.385-4.787-3.8-11.431-3.981-17.541-3.782-7.011.229-14.127.756-20.707,3.186S101,603.269,98.209,609.7Z" fill="#fcbf49"/>
      <path id="Path_1895" data-name="Path 1895" d="M156.825,690.2a6,6,0,0,1-.1-1.107c-.032-.8-.075-1.856-.128-3.177-.089-2.843-.212-6.811-.365-11.682-.164-4.931-.371-10.8-.732-17.313s-.855-13.666-1.842-21.111a68.215,68.215,0,0,0-2.115-10.711,55.712,55.712,0,0,0-3.91-9.372,50.779,50.779,0,0,0-10.319-13.691,39.907,39.907,0,0,0-9.551-6.547,30.625,30.625,0,0,0-2.9-1.268,6.029,6.029,0,0,1-1.015-.451,5.841,5.841,0,0,1,1.066.308,23.366,23.366,0,0,1,2.974,1.142,38.112,38.112,0,0,1,9.789,6.418A50.248,50.248,0,0,1,148.257,615.4a55.6,55.6,0,0,1,4,9.479,67.673,67.673,0,0,1,2.157,10.83c.993,7.486,1.456,14.658,1.788,21.177s.475,12.4.569,17.335.12,8.93.123,11.69c-.006,1.322-.012,2.379-.015,3.18A6.171,6.171,0,0,1,156.825,690.2Z" fill="#263238"/>
      <path id="Path_1896" data-name="Path 1896" d="M162.522,690.2a1.364,1.364,0,0,1-.137-.358c-.086-.285-.195-.638-.328-1.074a41.774,41.774,0,0,1-1-4.2,71.288,71.288,0,0,1-.994-15.842,95.6,95.6,0,0,1,3.843-23.224c2.566-8.5,6.214-17.542,9.439-27.216a119.607,119.607,0,0,0,5.977-28.023,193.121,193.121,0,0,0,.539-23.463c-.209-6.686-.553-12.094-.764-15.832-.1-1.823-.179-3.262-.237-4.3-.018-.455-.033-.824-.044-1.121a1.443,1.443,0,0,1,.011-.384,1.41,1.41,0,0,1,.068.379c.031.3.07.663.119,1.116.092,1.041.218,2.477.38,4.3.3,3.732.727,9.137,1.006,15.834a185.185,185.185,0,0,1-.379,23.543,118.185,118.185,0,0,1-5.951,28.2c-3.237,9.71-6.9,18.734-9.493,27.182a97.2,97.2,0,0,0-3.976,23.041,75.366,75.366,0,0,0,.748,15.767c.32,1.839.6,3.265.854,4.215.1.443.187.8.255,1.091A1.583,1.583,0,0,1,162.522,690.2Z" fill="#263238"/>
      <path id="Path_1897" data-name="Path 1897" d="M657.772,456.619H645.058V690.355h12.714Z" fill="#e0e0e0"/>
      <path id="Path_1898" data-name="Path 1898" d="M664.265,448.619A12.814,12.814,0,1,1,651.451,435.8,12.815,12.815,0,0,1,664.265,448.619Z" fill="#fcbf49"/>
      <path id="Path_1899" data-name="Path 1899" d="M910.444,456.619H897.728V690.355h12.716Z" fill="#e0e0e0"/>
      <path id="Path_1900" data-name="Path 1900" d="M916.936,448.619A12.814,12.814,0,1,1,904.122,435.8,12.815,12.815,0,0,1,916.936,448.619Z" fill="#fcbf49"/>
      <path id="Path_1901" data-name="Path 1901" d="M934.517,479.173H608.762v58.285H934.517Z" fill="#fcbf49"/>
      <path id="Path_1902" data-name="Path 1902" d="M645.623,479.173l-.566.965-33.468,57.32h-2.827V479.173Z" fill="#f5f5f5"/>
      <path id="Path_1903" data-name="Path 1903" d="M727.959,479.173,693.9,537.458H649.383L662.922,514.3l20.526-35.131Z" fill="#f5f5f5"/>
      <path id="Path_1904" data-name="Path 1904" d="M810.264,479.173,776.2,537.458H731.686l34.066-58.285Z" fill="#f5f5f5"/>
      <path id="Path_1905" data-name="Path 1905" d="M892.563,479.186l-34.075,58.272H813.983l34.075-58.272Z" fill="#f5f5f5"/>
      <path id="Path_1906" data-name="Path 1906" d="M934.518,479.186v58.272h-38.23l34.075-58.272Z" fill="#f5f5f5"/>
      <path id="Path_1907" data-name="Path 1907" d="M934.517,569.216H608.762V627.5H934.517Z" fill="#fcbf49"/>
      <path id="Path_1908" data-name="Path 1908" d="M645.623,569.216l-.566.965L611.589,627.5h-2.827V569.216Z" fill="#f5f5f5"/>
      <path id="Path_1909" data-name="Path 1909" d="M727.959,569.216,693.9,627.5H649.383l13.539-23.153,20.526-35.131Z" fill="#f5f5f5"/>
      <path id="Path_1910" data-name="Path 1910" d="M810.264,569.216,776.2,627.5H731.686l34.066-58.284Z" fill="#f5f5f5"/>
      <path id="Path_1911" data-name="Path 1911" d="M892.563,569.228,858.488,627.5H813.983l34.075-58.274Z" fill="#f5f5f5"/>
      <path id="Path_1912" data-name="Path 1912" d="M934.518,569.228V627.5h-38.23l34.075-58.274Z" fill="#f5f5f5"/>
      <path id="Path_1913" data-name="Path 1913" d="M934.518,537.459s-.021-.35-.032-1.007c-.007-.689-.019-1.653-.035-2.914-.019-2.6-.045-6.384-.081-11.327-.044-9.922-.108-24.446-.19-43.036l.338.338c-66.786.064-187.764.176-325.737.3h-.019l.643-.643c0,19.965-.005,39.575-.007,58.284l-.636-.637c92.234.111,173.581.21,231.909.282,29.184.079,52.6.142,68.768.184l18.576.087c2.1.017,3.708.032,4.833.042,1.091.012,1.67.042,1.67.042s-.522.027-1.586.042c-1.106.01-2.687.023-4.754.043l-18.436.086-68.619.185L608.76,538.1h-.636v-.638c0-18.709-.005-38.319-.008-58.284v-.644h.663l325.738.3h.34v.339c-.082,18.675-.145,33.267-.189,43.234-.036,4.91-.063,8.672-.081,11.252-.015,1.237-.026,2.181-.035,2.857C934.542,537.152,934.518,537.459,934.518,537.459Z" fill="#263238"/>
      <path id="Path_1914" data-name="Path 1914" d="M934.518,627.5s-.021-.349-.032-1.006c-.007-.689-.019-1.653-.035-2.914-.019-2.6-.045-6.385-.081-11.327-.044-9.922-.108-24.447-.19-43.037l.338.339-325.737.3h-.019l.643-.644c0,19.966-.005,39.575-.007,58.284l-.636-.637c92.234.112,173.581.21,231.909.282l68.768.185,18.576.086,4.833.043c1.091.013,1.67.041,1.67.041s-.522.028-1.586.043l-4.754.042c-4.24.019-10.437.048-18.436.087-16.13.044-39.5.107-68.619.184l-232.363.282h-.636V627.5c0-18.709-.005-38.318-.008-58.284v-.644h.663c137.975.129,258.952.244,325.738.3h.34v.339c-.082,18.675-.145,33.267-.189,43.235-.036,4.91-.063,8.673-.081,11.25-.015,1.237-.026,2.181-.035,2.857C934.542,627.2,934.518,627.5,934.518,627.5Z" fill="#263238"/>
      <path id="Path_1915" data-name="Path 1915" d="M1008.74,690.356c0,.211-206.059.381-460.185.381-254.214,0-460.227-.171-460.227-.381s206.013-.381,460.227-.381C802.68,689.975,1008.74,690.145,1008.74,690.356Z" fill="#263238"/>
      <path id="Path_1916" data-name="Path 1916" d="M232.263,334.262H218.91V690.356h13.353Z" fill="#e0e0e0"/>
      <path id="Path_1917" data-name="Path 1917" d="M232.263,690.356s-.017-.635-.026-1.851-.015-3.026-.027-5.381c-.011-4.735-.03-11.694-.054-20.661-.028-17.939-.067-43.9-.116-76.047-.039-64.249-.095-153.215-.157-252.155l.382.381H218.912l.381-.381c-.137,171.591-.252,315.767-.284,356.093l-.1-.1,10.088.056c2.194.019,3.263.043,3.263.043s-1.021.023-3.207.041l-10.145.055h-.1v-.1c-.032-40.326-.148-184.5-.285-356.093v-.382h14.117v.382c-.062,99.051-.117,188.116-.157,252.438-.048,32.11-.088,58.039-.116,75.957-.023,8.929-.042,15.858-.054,20.572-.012,2.333-.021,4.115-.026,5.33C232.281,689.756,232.263,690.356,232.263,690.356Z" fill="#263238"/>
      <path id="Path_1918" data-name="Path 1918" d="M257.188,342.384a77.646,77.646,0,1,0-102.52-39.335A77.646,77.646,0,0,0,257.188,342.384Z" fill="#fcbf49"/>
      <path id="Path_1919" data-name="Path 1919" d="M295.47,268.529a7.134,7.134,0,0,1-.126-1.131c-.057-.807-.135-1.906-.234-3.314q-.07-1.1-.156-2.441c-.1-.893-.292-1.861-.453-2.916a51.116,51.116,0,0,0-1.471-7.2,66.7,66.7,0,0,0-7.762-18.5,69.751,69.751,0,0,0-46.889-32.6c-11.358-1.95-24.179-1.6-36.389,3.045a72.463,72.463,0,0,0-9.031,3.973c-1.462.794-2.864,1.718-4.31,2.577a35.207,35.207,0,0,0-4.177,2.881,63.292,63.292,0,0,0-14.635,14.7,67.055,67.055,0,0,0-9.894,19.072,68.62,68.62,0,0,0,0,43.684,67.044,67.044,0,0,0,9.894,19.079,63.339,63.339,0,0,0,14.637,14.707,35.278,35.278,0,0,0,4.179,2.882c1.447.86,2.849,1.784,4.312,2.579a72.236,72.236,0,0,0,9.031,3.973c12.212,4.64,25.035,4.994,36.394,3.043a69.758,69.758,0,0,0,46.888-32.608,66.721,66.721,0,0,0,7.76-18.495,50.753,50.753,0,0,0,1.471-7.2c.16-1.053.355-2.021.452-2.914q.086-1.338.156-2.439c.1-1.408.177-2.507.234-3.315a7.246,7.246,0,0,1,.123-1.128,6.878,6.878,0,0,1,.012,1.132c-.025.811-.058,1.914-.1,3.33q-.042,1.109-.092,2.455c-.077.9-.251,1.876-.391,2.938a49.6,49.6,0,0,1-1.359,7.27,66.2,66.2,0,0,1-7.622,18.751,70.32,70.32,0,0,1-47.328,33.317c-11.533,2.033-24.574,1.714-37.02-2.974a73.331,73.331,0,0,1-9.205-4.026c-1.49-.806-2.922-1.743-4.4-2.616a36.041,36.041,0,0,1-4.261-2.926,64.49,64.49,0,0,1-14.932-14.96,68.257,68.257,0,0,1-10.1-19.434,69.833,69.833,0,0,1,0-44.527,68.307,68.307,0,0,1,10.1-19.429,64.545,64.545,0,0,1,14.932-14.955,36.2,36.2,0,0,1,4.261-2.925c1.476-.873,2.906-1.81,4.4-2.615a73.152,73.152,0,0,1,9.2-4.025c12.445-4.687,25.485-5.007,37.016-2.975a70.314,70.314,0,0,1,47.329,33.313,66.19,66.19,0,0,1,7.624,18.753,49.585,49.585,0,0,1,1.359,7.271c.141,1.061.314,2.038.392,2.937q.051,1.348.092,2.455c.043,1.414.077,2.519.1,3.33A7.016,7.016,0,0,1,295.47,268.529Z" fill="#fff"/>
      <path id="Path_1920" data-name="Path 1920" d="M266.01,259.771H185.16V276.64h80.85Z" fill="#fafafa"/>
      <path id="Path_1921" data-name="Path 1921" d="M516.377,195.419c-1.885.126.587,4.213-1.269,4.571-2.427.468-4.733-1.314-6.177-3.315s-2.45-4.357-4.3-5.994c-2.42-2.144-5.818-2.674-8.88-3.724A24.922,24.922,0,0,1,481.607,152l10.724-21.835c-3.328-2.1-4.132-6.986-2.328-10.478s5.631-5.612,9.522-6.238a18.183,18.183,0,0,1,15.63,5.16c2.149,2.2,3.888,5.077,6.8,6.086,2.559.888,5.391.087,8.08.433,3.6.465,6.69,3.017,8.538,6.132A26.149,26.149,0,0,1,541.61,141.6c.391,3.3.649,6.918,2.948,9.326,0,0,3.552,3.208,3.552,6.9,0,8.442-8.083,6.846-8.428,9.948-.671,6.047,1.9,8.9-4.068,12.649,0,0,1.085,2.7-2.983,7.43s-8.333,4.167-8.333,4.167Z" fill="#263238"/>
      <path id="Path_1922" data-name="Path 1922" d="M485.283,135.433a5.536,5.536,0,0,0-4.952,5.618l3.311,74.646c.138,8.816,13.075,13.769,22.55,13.55,9.568-.221,9.876-4.9,10-13.283.2-14.013.184-19.272.19-19.193,0,0,12.087-2.027,14.556-17.747,1.228-7.817.806-20.631.121-31.1-.618-9.427-6.914-20.98-16.342-19.966Z" fill="#ffbe9d"/>
      <path id="Path_1923" data-name="Path 1923" d="M525.8,156.945a2.017,2.017,0,0,1-1.946,2.037,1.933,1.933,0,0,1-2.09-1.813,2.018,2.018,0,0,1,1.943-2.038A1.935,1.935,0,0,1,525.8,156.945Z" fill="#263238"/>
      <path id="Path_1924" data-name="Path 1924" d="M528.276,155.151c-.251.263-1.785-.864-3.963-.852-2.175-.021-3.769,1.1-4.007.833-.116-.117.138-.593.833-1.1a5.573,5.573,0,0,1,3.208-.992,5.336,5.336,0,0,1,3.155,1.007C528.172,154.559,528.4,155.034,528.276,155.151Z" fill="#263238"/>
      <path id="Path_1925" data-name="Path 1925" d="M504.913,157.715a2.018,2.018,0,0,1-1.947,2.037,1.933,1.933,0,0,1-2.09-1.813,2.019,2.019,0,0,1,1.945-2.038A1.935,1.935,0,0,1,504.913,157.715Z" fill="#263238"/>
      <path id="Path_1926" data-name="Path 1926" d="M506.685,155.7c-.251.264-1.788-.863-3.963-.852-2.175-.021-3.771,1.1-4.007.833-.116-.118.135-.593.833-1.1a5.561,5.561,0,0,1,3.206-.993,5.343,5.343,0,0,1,3.155,1.008C506.577,155.11,506.806,155.584,506.685,155.7Z" fill="#263238"/>
      <path id="Path_1927" data-name="Path 1927" d="M514.813,171.11a14.518,14.518,0,0,1,3.535-.644c.556-.058,1.083-.17,1.175-.547a2.818,2.818,0,0,0-.374-1.641q-.787-2.009-1.653-4.214c-2.3-6-3.96-10.932-3.716-11.022s2.3,4.7,4.6,10.7c.552,1.48,1.08,2.889,1.584,4.239a3.2,3.2,0,0,1,.293,2.172,1.388,1.388,0,0,1-.912.811,3.744,3.744,0,0,1-.943.132A14.206,14.206,0,0,1,514.813,171.11Z" fill="#263238"/>
      <path id="Path_1928" data-name="Path 1928" d="M516.375,196.77a40.255,40.255,0,0,1-21.139-5.568s5.355,11.079,21.139,9.575Z" fill="#eb996e"/>
      <path id="Path_1929" data-name="Path 1929" d="M513.907,176.339a3.927,3.927,0,0,0-3.52-1.444,3.587,3.587,0,0,0-2.47,1.328,2.254,2.254,0,0,0-.167,2.585,2.639,2.639,0,0,0,2.856.713,8.25,8.25,0,0,0,2.779-1.66,2.441,2.441,0,0,0,.621-.642.724.724,0,0,0-.006-.807" fill="#eb996e"/>
      <path id="Path_1930" data-name="Path 1930" d="M507.265,151.794c-.344.525-2.4-.236-4.955-.512-2.552-.328-4.727-.066-4.938-.657-.089-.28.386-.739,1.326-1.109a8.692,8.692,0,0,1,7.537.892C507.064,150.985,507.417,151.543,507.265,151.794Z" fill="#263238"/>
      <path id="Path_1931" data-name="Path 1931" d="M528.173,151.026c-.415.544-2.324.253-4.552.491-2.234.174-4.07.811-4.564.35-.22-.225.019-.75.787-1.311a7.547,7.547,0,0,1,3.6-1.235,7.39,7.39,0,0,1,3.745.558C528.036,150.289,528.354,150.763,528.173,151.026Z" fill="#263238"/>
      <path id="Path_1932" data-name="Path 1932" d="M493.942,126.779a10.779,10.779,0,0,0,12.735,10.615c2.41-.438,5.051-1.653,7.137-.372,2.194,1.345,2.285,4.64,4.231,6.323,2.781,2.4,7.2.148,10.733,1.191,2.727.805,4.429,3.4,6.241,5.585s4.524,4.26,7.251,3.454a31.769,31.769,0,0,0-1.083-7.247,10.714,10.714,0,0,0-4.13-5.9,39.139,39.139,0,0,1-3.486-2.021c-2.263-1.82-2.788-4.988-4.184-7.528a11.832,11.832,0,0,0-9.012-5.955c-3.1-.316-6.3.612-9.326-.148-2.237-.562-4.189-2.008-6.455-2.436-4.412-.836-8.512,2.319-11.711,5.459" fill="#263238"/>
      <path id="Path_1933" data-name="Path 1933" d="M485.64,160.83c-.47-.125-2.357,2.646.668,3.328,5.3,1.194,6-9.117,4.817-12.066a30.726,30.726,0,0,0,5.318-5.571c1.462-2.154,2.751-8.03,2.439-10.674,1.911.111,10.048-2.565,9.18-2.813-1.977-.564-6.025-1.84-7.086-3.548-2.3-3.712-6.365-6.245-10.516-6.019a9.964,9.964,0,0,0-8.983,7.855,14.349,14.349,0,0,0-12.33,7.907,16.512,16.512,0,0,0,.447,15.409c.7,1.194,1.592,2.386,1.612,3.8.025,1.748-1.274,3.134-2.19,4.58-2.5,3.944-2.311,9.361-.38,13.656s3.293,5.8,6.043,6.665c5.381,1.682-.861,12.723,8.093,12.723" fill="#263238"/>
      <path id="Path_1934" data-name="Path 1934" d="M485.857,165.15a4.6,4.6,0,0,0-6.733-3.9c-1.6.919-2.819,2.769-2.673,6.318.392,9.466,9.851,7.122,9.856,6.849C486.31,174.25,486.054,169.066,485.857,165.15Z" fill="#ffbe9d"/>
      <path id="Path_1935" data-name="Path 1935" d="M483.257,170.952c-.042-.028-.161.123-.435.261a1.669,1.669,0,0,1-1.237.076c-1.019-.325-1.93-1.879-2.046-3.583a5.433,5.433,0,0,1,.366-2.38,1.908,1.908,0,0,1,1.192-1.317.845.845,0,0,1,1,.412c.138.259.086.45.136.465.028.022.2-.167.1-.555a1.054,1.054,0,0,0-.4-.578,1.25,1.25,0,0,0-.925-.2,2.324,2.324,0,0,0-1.669,1.538,5.588,5.588,0,0,0-.465,2.662c.139,1.9,1.194,3.649,2.584,3.988a1.783,1.783,0,0,0,1.5-.312C483.25,171.181,483.291,170.968,483.257,170.952Z" fill="#eb996e"/>
      <path id="Path_1936" data-name="Path 1936" d="M494.978,130.477a5.677,5.677,0,0,0-1.9,1.582c-.941,1.289-1.295,3.762-.7,6.545l.051.239-.235.059a9.181,9.181,0,0,0-6.121,5.372,7.106,7.106,0,0,0-.493,2.31,13.734,13.734,0,0,0,.3,2.5,18.676,18.676,0,0,1,.362,2.694,4.448,4.448,0,0,1-.753,2.793c-1.182,1.791-3.081,2.674-4.713,3.529a15.938,15.938,0,0,0-4.412,2.879,11.807,11.807,0,0,0-3.55,7.932,12.309,12.309,0,0,0,1.253,5.85c.631,1.292,1.162,1.908,1.107,1.948-.017.014-.157-.132-.406-.426a10.009,10.009,0,0,1-.933-1.4,11.968,11.968,0,0,1-1.494-5.982,12.151,12.151,0,0,1,3.587-8.356,16.365,16.365,0,0,1,4.548-3.024c1.633-.855,3.422-1.728,4.452-3.309,1.051-1.437.582-3.313.3-5.009a14.478,14.478,0,0,1-.294-2.626,7.683,7.683,0,0,1,.556-2.526,9.624,9.624,0,0,1,6.586-5.625l-.184.3c-.563-2.919-.117-5.478.958-6.82a3.992,3.992,0,0,1,1.487-1.207A2.351,2.351,0,0,1,494.978,130.477Z" fill="#455a64"/>
      <path id="Path_1937" data-name="Path 1937" d="M513.764,179.455c-.163.2-1.7-.779-3.627-1.923s-3.511-2.047-3.41-2.285,1.9.311,3.881,1.5S513.921,179.264,513.764,179.455Z" fill="#263238"/>
      <path id="Path_1938" data-name="Path 1938" d="M540.816,162.228c-.081-.286,1.036-.642,2.278-1.987a6.018,6.018,0,0,0,1.453-2.778,5.662,5.662,0,0,0-.6-3.853c-.676-1.24-2.043-2.171-3.9-3.2a21.45,21.45,0,0,1-2.974-1.929,10.377,10.377,0,0,1-2.61-3.2c-1.3-2.409-1.8-5.035-2.725-7.1a8.828,8.828,0,0,0-1.752-2.711,4,4,0,0,0-2.492-1.186c-2.084-.3-4.88.742-8.156.142a10.065,10.065,0,0,1-4.167-2.008,24.061,24.061,0,0,1-2.854-2.719,19.363,19.363,0,0,0-4.616-4.133,9.924,9.924,0,0,0-4.928-1.167,10.5,10.5,0,0,0-6.917,3c-1.378,1.311-1.931,2.311-2.2,2.191-.21-.072-.136-1.314,1.062-3.143a10.676,10.676,0,0,1,2.8-2.825,11.233,11.233,0,0,1,5.044-1.912,12.207,12.207,0,0,1,6.546,1.021,20.765,20.765,0,0,1,5.739,4.521c1.662,1.671,3.344,3.183,5.215,3.5a11.632,11.632,0,0,0,3.378-.067,19.194,19.194,0,0,1,4.507-.195,7.793,7.793,0,0,1,4.72,2.283,12.238,12.238,0,0,1,2.509,3.921c1.106,2.72,1.483,5.12,2.416,6.965a7.143,7.143,0,0,0,1.665,2.263,20.2,20.2,0,0,0,2.455,1.786,20.731,20.731,0,0,1,2.657,1.98,8.372,8.372,0,0,1,2.005,2.725,7.67,7.67,0,0,1,.223,5.647,6.9,6.9,0,0,1-2.53,3.3C542.161,162.639,540.831,162.441,540.816,162.228Z" fill="#455a64"/>
      <path id="Path_1939" data-name="Path 1939" d="M481.687,192.02,478.982,202.2s-13.52,19.452-15.623,22.745-6.909,15.563-7.511,21.548,21.031,90.98,21.031,90.083,62.188,17.657,62.188,17.657l12.691-11.455s2.146-27.709.943-30.1-1.317-38.946-4.623-52.414-29.43-43.525-29.43-43.525l-2.383-6.659-.053,6.569Z" fill="#e0e0e0"/>
      <path id="Path_1940" data-name="Path 1940" d="M475.365,232.6a28.482,28.482,0,0,0,2.753,28.974c9.79,13.445,23.887,32.531,25.008,32.531,1.73,0,36.552-32.12,36.552-32.12s-19.306-30.316-29.33-37.01c-4.719-3.151-19.459-9.094-25.908-5.753C481.616,220.688,478.253,226.515,475.365,232.6Z" fill="#e0e0e0"/>
      <path id="Path_1941" data-name="Path 1941" d="M487.039,218.253c-.3-.022-.006-2.579.761-5.572.748-3.011,1.542-5.383,1.712-5.348.243.052-.226,2.535-.969,5.53A45.635,45.635,0,0,1,487.039,218.253Z" fill="#263238"/>
      <path id="Path_1942" data-name="Path 1942" d="M516.213,216.642a5.65,5.65,0,0,1-1.145-.651c-.822-.535-1.851-1.207-3.1-2.021l.338-.164a21.621,21.621,0,0,0,.581,4.486,27.982,27.982,0,0,1,.794,5.8l-.012.691-.547-.452c-2.916-2.408-6.368-5.08-10.127-7.775-6.32-4.521-12.285-8.266-16.7-10.807-2.2-1.282-4.012-2.264-5.262-2.95a12.6,12.6,0,0,1-1.921-1.11,12.385,12.385,0,0,1,2.055.845c1.293.6,3.15,1.518,5.393,2.744a165.143,165.143,0,0,1,16.878,10.657c3.774,2.7,7.223,5.413,10.12,7.874l-.557.239a29.014,29.014,0,0,0-.678-5.654,20.493,20.493,0,0,1-.449-4.618l.027-.393.312.228c1.2.882,2.193,1.608,2.985,2.187A5.746,5.746,0,0,1,516.213,216.642Z" fill="#263238"/>
      <path id="Path_1943" data-name="Path 1943" d="M508.945,289.2l-.06-.073Z" fill="#ffbe9d"/>
      <path id="Path_1944" data-name="Path 1944" d="M508.885,289.132Z" fill="#ffbe9d"/>
      <path id="Path_1945" data-name="Path 1945" d="M565.674,282.072c-4.092-2.576-10.986-.858-10.986-.858l-17.114-17.291-28.627,25.283c2.919,3.521,23.367,20.357,30.734,22.693,8.115,2.576,17.163,1.074,20.179-3.219s7.754-10.729,7.754-10.729S569.767,284.647,565.674,282.072Z" fill="#ffbe9d"/>
      <path id="Path_1946" data-name="Path 1946" d="M555.188,260.151l8.639,6.066s7.93.846,11.047,8.042,3.75,23-6.693,23.279l-23.615-17.212V267.065Z" fill="#ffbe9d"/>
      <path id="Path_1947" data-name="Path 1947" d="M572.489,272.96c-.085.1-1.32-.977-3.626-2.194a22.014,22.014,0,0,0-19.54-.614c-2.376,1.07-3.679,2.07-3.757,1.961-.029-.038.263-.328.851-.784a17.441,17.441,0,0,1,2.672-1.665,20.812,20.812,0,0,1,20.037.629,17.367,17.367,0,0,1,2.562,1.829C572.247,272.615,572.521,272.924,572.489,272.96Z" fill="#eb996e"/>
      <path id="Path_1948" data-name="Path 1948" d="M548.181,264.708l9.695-6.392-34.263-35.67Z" fill="#e0e0e0"/>
      <path id="Path_1949" data-name="Path 1949" d="M482.653,267.779a3.273,3.273,0,0,1,.4.442l1.1,1.348c.984,1.235,2.379,2.984,4.155,5.215l15.05,19.14-.418-.045q1.944-1.621,4.014-3.344c1.365-1.165,2.722-2.423,4.14-3.68q4.239-3.795,8.887-7.951c6.189-5.526,12.864-11.485,19.851-17.725l-.063.493c-1.725-2.6-3.6-5.325-5.553-8.046-3.715-5.18-7.528-10.1-11.361-14.734q-2.875-3.474-5.753-6.723a65.588,65.588,0,0,0-5.91-6.031,27.1,27.1,0,0,0-6.635-4.387,35.447,35.447,0,0,0-7.192-2.26,57.1,57.1,0,0,0-6.971-1.16,10.375,10.375,0,0,0-6.162,1.321,16.369,16.369,0,0,0-4.391,3.853,33.706,33.706,0,0,0-3,4.346,37.267,37.267,0,0,0-3.391,7.754,39.2,39.2,0,0,0-1.2,5.229c-.085.575-.153,1.031-.2,1.384a2.2,2.2,0,0,1-.088.471,28.569,28.569,0,0,1,1.21-7.168,36.551,36.551,0,0,1,3.3-7.881,33.553,33.553,0,0,1,2.99-4.441,16.775,16.775,0,0,1,4.5-4.013,10.938,10.938,0,0,1,6.465-1.442,57.3,57.3,0,0,1,7.068,1.129,35.974,35.974,0,0,1,7.336,2.268,27.7,27.7,0,0,1,6.82,4.467,66,66,0,0,1,5.993,6.078q2.889,3.252,5.784,6.731c3.852,4.636,7.68,9.571,11.407,14.766,1.958,2.73,3.838,5.462,5.566,8.073l.182.274-.247.218c-7,6.226-13.693,12.172-19.9,17.687l-8.922,7.914c-1.426,1.251-2.788,2.5-4.162,3.658q-2.083,1.712-4.044,3.325l-.235.194-.183-.24c-6.216-8.079-11.292-14.676-14.846-19.3l-4.031-5.312c-.435-.587-.776-1.049-1.034-1.4A3.1,3.1,0,0,1,482.653,267.779Z" fill="#263238"/>
      <path id="Path_1950" data-name="Path 1950" d="M567.612,297.951c-.066-.019.191-.74.448-2.062a12.177,12.177,0,0,0,.126-2.445c-.022-.974.1-2.094.094-3.282a12.629,12.629,0,0,0-2.5-7.8,9.934,9.934,0,0,0-9.073-3.317,9.027,9.027,0,0,0-3.56,1.318l-.261.169-.216-.22c-4.548-4.65-8.537-8.775-11.372-11.757-1.332-1.421-2.441-2.6-3.313-3.535a8.564,8.564,0,0,1-1.135-1.349,8.552,8.552,0,0,1,1.328,1.159c.916.888,2.079,2.016,3.476,3.374,2.931,2.887,6.986,6.948,11.555,11.578l-.475-.051a9.693,9.693,0,0,1,3.857-1.44,10.56,10.56,0,0,1,9.737,3.633,12.93,12.93,0,0,1,2.486,8.244c-.035,1.249-.189,2.323-.207,3.289a11.13,11.13,0,0,1-.261,2.5,11.752,11.752,0,0,1-.49,1.506C567.722,297.788,567.637,297.96,567.612,297.951Z" fill="#eb996e"/>
      <path id="Path_1951" data-name="Path 1951" d="M523.614,223.694a11.182,11.182,0,0,1,1.4,1.583c.865,1.048,2.1,2.577,3.6,4.489a126.462,126.462,0,0,1,10.747,15.686,48.752,48.752,0,0,1,4.227,9.62,22.953,22.953,0,0,1,1,8.52c-.091,2.317-.167,4.25-.226,5.752a11.136,11.136,0,0,1-.188,2.109,11.263,11.263,0,0,1-.11-2.109c0-1.5-.01-3.435-.017-5.752a23.256,23.256,0,0,0-1.134-8.316,50.8,50.8,0,0,0-4.22-9.451,153.079,153.079,0,0,0-10.508-15.732l-3.409-4.634A11.173,11.173,0,0,1,523.614,223.694Z" fill="#263238"/>
      <path id="Path_1952" data-name="Path 1952" d="M503.09,313.909c.229-.075,1.558,4.463,4.49,9.43,2.9,4.993,6.2,8.375,6.019,8.538a9.993,9.993,0,0,1-2.27-2.109,37.055,37.055,0,0,1-7.514-12.847A10.02,10.02,0,0,1,503.09,313.909Z" fill="#263238"/>
      <path id="Path_1953" data-name="Path 1953" d="M521.714,333.7c-.2.062-1.235-2.72-2.309-6.215s-1.779-6.379-1.578-6.44,1.235,2.72,2.309,6.217S521.915,333.634,521.714,333.7Z" fill="#263238"/>
      <path id="Path_1954" data-name="Path 1954" d="M498.538,236.743c.233-.374,4.307,8.372,4.307,8.372s2,5.776-4.851,9.064c-7.278,3.492-10.339-3.532-10.339-3.532l-3-6.427a6.629,6.629,0,0,0,5.293-6.377S495.8,241.137,498.538,236.743Z" fill="#fcbf49"/>
      <path id="Path_1955" data-name="Path 1955" d="M542.959,643.768l-2.039,30.771s30.627,10.164,30.8,15.887l-59.838.434,1.208-48.076Z" fill="#455a64"/>
      <path id="Path_1956" data-name="Path 1956" d="M511.885,690.859l.122-4.846,57.794,1.595a4.136,4.136,0,0,1,2.226,3.251Z" fill="#263238"/>
      <path id="Path_1957" data-name="Path 1957" d="M549.852,399.383l2.653-50.224-77.916-2.867s-9.966,23.446-12.328,32.554-3.9,20.816-.868,32.285,24.983,49.734,24.983,49.734l20.939,211.4h47.606Z" fill="#263238"/>
      <path id="Path_1958" data-name="Path 1958" d="M549.405,357.917c.572,5.717,44.309,140.92,39.363,161.529s-40.393,117.4-40.393,117.4Z" fill="#263238"/>
      <path id="Path_1959" data-name="Path 1959" d="M550.626,366.857c.211,0,.815,56.613,1.348,126.437.533,69.848.795,126.453.583,126.454s-.814-56.6-1.348-126.448C550.677,423.476,550.415,366.858,550.626,366.857Z" fill="#455a64"/>
      <path id="Path_1960" data-name="Path 1960" d="M536.621,672.261c-.211.007-2.791-66.289-5.761-148.058-2.972-81.8-5.21-148.094-5-148.1s2.79,66.274,5.763,148.073C534.594,605.944,536.832,672.254,536.621,672.261Z" fill="#455a64"/>
      <path id="Path_1961" data-name="Path 1961" d="M523.406,355.061a10.5,10.5,0,0,1-.191,2.05,37.15,37.15,0,0,1-1.3,5.464,42.839,42.839,0,0,1-9.238,15.97c-4.891,5.365-10.664,9.041-15.37,10.107a13.458,13.458,0,0,1-5.634.213,9.34,9.34,0,0,1-1.477-.423c-.327-.126-.494-.2-.484-.229.024-.072.716.178,2.01.358a14.22,14.22,0,0,0,5.454-.443c4.518-1.158,10.128-4.821,14.938-10.1A44.954,44.954,0,0,0,521.4,362.4C522.959,357.969,523.239,355.03,523.406,355.061Z" fill="#455a64"/>
      <path id="Path_1962" data-name="Path 1962" d="M572.052,508.106c-.034.248-4.69-.848-10.393.044-5.714.825-9.841,3.244-9.947,3.017a9.021,9.021,0,0,1,2.654-1.609,26.279,26.279,0,0,1,14.675-2.209A9.035,9.035,0,0,1,572.052,508.106Z" fill="#455a64"/>
      <path id="Path_1963" data-name="Path 1963" d="M498.667,478.725a26.562,26.562,0,0,1-2.2-3.669c-1.293-2.3-3.088-5.464-5.156-8.91s-4.022-6.52-5.442-8.74a26.81,26.81,0,0,1-2.206-3.665,21.325,21.325,0,0,1,2.654,3.361c1.538,2.15,3.57,5.189,5.649,8.649s3.806,6.681,4.98,9.05A21.477,21.477,0,0,1,498.667,478.725Z" fill="#455a64"/>
      <path id="Path_1964" data-name="Path 1964" d="M474.559,326.173c-1.2-.4-1.924,22.235-1.924,22.235s39.336,7.669,79.82,1.7l1.049-19.768S518.458,340.759,474.559,326.173Z" fill="#455a64"/>
      <path id="Path_1965" data-name="Path 1965" d="M505.085,377.49a7.034,7.034,0,0,1-7.034-7.034V341.185a7.034,7.034,0,1,1,14.068,0v29.271A7.034,7.034,0,0,1,505.085,377.49Z" fill="#455a64"/>
      <path id="Path_1966" data-name="Path 1966" d="M505.084,377.49c0-.041.362-.038,1.028-.161a7.159,7.159,0,0,0,2.709-1.094,6.884,6.884,0,0,0,2.727-3.612,7.977,7.977,0,0,0,.328-2.85q-.012-1.575-.026-3.315c-.024-4.674-.051-10.2-.082-16.327-.025-3.055.016-6.334-.056-9.6a6.661,6.661,0,0,0-13.254,0c-.072,3.269-.031,6.548-.056,9.605-.031,6.125-.059,11.654-.082,16.328-.009,1.159-.019,2.266-.028,3.315a7.97,7.97,0,0,0,.329,2.848,6.893,6.893,0,0,0,2.726,3.612,7.153,7.153,0,0,0,2.709,1.1c.666.124,1.03.121,1.028.162a3.959,3.959,0,0,1-1.05-.008,6.811,6.811,0,0,1-2.847-1,7.128,7.128,0,0,1-2.97-3.725,8.375,8.375,0,0,1-.409-2.985q-.014-1.575-.028-3.314c-.023-4.675-.051-10.2-.082-16.329.007-3.089-.054-6.262.015-9.678a7.408,7.408,0,0,1,14.743,0c.069,3.415.007,6.588.014,9.677-.03,6.125-.058,11.653-.082,16.327-.009,1.159-.019,2.266-.026,3.315a8.373,8.373,0,0,1-.409,2.984,7.126,7.126,0,0,1-2.97,3.727,6.817,6.817,0,0,1-2.849,1A3.958,3.958,0,0,1,505.084,377.49Z" fill="#263238"/>
      <path id="Path_1967" data-name="Path 1967" d="M505.061,346.575a2,2,0,0,0-1.673,1.645,1.767,1.767,0,0,0,1.29,1.9,1.934,1.934,0,0,0,2.1-1.387A1.813,1.813,0,0,0,505.061,346.575Z" fill="#455a64"/>
      <path id="Path_1968" data-name="Path 1968" d="M505.062,346.575c0-.046.164-.1.459-.065a1.723,1.723,0,0,1,1.132.612,2.2,2.2,0,0,1,.406,1.921,2.328,2.328,0,0,1-1.914,1.476,1.954,1.954,0,0,1-1.992-1.376,1.977,1.977,0,0,1,.361-1.922c.776-.86,1.577-.729,1.548-.646.035.115-.631.226-1.112.968a1.465,1.465,0,0,0-.135,1.358,1.284,1.284,0,0,0,1.25.859,1.734,1.734,0,0,0,1.328-.937,1.78,1.78,0,0,0-.173-1.379C505.749,346.739,505.015,346.71,505.062,346.575Z" fill="#263238"/>
      <path id="Path_1969" data-name="Path 1969" d="M497.754,354.5a14.815,14.815,0,0,0,14.524,1.111Z" fill="#455a64"/>
      <path id="Path_1970" data-name="Path 1970" d="M512.278,355.612a4.766,4.766,0,0,1-2.005,1.053,13.7,13.7,0,0,1-10.7-.817c-1.241-.669-1.875-1.274-1.822-1.345.111-.214,2.992,1.8,7.146,2.083C509.045,356.939,512.2,355.383,512.278,355.612Z" fill="#263238"/>
      <path id="Path_1971" data-name="Path 1971" d="M483.724,416.972a7.3,7.3,0,0,1-7.182-7.408l1.266-81.76a7.3,7.3,0,0,1,14.59.226l-1.266,81.759A7.3,7.3,0,0,1,483.724,416.972Z" fill="#455a64"/>
      <path id="Path_1972" data-name="Path 1972" d="M483.725,416.972a12.59,12.59,0,0,0,2.081-.351,7.276,7.276,0,0,0,4.435-3.785,8.533,8.533,0,0,0,.728-4.227q.021-2.423.049-5.243c.042-3.77.09-8.052.141-12.782.123-9.485.27-20.758.433-33.272.089-6.262.183-12.835.282-19.646.033-3.389.139-6.912.118-10.353a6.917,6.917,0,0,0-13.756-.219c-.129,3.438-.132,6.966-.2,10.354-.113,6.814-.223,13.386-.327,19.649-.225,12.513-.427,23.786-.6,33.271-.094,4.728-.179,9.011-.256,12.78q-.059,2.818-.113,5.242a8.543,8.543,0,0,0,.6,4.248,7.286,7.286,0,0,0,4.317,3.919,12.632,12.632,0,0,0,2.071.415,5.86,5.86,0,0,1-2.115-.269,7.363,7.363,0,0,1-4.541-3.942,8.812,8.812,0,0,1-.691-4.377q.023-2.421.05-5.243c.041-3.769.09-8.052.141-12.782.123-9.485.27-20.759.433-33.273.089-6.262.184-12.836.281-19.65.069-3.425.06-6.838.2-10.432a7.677,7.677,0,0,1,15.268.243c.023,3.6-.09,7.006-.128,10.429-.113,6.813-.223,13.384-.327,19.646-.224,12.513-.427,23.785-.6,33.269-.094,4.728-.179,9.011-.255,12.78q-.06,2.818-.113,5.242a8.8,8.8,0,0,1-.826,4.353,7.365,7.365,0,0,1-4.659,3.8A5.835,5.835,0,0,1,483.725,416.972Z" fill="#263238"/>
      <path id="Path_1973" data-name="Path 1973" d="M526.294,376.644a7.034,7.034,0,0,1-7.034-7.034V340.338a7.034,7.034,0,1,1,14.068,0V369.61A7.034,7.034,0,0,1,526.294,376.644Z" fill="#455a64"/>
      <path id="Path_1974" data-name="Path 1974" d="M526.294,376.644c0-.041.362-.038,1.028-.161a7.165,7.165,0,0,0,2.709-1.094,6.882,6.882,0,0,0,2.726-3.613,7.929,7.929,0,0,0,.327-2.849q-.012-1.576-.026-3.315c-.024-4.674-.051-10.2-.082-16.327-.025-3.055.016-6.335-.056-9.6a6.661,6.661,0,0,0-13.254,0c-.072,3.27-.031,6.549-.056,9.606-.031,6.124-.059,11.654-.082,16.328-.01,1.159-.019,2.266-.027,3.315a7.971,7.971,0,0,0,.329,2.848,6.9,6.9,0,0,0,2.727,3.612,7.1,7.1,0,0,0,2.709,1.094c.665.125,1.029.122,1.028.163a3.95,3.95,0,0,1-1.051-.009,6.789,6.789,0,0,1-2.846-1,7.12,7.12,0,0,1-2.97-3.725,8.334,8.334,0,0,1-.409-2.985q-.014-1.575-.027-3.315c-.023-4.674-.051-10.2-.082-16.328.007-3.089-.054-6.263.015-9.679a7.408,7.408,0,0,1,14.743,0c.069,3.414.007,6.588.014,9.677-.031,6.125-.058,11.653-.082,16.327-.009,1.159-.019,2.266-.026,3.315a8.352,8.352,0,0,1-.41,2.984,7.125,7.125,0,0,1-2.97,3.727,6.791,6.791,0,0,1-2.848,1A4.061,4.061,0,0,1,526.294,376.644Z" fill="#263238"/>
      <path id="Path_1975" data-name="Path 1975" d="M526.27,344.32a2,2,0,0,0-1.673,1.646,1.767,1.767,0,0,0,1.29,1.9,1.934,1.934,0,0,0,2.1-1.388A1.813,1.813,0,0,0,526.27,344.32Z" fill="#455a64"/>
      <path id="Path_1976" data-name="Path 1976" d="M526.271,344.32c0-.045.164-.1.459-.064a1.725,1.725,0,0,1,1.132.611,2.2,2.2,0,0,1,.406,1.922,2.325,2.325,0,0,1-1.914,1.475,1.954,1.954,0,0,1-1.992-1.376,1.974,1.974,0,0,1,.361-1.921c.776-.861,1.578-.727,1.548-.647.035.116-.631.226-1.112.968a1.466,1.466,0,0,0-.135,1.358,1.284,1.284,0,0,0,1.249.86,1.737,1.737,0,0,0,1.329-.937,1.785,1.785,0,0,0-.173-1.379C526.958,344.485,526.224,344.457,526.271,344.32Z" fill="#263238"/>
      <path id="Path_1977" data-name="Path 1977" d="M526.3,361.661a1.994,1.994,0,0,0-1.673,1.645,1.764,1.764,0,0,0,1.291,1.9,1.932,1.932,0,0,0,2.1-1.387A1.813,1.813,0,0,0,526.3,361.661Z" fill="#455a64"/>
      <path id="Path_1978" data-name="Path 1978" d="M526.3,361.661c0-.046.164-.1.459-.065a1.723,1.723,0,0,1,1.132.612,2.2,2.2,0,0,1,.406,1.921,2.325,2.325,0,0,1-1.914,1.475,1.951,1.951,0,0,1-1.991-1.375,1.974,1.974,0,0,1,.36-1.922c.776-.861,1.577-.727,1.548-.646.035.115-.631.224-1.112.968a1.465,1.465,0,0,0-.135,1.358,1.286,1.286,0,0,0,1.25.859,1.736,1.736,0,0,0,1.329-.937,1.784,1.784,0,0,0-.174-1.379C526.992,361.825,526.257,361.8,526.3,361.661Z" fill="#263238"/>
      <path id="Path_1979" data-name="Path 1979" d="M316.135,635.08,306.127,674.8l-16.975,29.132a4.2,4.2,0,0,0,5.6,5.813l38.377-23.84,11.119-39.683Z" fill="#455a64"/>
      <path id="Path_1980" data-name="Path 1980" d="M294.757,709.743,333.133,685.9l1.649-5.885-44.169,29.622A4.292,4.292,0,0,0,294.757,709.743Z" fill="#263238"/>
      <path id="Path_1981" data-name="Path 1981" d="M421.263,643.911l-2.056,31.048s30.9,10.255,31.081,16.03l-60.378.438,1.219-48.509Z" fill="#455a64"/>
      <path id="Path_1982" data-name="Path 1982" d="M389.91,691.427l.123-4.89,58.316,1.61a4.174,4.174,0,0,1,2.247,3.28Z" fill="#263238"/>
      <path id="Path_1983" data-name="Path 1983" d="M280.456,184.5c-1.137-1.96-1.458-3.545-.939-7s3.52-28.059,3.9-30.034c.739-3.835,3.539-4.818,3.883-2.011s.486,13.881,1.194,14.052,1.4-17.766,2.959-19.784,2.769-2.018,3.46-1.152a4.722,4.722,0,0,1,.865,1.484s1.249-2.172,2.678-2.039c2.6.244,2.647,3.441,2.647,3.441l.211,7.6s.213-6.11,1.973-6.946c.989-.47,2.354-.16,2.872,1.7s0,9.295,0,9.814.23,19.9.23,19.9a24.758,24.758,0,0,0,3.5-5.968c1-2.442,2.673-3.375,4.75-2.856s2.25,2.6,1.558,4.152-2.077,6.31-2.077,6.31l-3.623,7.1-12.5,11.2-4.514,10.22s-14.475-1.47-16.213-9.237Z" fill="#b78876"/>
      <path id="Path_1984" data-name="Path 1984" d="M301.116,171.167a24.9,24.9,0,0,0-3.766,2.771,14.522,14.522,0,0,0-4.416,9.947c.01.391.019.78.028,1.144l-.751.113a32.181,32.181,0,0,0-3.956-9.708c-1.4-2.284-2.486-3.538-2.392-3.617.035-.031.346.246.857.8a23.476,23.476,0,0,1,1.974,2.532,28.96,28.96,0,0,1,4.26,9.823l-.751.113c-.01-.385-.035-.8-.032-1.214a14.229,14.229,0,0,1,1.606-6.2,14.611,14.611,0,0,1,3.206-4.126,12.564,12.564,0,0,1,2.919-1.955A3.642,3.642,0,0,1,301.116,171.167Z" fill="#aa6550"/>
      <path id="Path_1985" data-name="Path 1985" d="M300.841,164.081c0,.222-3.266.42-7.234,1.083-3.972.647-7.132,1.511-7.2,1.3-.066-.186,3.038-1.393,7.075-2.051S300.844,163.883,300.841,164.081Z" fill="#aa6550"/>
      <path id="Path_1986" data-name="Path 1986" d="M295.1,162.593c-.211-.006-.239-5.114-.061-11.41s.491-11.4.7-11.391.239,5.115.061,11.411S295.312,162.6,295.1,162.593Z" fill="#aa6550"/>
      <path id="Path_1987" data-name="Path 1987" d="M300.64,162.42c-.211,0-.277-4.51-.149-10.06s.4-10.048.614-10.044.277,4.509.15,10.062S300.851,162.426,300.64,162.42Z" fill="#aa6550"/>
      <path id="Path_1988" data-name="Path 1988" d="M357.285,353.162c-.09.171-2.884-1.306-5.551-4.094-2.686-2.772-4.056-5.62-3.881-5.7.2-.118,1.823,2.483,4.432,5.173C354.872,351.246,357.411,352.969,357.285,353.162Z" fill="#263238"/>
      <path id="Path_1989" data-name="Path 1989" d="M407.6,336.608c.028-.122,1.826.253,4.755.626a64.6,64.6,0,0,0,22.893-1.135c2.878-.662,4.629-1.212,4.668-1.093a4.241,4.241,0,0,1-1.18.537c-.775.306-1.922.68-3.357,1.079a53.744,53.744,0,0,1-23.105,1.146c-1.468-.257-2.646-.515-3.446-.744A4.262,4.262,0,0,1,407.6,336.608Z" fill="#263238"/>
      <path id="Path_1990" data-name="Path 1990" d="M424.14,666.543l19.687-265.156.915-68.22-109.083,8.8L299.58,668.251l43.277-1.095,44.154-273.733-2.1,271.842Z" fill="#263238"/>
      <path id="Path_1991" data-name="Path 1991" d="M363.179,383.825c.208.032-9.108,62.963-20.806,140.542-11.7,77.607-21.355,140.473-21.563,140.442s9.107-62.949,20.809-140.555C353.316,446.673,362.971,383.793,363.179,383.825Z" fill="#455a64"/>
      <path id="Path_1992" data-name="Path 1992" d="M406.583,664.811s-.007-.248.015-.729c.029-.514.069-1.222.122-2.136.126-1.909.306-4.668.539-8.2.48-7.157,1.171-17.455,2.023-30.166,1.673-25.475,3.8-60.678,5.685-99.582,1.873-38.92,3.141-74.167,3.927-99.684.376-12.735.681-23.05.892-30.219.109-3.541.194-6.3.252-8.216.037-.914.065-1.624.085-2.137.024-.481.056-.728.056-.728s.021.248.024.729c0,.513-.006,1.223-.009,2.139-.025,1.914-.063,4.677-.11,8.219-.106,7.138-.323,17.466-.648,30.228-.649,25.524-1.832,60.78-3.705,99.705s-4.1,74.115-5.908,99.583c-.9,12.733-1.682,23.035-2.264,30.151-.295,3.532-.524,6.286-.682,8.193-.084.911-.15,1.618-.2,2.13C406.627,664.566,406.583,664.811,406.583,664.811Z" fill="#455a64"/>
      <path id="Path_1993" data-name="Path 1993" d="M368.964,176.621l-7.7,11.394s-24.6,3.174-28.5,4.952-5.37,8.1-5.37,8.1l6.942,83.891s1.75,35.641,1.523,41.209c0,0-.005,5.569-.232,9.577a83.44,83.44,0,0,0,.658,11.138s31.4,7.825,34.074,7.6,16.041-3.1,16.041-3.1l40.319-1.524,12.922-4.221,2.457-6.9-1.556-2.9s5.575-6.455,6.024-9.8-1.527-36.309-1.527-36.309l.009-9.579,5.645-85.084s-7.117-4.56-11.085-5.283c-11.113-2.024-20.921-4.828-20.921-4.828l-10.632-12.2Z" fill="#e0e0e0"/>
      <path id="Path_1994" data-name="Path 1994" d="M385.681,214a1.232,1.232,0,0,1,0,.355c-.021.277-.046.616-.076,1.031q-.135,1.452-.368,3.958c-.352,3.434-.8,8.409-1.268,14.56s-.913,13.486-1.243,21.635c-.292,8.15-.462,17.117-.386,26.529.1,9.414.444,18.378.892,26.523.485,8.143,1.054,15.469,1.655,21.608s1.127,11.107,1.545,14.532q.282,2.5.444,3.95c.038.415.071.752.1,1.029a1.172,1.172,0,0,1,.007.355,1.212,1.212,0,0,1-.083-.343c-.046-.274-.1-.61-.172-1.019q-.216-1.443-.586-3.932c-.508-3.416-1.128-8.377-1.787-14.516s-1.3-13.47-1.821-21.622c-.487-8.153-.85-17.129-.954-26.557-.076-9.424.116-18.4.448-26.564.368-8.159.855-15.5,1.408-21.649s1.067-11.124,1.509-14.548q.323-2.495.512-3.944l.152-1.024A1.17,1.17,0,0,1,385.681,214Z" fill="#263238"/>
      <path id="Path_1995" data-name="Path 1995" d="M383.375,215.509l24.617,32.785a149.145,149.145,0,0,0,9.366,13.252c6.028,7.718,26.97,22.489,31.329,23.331s12.069,1.686,16.939-7.026,6.9-27.655,6.9-27.655L450.7,195.071s-8.306,4.805-12.336,12.68-4.325,24.472-4.325,24.472L410.9,211.4l-10.15-12.076Z" fill="#e0e0e0"/>
      <path id="Path_1996" data-name="Path 1996" d="M448.7,250.117a9.179,9.179,0,0,1-2.123-3.027c-1.106-2.013-2.085-5.028-3.637-8.057a15.529,15.529,0,0,0-2.751-3.859,10.119,10.119,0,0,0-3.183-2.135,11.448,11.448,0,0,0-3.51-.673,1.971,1.971,0,0,1,.981-.223,6.947,6.947,0,0,1,2.72.39,9.876,9.876,0,0,1,3.478,2.132,15.023,15.023,0,0,1,2.941,4.012c1.6,3.135,2.485,6.145,3.447,8.176C447.977,248.907,448.8,250.045,448.7,250.117Z" fill="#263238"/>
      <path id="Path_1997" data-name="Path 1997" d="M410.894,211.4a11.622,11.622,0,0,1-1.424,3.33,27.711,27.711,0,0,1-5.389,6.893,26.962,26.962,0,0,1-7.3,4.819,11.434,11.434,0,0,1-3.444,1.119c-.126-.246,5.289-1.88,10.23-6.5C408.534,216.482,410.655,211.244,410.894,211.4Z" fill="#263238"/>
      <path id="Path_1998" data-name="Path 1998" d="M390.936,215.355c-.009-.048.182-.146.562-.233a2.326,2.326,0,0,1,1.692.211,2.713,2.713,0,0,1,1.231,2.247,2.6,2.6,0,0,1-3.576,2.429,2.591,2.591,0,0,1-1.188-1.059,2.648,2.648,0,0,1-.075-2.548,2.03,2.03,0,0,1,1.25-1.166c.406-.1.626-.01.623.031.04.107-.965.115-1.373,1.342a2.147,2.147,0,0,0,.173,1.97,1.815,1.815,0,0,0,2.09.779,1.86,1.86,0,0,0,1.372-1.776,2.239,2.239,0,0,0-.823-1.8,2.339,2.339,0,0,0-1.367-.368C391.159,215.41,390.945,215.41,390.936,215.355Z" fill="#263238"/>
      <path id="Path_1999" data-name="Path 1999" d="M275.912,191.054l-8.032,14.14-5.013,1.75s-21.58,32.673-9.561,43.277,31.683,10.028,38.452,6.776,41.333-18.9,41.333-18.9l-.321-45.132S322.3,198,315.075,204.168c-4.32,3.685-25.023,15.58-25.023,15.58l6.15-18.71Z" fill="#e0e0e0"/>
      <path id="Path_2000" data-name="Path 2000" d="M359.148,190.492a27.937,27.937,0,0,1-4.316,15.064,58.684,58.684,0,0,0,18.7-11.868,33.871,33.871,0,0,0,7.99,7.961c-1.8-4.483-4.994-8.241-7.7-12.247s-5.017-8.616-4.67-13.437Z" fill="#e0e0e0"/>
      <path id="Path_2001" data-name="Path 2001" d="M420.06,292.976a16.281,16.281,0,0,1-1.391,2.117c-.462.674-1.044,1.483-1.776,2.382s-1.517,1.964-2.5,3.044a85.676,85.676,0,0,1-7.151,7.346,88.106,88.106,0,0,1-20.73,14.076,85.655,85.655,0,0,1-9.467,3.936c-1.367.515-2.643.86-3.751,1.2s-2.074.591-2.868.773a15.951,15.951,0,0,1-2.481.51,16.227,16.227,0,0,1,2.4-.8c.782-.224,1.733-.507,2.82-.893s2.348-.755,3.695-1.3a95.967,95.967,0,0,0,9.338-4.059,93.659,93.659,0,0,0,20.571-13.966,95.687,95.687,0,0,0,7.218-7.181c1-1.05,1.819-2.079,2.571-2.954s1.376-1.648,1.871-2.292A15.792,15.792,0,0,1,420.06,292.976Z" fill="#263238"/>
      <path id="Path_2002" data-name="Path 2002" d="M370.464,193.861a4.388,4.388,0,0,1-.678,1.4,14.623,14.623,0,0,1-2.8,3.2c-2.66,2.451-7.038,4.831-11.581,7.715-.124.082-.251.163-.365.238l-.851.554.27-.971a124.189,124.189,0,0,1,4.441-12.889c.653-1.612,1.218-2.9,1.633-3.777a5.35,5.35,0,0,1,.73-1.324,6.322,6.322,0,0,1-.459,1.437q-.584,1.6-1.4,3.855c-1.16,3.263-2.786,7.785-4.2,12.9l-.581-.418.371-.242c4.61-2.924,8.959-5.192,11.65-7.485A21.235,21.235,0,0,0,370.464,193.861Z" fill="#263238"/>
      <path id="Path_2003" data-name="Path 2003" d="M335.865,326.166a5.577,5.577,0,0,1-.115-1.067c-.047-.776-.109-1.8-.185-3.069-.132-2.751-.314-6.587-.539-11.289-.2-4.794-.437-10.461-.7-16.745-.143-3.15-.215-6.463-.426-9.885-.286-3.42-.583-6.959-.886-10.583-2.324-28.238-3.988-48.471-4.325-52.561a3.707,3.707,0,0,1,.244,1.047c.115.695.248,1.723.407,3.049.311,2.652.708,6.494,1.164,11.245.912,9.5,2.065,22.638,3.271,37.155.3,3.63.589,7.173.871,10.6.2,3.43.258,6.742.383,9.9.2,6.289.384,11.962.537,16.76.123,4.708.224,8.548.3,11.3.018,1.275.031,2.3.042,3.074A5.652,5.652,0,0,1,335.865,326.166Z" fill="#263238"/>
      <path id="Path_2004" data-name="Path 2004" d="M292.021,215c.113.056-.909,2.13-2.236,5.6a75.288,75.288,0,0,0-3.808,13.977,72.6,72.6,0,0,0-.9,7.931c-.18,2.443-.023,4.667-.365,6.572a5.909,5.909,0,0,1-2.226,3.87,3.3,3.3,0,0,1-1.112.534c-.273.069-.423.068-.427.046a7.923,7.923,0,0,0,1.357-.814,5.843,5.843,0,0,0,1.876-3.726c.259-1.792.054-4.039.2-6.518a64.541,64.541,0,0,1,4.906-22.071c.736-1.724,1.4-3.088,1.892-4.012A6.728,6.728,0,0,1,292.021,215Z" fill="#263238"/>
      <path id="Path_2005" data-name="Path 2005" d="M288.922,247.159a19.443,19.443,0,0,1-.343-4.023c-.093-2.489-.113-5.933.033-9.733s.438-7.232.724-9.708a19.444,19.444,0,0,1,.655-3.984,23.112,23.112,0,0,1-.117,4.031c-.148,2.48-.349,5.9-.5,9.69s-.211,7.215-.257,9.7A23.08,23.08,0,0,1,288.922,247.159Z" fill="#263238"/>
      <path id="Path_2006" data-name="Path 2006" d="M290.622,217.072a12.861,12.861,0,0,1-3.871-.341,31.387,31.387,0,0,1-16.375-8.748,12.84,12.84,0,0,1-2.435-3.029c.179-.194,3.887,4.58,10.323,7.967C284.651,216.388,290.682,216.815,290.622,217.072Z" fill="#263238"/>
      <path id="Path_2007" data-name="Path 2007" d="M286.475,204.083a3.115,3.115,0,0,0-.258,1.71,2,2,0,0,0,.991,1.379,1.823,1.823,0,0,0,2.338-2.283,2,2,0,0,0-1.355-1.023,3.12,3.12,0,0,0-1.716.217c-.029-.027.05-.217.343-.427a2.148,2.148,0,0,1,1.464-.323,2.467,2.467,0,0,1,1.895,1.245,2.479,2.479,0,0,1-3.3,3.218,2.469,2.469,0,0,1-1.2-1.924,2.15,2.15,0,0,1,.358-1.455C286.256,204.128,286.45,204.052,286.475,204.083Z" fill="#263238"/>
      <path id="Path_2008" data-name="Path 2008" d="M362.5,224.854c.388-.222-.219,9.527-.219,9.527s-1.009,6.107-8.678,5.741c-8.141-.389-7.468-8.116-7.468-8.116l.44-7.167a6.7,6.7,0,0,0,7.773-3.134S357.943,227.45,362.5,224.854Z" fill="#fcbf49"/>
      <path id="Path_2009" data-name="Path 2009" d="M452.15,198.742s.154.3.41.91q.4.959,1.115,2.692c.972,2.4,2.38,5.882,4.174,10.318l14.959,37.419.032.081-.016.092c-.971,5.47-2,11.281-3.085,17.383a30.957,30.957,0,0,1-2.989,9.111,25.317,25.317,0,0,1-2.707,4.177,18.307,18.307,0,0,1-1.728,1.869,10.153,10.153,0,0,1-2.163,1.452c-3.113,1.65-6.826,1.745-10.283,1.162a13.726,13.726,0,0,1-5.123-1.649l-4.5-2.929a149.449,149.449,0,0,1-17.737-13.24,96.424,96.424,0,0,1-11.91-12.877c-3.558-4.505-6.823-9.083-9.91-13.6-6.169-9.044-11.821-17.74-17.585-25.4l-.182-.241.221-.205,17.4-16.156.205-.19.195.2c10.034,10.2,18.184,18.486,23.853,24.248l6.473,6.643q1.074,1.119,1.671,1.744c.372.4.55.614.55.614s-.217-.177-.61-.554l-1.729-1.687c-1.533-1.521-3.748-3.718-6.584-6.534-5.711-5.72-13.923-13.945-24.033-24.069l.4.007L383.6,215.751l.04-.446c5.8,7.667,11.486,16.365,17.658,25.385,3.09,4.509,6.351,9.069,9.9,13.551A96.008,96.008,0,0,0,423.02,267.02,149.92,149.92,0,0,0,440.664,280.2q2.253,1.471,4.473,2.923a13.013,13.013,0,0,0,4.854,1.555c3.37.572,6.906.47,9.826-1.074a9.429,9.429,0,0,0,2.011-1.339,17.9,17.9,0,0,0,1.66-1.789,24.679,24.679,0,0,0,2.64-4.053,30.377,30.377,0,0,0,2.945-8.9c1.106-6.106,2.159-11.919,3.149-17.388l.016.173c-6.138-15.652-11.184-28.523-14.71-37.517-1.728-4.463-3.083-7.961-4.02-10.38q-.664-1.755-1.031-2.726C452.246,199.068,452.15,198.742,452.15,198.742Z" fill="#263238"/>
      <path id="Path_2010" data-name="Path 2010" d="M418.522,185.627c-.533,5.819-7.186,17.3-9.269,20.528,0,0-4.309-8.545-6.565-13.2l-.845,6.657c-1.806-1.632-.176-10.95-.46-10.87l6.33-15.95Z" fill="#e0e0e0"/>
      <path id="Path_2011" data-name="Path 2011" d="M406.773,172.885a6.194,6.194,0,0,1,1.276-.23l.048-.008.04.043c1.7,1.8,5.628,6.185,10.8,12.052l.11.123-.035.167a56.291,56.291,0,0,1-6.041,15.85c-1.083,1.93-2.239,3.761-3.412,5.483l-.39.573-.267-.642c-1.376-3.3-3.111-6.253-4.522-9.033a38.008,38.008,0,0,1-3.177-7.753l.492.047c-1.162,2.61-2.115,4.75-2.828,6.353a16.5,16.5,0,0,1-1.125,2.281,16.462,16.462,0,0,1,.858-2.386c.662-1.634,1.545-3.814,2.621-6.474l.285-.7.208.748a39.343,39.343,0,0,0,3.262,7.577c1.436,2.748,3.2,5.683,4.621,9.058l-.657-.069c1.156-1.713,2.295-3.528,3.366-5.436a57.9,57.9,0,0,0,6.059-15.62l.073.291c-5.1-5.932-8.91-10.424-10.46-12.351l.088.035A6.252,6.252,0,0,1,406.773,172.885Z" fill="#263238"/>
      <path id="Path_2012" data-name="Path 2012" d="M431.041,214.634c.208-.026.9,4,1.654,8.985.375,2.493.688,4.755.843,6.408a14.909,14.909,0,0,1,.09,1.975,1.282,1.282,0,0,1-.116.569c-.084.125-.216.021-.2,0-.018-.033-.019-.054-.01-.061.2.337-.014-.83-.3-2.407-.29-1.622-.687-3.871-1.063-6.367C431.18,218.744,430.831,214.659,431.041,214.634Z" fill="#263238"/>
      <path id="Path_2013" data-name="Path 2013" d="M388.45,198.656a18.11,18.11,0,0,1-18.465-18.982c.168-3.461.306-5.972.306-5.972s-14.5-1.883-15.048-16.324S356.37,109.7,356.37,109.7a50.22,50.22,0,0,1,50.608,5.07l2.183,1.594-2.389,56.52s-6.374,21.1-11.22,24.159C392.854,198.75,391.857,198.584,388.45,198.656Z" fill="#b78876"/>
      <path id="Path_2014" data-name="Path 2014" d="M370.291,173.7a34.909,34.909,0,0,0,18.669-6.034s-4.334,10.495-18.782,9.558Z" fill="#aa6550"/>
      <path id="Path_2015" data-name="Path 2015" d="M407.756,131.374c.244-.113,9.852-3.187,9.786,6.7s-9.976,7.778-9.992,7.495S407.756,131.374,407.756,131.374Z" fill="#b78876"/>
      <path id="Path_2016" data-name="Path 2016" d="M410.6,141.843c.044-.031.172.122.462.257a1.721,1.721,0,0,0,1.286.035c1.048-.377,1.938-2.029,2-3.809a5.68,5.68,0,0,0-.465-2.469,1.989,1.989,0,0,0-1.286-1.33.879.879,0,0,0-1.02.465c-.135.276-.073.474-.124.49-.028.025-.211-.167-.129-.575a1.1,1.1,0,0,1,.393-.616,1.3,1.3,0,0,1,.953-.245,2.419,2.419,0,0,1,1.788,1.545,5.843,5.843,0,0,1,.578,2.758c-.076,1.992-1.109,3.849-2.54,4.252a1.836,1.836,0,0,1-1.574-.273C410.611,142.082,410.561,141.861,410.6,141.843Z" fill="#aa6550"/>
      <path id="Path_2017" data-name="Path 2017" d="M361.934,132.73a2.064,2.064,0,0,0,2.041,2.032,1.974,1.974,0,0,0,2.08-1.914,2.065,2.065,0,0,0-2.04-2.033A1.976,1.976,0,0,0,361.934,132.73Z" fill="#263238"/>
      <path id="Path_2018" data-name="Path 2018" d="M359.613,129.954c.263.262,1.8-.934,4.017-.984,2.218-.082,3.875,1.019,4.11.74.116-.123-.157-.6-.88-1.1a5.664,5.664,0,0,0-3.3-.927,5.437,5.437,0,0,0-3.188,1.119C359.7,129.344,359.484,129.837,359.613,129.954Z" fill="#263238"/>
      <path id="Path_2019" data-name="Path 2019" d="M383.525,132.73a2.066,2.066,0,0,0,2.042,2.032,1.974,1.974,0,0,0,2.08-1.914,2.066,2.066,0,0,0-2.04-2.033A1.978,1.978,0,0,0,383.525,132.73Z" fill="#263238"/>
      <path id="Path_2020" data-name="Path 2020" d="M381.447,129.818c.262.262,1.8-.933,4.017-.983,2.217-.082,3.875,1.019,4.109.741.115-.124-.155-.6-.88-1.1a5.654,5.654,0,0,0-3.3-.927,5.43,5.43,0,0,0-3.188,1.119C381.539,129.209,381.319,129.7,381.447,129.818Z" fill="#263238"/>
      <path id="Path_2021" data-name="Path 2021" d="M373.8,146.485a14.719,14.719,0,0,0-3.622-.56c-.568-.044-1.108-.144-1.213-.528a2.879,2.879,0,0,1,.336-1.69q.747-2.076,1.567-4.359c2.174-6.2,3.732-11.3,3.481-11.385s-2.216,4.873-4.388,11.079q-.785,2.293-1.5,4.382a3.282,3.282,0,0,0-.238,2.232,1.421,1.421,0,0,0,.953.806,3.95,3.95,0,0,0,.967.11A14.374,14.374,0,0,0,373.8,146.485Z" fill="#263238"/>
      <path id="Path_2022" data-name="Path 2022" d="M380.51,124.542c.274.581,2.455.087,5.079.156,2.625.014,4.789.576,5.082,0,.129-.273-.289-.8-1.19-1.305a8.827,8.827,0,0,0-7.739-.123C380.824,123.749,380.39,124.266,380.51,124.542Z" fill="#263238"/>
      <path id="Path_2023" data-name="Path 2023" d="M359.041,125.688c.409.533,2.18.129,4.268.246,2.092.053,3.831.6,4.274.1.2-.243-.048-.767-.788-1.3a6.535,6.535,0,0,0-3.411-1.06,6.448,6.448,0,0,0-3.472.78C359.139,124.926,358.861,125.429,359.041,125.688Z" fill="#263238"/>
      <path id="Path_2024" data-name="Path 2024" d="M379.995,151.177a3.341,3.341,0,0,0-2.137-.817,7.9,7.9,0,0,0-2.306.314A3.617,3.617,0,0,0,373.245,152a2.576,2.576,0,0,0-.278,1.785c.1.607.209,2.8,1.412,3.339h5.188a6.36,6.36,0,0,0,1.254-3.181A3.073,3.073,0,0,0,379.995,151.177Z" fill="#aa6550"/>
      <path id="Path_2025" data-name="Path 2025" d="M378.348,157.146c.031-.056.238.064.588-.009a1.429,1.429,0,0,0,1.037-.969,10.256,10.256,0,0,0,.311-2.407,3.459,3.459,0,0,0-.757-2.611c-.632-.729-1.642-.487-2.575-.323a10.833,10.833,0,0,0-2.382.6c-1.267.544-1.5,1.53-1.625,1.461-.041-.012-.043-.251.125-.647a2.867,2.867,0,0,1,1.258-1.3,9.208,9.208,0,0,1,2.479-.8,7.286,7.286,0,0,1,1.557-.233,2.277,2.277,0,0,1,1.71.71,4,4,0,0,1,.913,3.184,8.738,8.738,0,0,1-.517,2.58,1.691,1.691,0,0,1-1.509,1.051C378.487,157.416,378.317,157.169,378.348,157.146Z" fill="#263238"/>
      <path id="Path_2026" data-name="Path 2026" d="M396.867,119.024a8.189,8.189,0,0,0-.226,4.6c.51,1.471,2.278,2.611,3.653,1.883a11.66,11.66,0,0,0-.537,4.636,6.244,6.244,0,0,0,2.07,4.094,4.286,4.286,0,0,0,4.4.712,3.289,3.289,0,0,0,1.788-3.891A2.909,2.909,0,0,0,412.1,129.8a4.508,4.508,0,0,0-.715-4.576,3.032,3.032,0,0,0,2.956-2.606,5.811,5.811,0,0,0-1.1-4.076c-.791-1.205-1.807-2.247-2.631-3.432-.716-1.029-1.4-2.257-2.609-2.591a4.333,4.333,0,0,0-2.9.558,47.938,47.938,0,0,0-8.686,5.212" fill="#263238"/>
      <path id="Path_2027" data-name="Path 2027" d="M412.606,109.8s6.737.788,7.675-3.727c2.461-11.852-13.855-16.878-13.855-16.878s-5.714-1.512-15.064-4.968a60.817,60.817,0,0,1-10.4-5.034,9.262,9.262,0,0,0-9.857.088,76.744,76.744,0,0,1-17.288,8.5s-6.392,1.668-6.355,9.981c.018,3.816,6.5,6.66,6.5,6.66Z" fill="#263238"/>
      <path id="Path_2028" data-name="Path 2028" d="M411.56,116.358l1.107-6.93s-38.286-13.8-57.958-4.907v7.83Z" fill="#455a64"/>
      <path id="Path_2029" data-name="Path 2029" d="M344.477,117.467s4.747,3.837,15.158,4.357c18.947.948,49.79-5.617,49.79-5.617l-54.717-3.856Z" fill="#263238"/>
      <path id="Path_2030" data-name="Path 2030" d="M380.271,93.292c.351-.2-.189,8.6-.189,8.6s-.906,5.51-7.824,5.186c-7.345-.345-6.744-7.316-6.744-7.316l.391-6.466a6.047,6.047,0,0,0,7.011-2.835S376.166,95.637,380.271,93.292Z" fill="#e0e0e0"/>
      <path id="Path_2031" data-name="Path 2031" d="M411.367,116.626a6.875,6.875,0,0,1-1.618.371l-4.447.748c-3.759.606-8.949,1.452-14.706,2.266s-11,1.37-14.81,1.608c-1.9.123-3.446.188-4.512.195a6.915,6.915,0,0,1-1.659-.059,6.9,6.9,0,0,1,1.643-.237l4.484-.436c3.784-.374,9-1.009,14.748-1.824s10.955-1.576,14.736-2.045c1.89-.236,3.422-.411,4.483-.507A6.833,6.833,0,0,1,411.367,116.626Z" fill="#455a64"/>
      <path id="Path_2032" data-name="Path 2032" d="M372.777,155.326v10.007h5.643V155.4Z" fill="#e8505b"/>
      <path id="Path_2033" data-name="Path 2033" d="M379.771,159.589s-1.192.993-.993,4.04,3.246,5.7,3.246,5.7v2.582l-9.6-10.794s-.927-1.524-2.317-1.059-4.5,2.385-2.318,6.292c0,0-2.517.661-2.451,4.039,0,0-3.907-1.258-3.907,3.246v2.715a2.077,2.077,0,0,0-2.649,0c-1.258,1.126-.992,4.37-.6,5.894s11.192,16.622,14.57,18.212a22.251,22.251,0,0,1,5.5,3.641l7.417,8.94,13.685-12.826s-8.32-8.3-8.851-9.889,1.059-6.556.927-8.475a103.75,103.75,0,0,0-1.456-10.795C389.506,169.523,379.771,159.589,379.771,159.589Z" fill="#b78876"/>
      <path id="Path_2034" data-name="Path 2034" d="M385.666,213.032a4.109,4.109,0,0,1-.534-.557l-1.477-1.7c-1.317-1.553-3.187-3.756-5.562-6.554l.015.016a21.054,21.054,0,0,0-2.8-2.105c-.523-.336-1.081-.654-1.662-.962a13.2,13.2,0,0,1-1.817-1.015,46.233,46.233,0,0,1-6.254-6.777c-2.06-2.6-4.19-5.436-6.278-8.564a13.959,13.959,0,0,1-1.46-2.564,11.851,11.851,0,0,1-.325-2.985,4.754,4.754,0,0,1,.9-3.044,2.192,2.192,0,0,1,1.593-.734,2.733,2.733,0,0,1,1.653.575l-.587.28c0-.7,0-1.418,0-2.141a7.372,7.372,0,0,1,.242-2.288,2.816,2.816,0,0,1,1.653-1.847,4.041,4.041,0,0,1,2.489-.039l-.487.362a5.258,5.258,0,0,1,.564-2.586,3.842,3.842,0,0,1,2.162-1.826l-.233.55a5.928,5.928,0,0,1-.8-2.618,3.84,3.84,0,0,1,.978-2.669,5.538,5.538,0,0,1,2.389-1.562,2.051,2.051,0,0,1,1.6.17,3.263,3.263,0,0,1,1.117,1.065l-.041-.054.247.277c3.2,3.6,6.327,7.119,9.35,10.522l-.656.249q0-1.3,0-2.583l.128.28a10.912,10.912,0,0,1-3.161-4.781,7.872,7.872,0,0,1-.167-2.838,4.453,4.453,0,0,1,1.092-2.669l.228-.238.255.263c2.452,2.528,4.784,4.988,6.951,7.4a38.78,38.78,0,0,1,3.034,3.7,3.129,3.129,0,0,1,.417,1.177c.067.379.133.754.2,1.127q.16,1.114.318,2.2c.192,1.446.356,2.848.5,4.208.066.68.132,1.351.2,2.008a7.4,7.4,0,0,1-.03,1.99c-.339,2.523-1.109,4.83-.961,6.846a3.217,3.217,0,0,0,.686,1.257c.294.4.606.773.9,1.138.611.72,1.193,1.391,1.749,2.005q1.665,1.813,2.857,3.108l1.8,1.926a5.727,5.727,0,0,1,.6.686,4.847,4.847,0,0,1-.682-.6c-.467-.458-1.09-1.071-1.88-1.848-.812-.817-1.8-1.829-2.94-3.04q-.854-.907-1.793-1.982c-.307-.365-.628-.735-.936-1.141a3.556,3.556,0,0,1-.786-1.43c-.191-2.242.575-4.492.871-6.987a16.639,16.639,0,0,0-.205-3.871c-.157-1.353-.333-2.751-.536-4.188q-.162-1.077-.333-2.181-.1-.546-.2-1.1a2.458,2.458,0,0,0-.34-.968,39.142,39.142,0,0,0-2.992-3.6c-2.169-2.389-4.511-4.837-6.966-7.348l.481.023a3.938,3.938,0,0,0-.832,2.206,7.216,7.216,0,0,0,.154,2.561,10.211,10.211,0,0,0,2.947,4.415l.127.118v.163q0,1.281,0,2.583l0,.987-.658-.738-9.36-10.513-.246-.277-.018-.02-.023-.036a1.705,1.705,0,0,0-1.842-.9,4.828,4.828,0,0,0-2.042,1.333,3.072,3.072,0,0,0-.793,2.152,5.214,5.214,0,0,0,.7,2.266l.217.4-.451.145a3.115,3.115,0,0,0-1.694,1.455,4.5,4.5,0,0,0-.479,2.211l.014.5-.5-.139a3.337,3.337,0,0,0-1.994.021,2.065,2.065,0,0,0-1.22,1.383,6.644,6.644,0,0,0-.213,2.06q0,1.084-.005,2.142v.735l-.585-.455a1.642,1.642,0,0,0-2.275.082,4.178,4.178,0,0,0-.72,2.577,11.182,11.182,0,0,0,.29,2.8,15.006,15.006,0,0,0,1.355,2.365c2.052,3.11,4.161,5.962,6.188,8.56a46.786,46.786,0,0,0,6.094,6.743c.278.19.536.362.83.526.31.153.614.3.908.467.59.321,1.153.652,1.683,1a21.165,21.165,0,0,1,2.833,2.2l.007.008.008.008,5.416,6.677c.587.74,1.049,1.324,1.4,1.766A4.263,4.263,0,0,1,385.666,213.032Z" fill="#aa6550"/>
      <path id="Path_2035" data-name="Path 2035" d="M374.6,174.71c-.165.132-1.872-1.727-3.811-4.152s-3.379-4.5-3.215-4.629,1.87,1.727,3.811,4.153S374.763,174.58,374.6,174.71Z" fill="#aa6550"/>
      <path id="Path_2036" data-name="Path 2036" d="M369.472,176.673c-.146.141-1.46-1.017-2.572-2.844s-1.55-3.52-1.358-3.585.935,1.439,2.01,3.188S369.633,176.526,369.472,176.673Z" fill="#aa6550"/>
      <path id="Path_2037" data-name="Path 2037" d="M363.319,180.508c-.186.1-.843-.781-1.468-1.963s-.98-2.222-.794-2.321.844.782,1.468,1.966S363.505,180.41,363.319,180.508Z" fill="#aa6550"/>
      <path id="Path_2038" data-name="Path 2038" d="M367.78,244.37H341.5v5.707H367.78Z" fill="#263238"/>
      <path id="Path_2039" data-name="Path 2039" d="M331.428,329.611s.917,20.836,47.624,19.233,65.482-19.233,65.482-19.233v21.867S393.892,371.6,358.9,366.548c-27.475-3.965-33.657-15.07-33.657-15.07Z" fill="#455a64"/>
      <path id="Path_2040" data-name="Path 2040" d="M361.65,379.3a7.1,7.1,0,0,1-7.1-7.1V342.663a7.1,7.1,0,0,1,14.194,0V372.2A7.1,7.1,0,0,1,361.65,379.3Z" fill="#455a64"/>
      <path id="Path_2041" data-name="Path 2041" d="M361.651,379.3c0-.041.365-.038,1.037-.163a7.218,7.218,0,0,0,2.733-1.1,6.964,6.964,0,0,0,2.753-3.646,8,8,0,0,0,.332-2.875q-.014-1.588-.027-3.345c-.023-4.716-.051-10.293-.082-16.474-.025-3.083.016-6.392-.055-9.69a6.725,6.725,0,0,0-13.381,0c-.072,3.3-.031,6.609-.056,9.692-.03,6.181-.058,11.76-.082,16.475-.008,1.17-.019,2.287-.026,3.346a8.018,8.018,0,0,0,.331,2.874,6.949,6.949,0,0,0,2.753,3.645,7.233,7.233,0,0,0,2.734,1.1c.67.125,1.037.122,1.036.163a3.99,3.99,0,0,1-1.059-.01,6.883,6.883,0,0,1-2.873-1.006,7.183,7.183,0,0,1-3-3.759,8.409,8.409,0,0,1-.412-3.011q-.014-1.589-.028-3.346c-.023-4.715-.051-10.293-.082-16.475.007-3.117-.054-6.32.015-9.765a7.472,7.472,0,0,1,14.87,0c.069,3.444.008,6.647.015,9.763-.031,6.181-.059,11.759-.082,16.474q-.017,1.755-.027,3.346a8.393,8.393,0,0,1-.412,3.011,7.187,7.187,0,0,1-3,3.759,6.878,6.878,0,0,1-2.873,1.006A4.1,4.1,0,0,1,361.651,379.3Z" fill="#263238"/>
      <path id="Path_2042" data-name="Path 2042" d="M361.628,346.682a2.015,2.015,0,0,0-1.689,1.66,1.779,1.779,0,0,0,1.3,1.918,1.953,1.953,0,0,0,2.117-1.4A1.827,1.827,0,0,0,361.628,346.682Z" fill="#455a64"/>
      <path id="Path_2043" data-name="Path 2043" d="M361.628,346.682c.005-.046.166-.1.464-.063a1.748,1.748,0,0,1,1.141.617,2.225,2.225,0,0,1,.409,1.936,2.344,2.344,0,0,1-1.929,1.486,1.966,1.966,0,0,1-2.006-1.386,1.989,1.989,0,0,1,.364-1.936c.78-.87,1.588-.736,1.557-.654.035.116-.636.226-1.123.975a1.478,1.478,0,0,0-.138,1.373,1.3,1.3,0,0,0,1.264.87,1.757,1.757,0,0,0,1.344-.948,1.8,1.8,0,0,0-.177-1.393C362.323,346.845,361.581,346.817,361.628,346.682Z" fill="#263238"/>
      <path id="Path_2044" data-name="Path 2044" d="M361.662,364.177a2.018,2.018,0,0,0-1.69,1.662,1.779,1.779,0,0,0,1.3,1.918,1.952,1.952,0,0,0,2.117-1.4A1.828,1.828,0,0,0,361.662,364.177Z" fill="#455a64"/>
      <path id="Path_2045" data-name="Path 2045" d="M361.661,364.177c0-.045.166-.1.464-.063a1.748,1.748,0,0,1,1.141.618,2.22,2.22,0,0,1,.409,1.936,2.343,2.343,0,0,1-1.929,1.486,1.968,1.968,0,0,1-2.006-1.386,1.99,1.99,0,0,1,.364-1.936c.78-.869,1.588-.735,1.557-.655.036.116-.636.226-1.123.976a1.48,1.48,0,0,0-.138,1.373,1.3,1.3,0,0,0,1.264.869,1.753,1.753,0,0,0,1.344-.947,1.8,1.8,0,0,0-.176-1.393C362.357,364.342,361.614,364.314,361.661,364.177Z" fill="#263238"/>
      <path id="Path_2046" data-name="Path 2046" d="M343.185,377.877a7.1,7.1,0,0,1-7.1-7.1V341.244a7.1,7.1,0,1,1,14.194,0v29.535A7.1,7.1,0,0,1,343.185,377.877Z" fill="#455a64"/>
      <path id="Path_2047" data-name="Path 2047" d="M343.186,377.877c0-.041.365-.039,1.037-.163a7.188,7.188,0,0,0,2.734-1.1,6.956,6.956,0,0,0,2.753-3.646,8.071,8.071,0,0,0,.331-2.876q-.013-1.588-.026-3.345c-.024-4.716-.052-10.293-.083-16.474-.024-3.083.017-6.392-.055-9.69a6.725,6.725,0,0,0-13.381,0c-.072,3.3-.03,6.609-.055,9.692-.031,6.181-.059,11.76-.083,16.475q-.015,1.756-.026,3.346a8,8,0,0,0,.332,2.874,6.943,6.943,0,0,0,2.752,3.645,7.233,7.233,0,0,0,2.734,1.1c.671.126,1.037.124,1.036.165a4.025,4.025,0,0,1-1.059-.011,6.868,6.868,0,0,1-2.873-1.006,7.179,7.179,0,0,1-3-3.759,8.431,8.431,0,0,1-.412-3.011q-.014-1.588-.028-3.345c-.023-4.716-.051-10.295-.082-16.475.007-3.117-.054-6.32.015-9.766a7.471,7.471,0,0,1,14.869,0c.069,3.445.009,6.647.015,9.764-.031,6.18-.059,11.758-.083,16.473-.008,1.171-.019,2.287-.026,3.346a8.409,8.409,0,0,1-.412,3.011,7.179,7.179,0,0,1-3,3.759,6.869,6.869,0,0,1-2.873,1.006A4,4,0,0,1,343.186,377.877Z" fill="#263238"/>
      <path id="Path_2048" data-name="Path 2048" d="M343.164,346.682a2.013,2.013,0,0,0-1.69,1.66,1.779,1.779,0,0,0,1.3,1.918,1.952,1.952,0,0,0,2.117-1.4A1.827,1.827,0,0,0,343.164,346.682Z" fill="#455a64"/>
      <path id="Path_2049" data-name="Path 2049" d="M343.163,346.682c.005-.046.166-.1.464-.063a1.748,1.748,0,0,1,1.141.617,2.225,2.225,0,0,1,.409,1.936,2.341,2.341,0,0,1-1.929,1.486,1.966,1.966,0,0,1-2.006-1.386,1.989,1.989,0,0,1,.364-1.936c.78-.87,1.588-.736,1.557-.654.035.116-.636.226-1.123.975a1.48,1.48,0,0,0-.138,1.373,1.3,1.3,0,0,0,1.264.87,1.757,1.757,0,0,0,1.344-.948,1.8,1.8,0,0,0-.176-1.393C343.858,346.845,343.116,346.817,343.163,346.682Z" fill="#263238"/>
      <path id="Path_2050" data-name="Path 2050" d="M335.791,354.681a14.94,14.94,0,0,0,14.655,1.119Z" fill="#455a64"/>
      <path id="Path_2051" data-name="Path 2051" d="M350.445,355.8a4.828,4.828,0,0,1-2.024,1.06,13.837,13.837,0,0,1-10.792-.824c-1.252-.673-1.892-1.285-1.839-1.355.112-.214,3.017,1.823,7.21,2.1C347.186,357.144,350.369,355.573,350.445,355.8Z" fill="#263238"/>
      <path id="Path_2052" data-name="Path 2052" d="M442.96,363.528a7.1,7.1,0,0,1-7.1-7.1V326.895a7.1,7.1,0,0,1,14.2,0v29.536A7.1,7.1,0,0,1,442.96,363.528Z" fill="#455a64"/>
      <path id="Path_2053" data-name="Path 2053" d="M442.96,363.528c0-.041.365-.038,1.037-.161a7.211,7.211,0,0,0,2.734-1.105,6.956,6.956,0,0,0,2.753-3.646,8.021,8.021,0,0,0,.331-2.875c-.008-1.058-.017-2.175-.026-3.345-.023-4.715-.051-10.293-.082-16.474-.025-3.083.016-6.391-.056-9.69a6.725,6.725,0,0,0-13.38,0c-.072,3.3-.031,6.608-.056,9.691-.031,6.181-.059,11.76-.082,16.475q-.015,1.756-.027,3.346a8.046,8.046,0,0,0,.332,2.875,6.951,6.951,0,0,0,2.753,3.644,7.238,7.238,0,0,0,2.734,1.105c.67.123,1.037.12,1.035.161a4.045,4.045,0,0,1-1.059-.01,6.871,6.871,0,0,1-2.871-1.006,7.187,7.187,0,0,1-3-3.759,8.411,8.411,0,0,1-.412-3.012c-.009-1.058-.018-2.175-.026-3.345-.024-4.715-.052-10.295-.083-16.475.008-3.117-.054-6.32.015-9.765a7.471,7.471,0,0,1,14.869,0c.069,3.446.008,6.647.015,9.764-.031,6.18-.059,11.758-.082,16.474q-.017,1.755-.027,3.345a8.39,8.39,0,0,1-.412,3.011,7.183,7.183,0,0,1-3,3.759,6.9,6.9,0,0,1-2.873,1.008A4.116,4.116,0,0,1,442.96,363.528Z" fill="#263238"/>
      <path id="Path_2054" data-name="Path 2054" d="M442.937,330.914a2.016,2.016,0,0,0-1.69,1.661,1.782,1.782,0,0,0,1.3,1.919,1.952,1.952,0,0,0,2.116-1.4A1.828,1.828,0,0,0,442.937,330.914Z" fill="#455a64"/>
      <path id="Path_2055" data-name="Path 2055" d="M442.937,330.914c0-.046.166-.1.464-.063a1.741,1.741,0,0,1,1.141.617,2.221,2.221,0,0,1,.409,1.936,2.341,2.341,0,0,1-1.929,1.486,1.966,1.966,0,0,1-2.006-1.386,1.989,1.989,0,0,1,.364-1.936c.78-.868,1.587-.736,1.557-.654.036.116-.636.226-1.123.975a1.481,1.481,0,0,0-.138,1.373,1.3,1.3,0,0,0,1.264.87,1.754,1.754,0,0,0,1.344-.948,1.809,1.809,0,0,0-.176-1.393C443.631,331.077,442.89,331.049,442.937,330.914Z" fill="#263238"/>
      <path id="Path_2056" data-name="Path 2056" d="M442.97,348.409a2.013,2.013,0,0,0-1.689,1.662,1.778,1.778,0,0,0,1.3,1.918,1.951,1.951,0,0,0,2.116-1.4A1.829,1.829,0,0,0,442.97,348.409Z" fill="#455a64"/>
      <path id="Path_2057" data-name="Path 2057" d="M442.97,348.409c0-.045.166-.1.463-.063a1.748,1.748,0,0,1,1.141.618,2.221,2.221,0,0,1,.41,1.936,2.345,2.345,0,0,1-1.929,1.486A1.968,1.968,0,0,1,441.049,351a1.99,1.99,0,0,1,.363-1.936c.779-.869,1.587-.735,1.558-.655.035.116-.637.226-1.124.976a1.48,1.48,0,0,0-.137,1.373,1.3,1.3,0,0,0,1.264.869,1.754,1.754,0,0,0,1.343-.947,1.8,1.8,0,0,0-.176-1.394C443.664,348.572,442.922,348.546,442.97,348.409Z" fill="#263238"/>
      <path id="Path_2058" data-name="Path 2058" d="M423.8,370.351a7.1,7.1,0,0,1-7.1-7.1V333.718a7.1,7.1,0,0,1,14.2,0v29.536A7.1,7.1,0,0,1,423.8,370.351Z" fill="#455a64"/>
      <path id="Path_2059" data-name="Path 2059" d="M423.8,370.351c0-.041.365-.038,1.037-.163a7.2,7.2,0,0,0,2.734-1.1,6.96,6.96,0,0,0,2.753-3.646,8.043,8.043,0,0,0,.331-2.875q-.012-1.588-.026-3.345c-.024-4.716-.051-10.293-.082-16.474-.025-3.083.016-6.392-.056-9.69a6.725,6.725,0,0,0-13.38,0c-.072,3.3-.031,6.609-.056,9.692-.031,6.181-.059,11.76-.082,16.475q-.014,1.757-.027,3.346a8.039,8.039,0,0,0,.332,2.874,6.949,6.949,0,0,0,2.753,3.645,7.233,7.233,0,0,0,2.734,1.1c.67.125,1.037.122,1.035.163a3.988,3.988,0,0,1-1.059-.01,6.879,6.879,0,0,1-2.872-1.006,7.183,7.183,0,0,1-3-3.759,8.408,8.408,0,0,1-.412-3.011q-.014-1.588-.027-3.346c-.023-4.715-.051-10.294-.082-16.475.008-3.117-.054-6.32.015-9.765a7.471,7.471,0,0,1,14.869,0c.069,3.445.007,6.646.015,9.763-.031,6.181-.059,11.758-.082,16.474q-.016,1.755-.027,3.345a8.39,8.39,0,0,1-.412,3.011,7.183,7.183,0,0,1-3,3.759,6.847,6.847,0,0,1-2.874,1.006A3.963,3.963,0,0,1,423.8,370.351Z" fill="#263238"/>
      <path id="Path_2060" data-name="Path 2060" d="M423.775,339.156a2.018,2.018,0,0,0-1.69,1.662,1.78,1.78,0,0,0,1.3,1.918,1.95,1.95,0,0,0,2.116-1.4A1.829,1.829,0,0,0,423.775,339.156Z" fill="#455a64"/>
      <path id="Path_2061" data-name="Path 2061" d="M423.775,339.156c.005-.045.166-.1.464-.063a1.75,1.75,0,0,1,1.141.618,2.224,2.224,0,0,1,.409,1.936,2.343,2.343,0,0,1-1.929,1.486,2.028,2.028,0,0,1-1.642-3.322c.778-.87,1.587-.737,1.557-.655.035.116-.636.225-1.123.976a1.477,1.477,0,0,0-.138,1.373,1.3,1.3,0,0,0,1.264.869,1.756,1.756,0,0,0,1.344-.947,1.809,1.809,0,0,0-.176-1.393C424.469,339.319,423.727,339.291,423.775,339.156Z" fill="#263238"/>
      <path id="Path_2062" data-name="Path 2062" d="M416.4,347.156a14.945,14.945,0,0,0,14.655,1.119Z" fill="#455a64"/>
      <path id="Path_2063" data-name="Path 2063" d="M431.056,348.276a4.8,4.8,0,0,1-2.024,1.061,13.846,13.846,0,0,1-10.791-.824c-1.253-.675-1.892-1.285-1.84-1.356.112-.214,3.017,1.823,7.211,2.1C427.8,349.618,430.98,348.048,431.056,348.276Z" fill="#263238"/>
      <path id="Path_2064" data-name="Path 2064" d="M325.464,387.348a7.361,7.361,0,0,1-7.246-7.474l.83-53.652a7.361,7.361,0,0,1,14.721.227l-.83,53.652A7.362,7.362,0,0,1,325.464,387.348Z" fill="#455a64"/>
      <path id="Path_2065" data-name="Path 2065" d="M325.463,387.348c0-.048.543-.013,1.536-.217a7.348,7.348,0,0,0,5.377-4.837,11.44,11.44,0,0,0,.374-3.747c.026-2.769.055-5.909.089-9.375.084-6.965.185-15.232.3-24.4.065-4.593.131-9.413.2-14.41q.027-1.874.056-3.779a7.163,7.163,0,0,0-.816-3.517,6.982,6.982,0,0,0-12.224-.194,7.151,7.151,0,0,0-.927,3.491q-.031,1.905-.062,3.781c-.085,5-.167,9.816-.245,14.411-.173,9.173-.328,17.438-.459,24.4-.075,3.464-.142,6.6-.2,9.373a11.41,11.41,0,0,0,.258,3.758,7.363,7.363,0,0,0,1.523,2.738,7.443,7.443,0,0,0,3.7,2.262c.983.231,1.529.215,1.524.262a5.415,5.415,0,0,1-1.562-.116,7.372,7.372,0,0,1-3.887-2.211,7.631,7.631,0,0,1-1.651-2.833,11.635,11.635,0,0,1-.336-3.87c.027-2.769.056-5.909.09-9.375.085-6.965.184-15.231.3-24.4.064-4.6.13-9.416.2-14.413q.025-1.873.056-3.781a7.918,7.918,0,0,1,1.022-3.856,7.736,7.736,0,0,1,13.552.214,7.94,7.94,0,0,1,.9,3.886q-.03,1.905-.061,3.779c-.085,5-.167,9.815-.245,14.409-.173,9.171-.329,17.435-.459,24.4-.075,3.464-.143,6.605-.2,9.374a11.627,11.627,0,0,1-.456,3.858,7.6,7.6,0,0,1-1.738,2.781,7.362,7.362,0,0,1-3.953,2.09A5.359,5.359,0,0,1,325.463,387.348Z" fill="#263238"/>
      <path id="Path_2066" data-name="Path 2066" d="M378.869,347.819l1.289,19.8a2.445,2.445,0,0,0,2.6,2.281l13.791-.9a2.444,2.444,0,0,0,2.28-2.6l-1.289-19.8a2.445,2.445,0,0,0-2.6-2.281l-13.791.9A2.445,2.445,0,0,0,378.869,347.819Zm14.845,18.676-8.8.574a2.446,2.446,0,0,1-2.6-2.281l-.906-13.926a2.445,2.445,0,0,1,2.282-2.6l8.8-.573a2.445,2.445,0,0,1,2.6,2.28L396,363.9A2.446,2.446,0,0,1,393.714,366.495Z" fill="#263238"/>
      <path id="Path_2067" data-name="Path 2067" d="M402.22,354.594c-.085.223-2.947-1.23-6.742-1.006-3.8.157-6.5,1.891-6.608,1.678-.051-.073.546-.614,1.7-1.2a12.658,12.658,0,0,1,9.837-.494C401.616,354.037,402.262,354.515,402.22,354.594Z" fill="#263238"/>
      <path id="Path_2068" data-name="Path 2068" d="M402.614,359.759c-.087.22-2.852-1.3-6.552-1-3.708.234-6.219,2.147-6.337,1.942-.056-.069.479-.649,1.573-1.29a11.326,11.326,0,0,1,9.572-.7C402.045,359.187,402.659,359.682,402.614,359.759Z" fill="#263238"/>
      <path id="Path_2069" data-name="Path 2069" d="M906.932,72.514l-303.16,28.224L632,403.9l303.159-28.224Z" fill="#fff"/>
      <path id="Path_2070" data-name="Path 2070" d="M935.146,375.685s-.061-.488-.157-1.429-.231-2.346-.413-4.181c-.355-3.7-.88-9.152-1.564-16.265-1.35-14.237-3.33-35.093-5.849-61.63-4.989-53.036-12.114-128.766-20.661-219.612l.462.384L603.841,101.235l-.029,0,.443-.534c10.309,111.016,19.971,215.053,28.154,303.164l-.462-.384,219.661-20.23,61.645-5.626,16.273-1.465q2.757-.24,4.186-.365c.943-.084,1.434-.113,1.434-.113s-.456.059-1.38.153l-4.136.409L913.449,377.8l-61.53,5.839L632.027,404.328l-.423.039-.04-.424c-8.221-88.108-17.929-192.14-28.286-303.151l-.046-.49.49-.045.03,0L906.887,72.1l.424-.04.038.424c8.379,90.976,15.363,166.813,20.254,219.924,2.419,26.5,4.321,47.335,5.619,61.554.638,7.081,1.127,12.515,1.458,16.194q.237,2.726.361,4.14C935.12,375.226,935.146,375.685,935.146,375.685Z" fill="#263238"/>
      <path id="Path_2071" data-name="Path 2071" d="M630.35,80.064,617.04,81.3l3.007,32.3,13.31-1.239Z" fill="#e0e0e0"/>
      <path id="Path_2072" data-name="Path 2072" d="M658.6,383.444l-13.31,1.239,3.007,32.3,13.31-1.239Z" fill="#e0e0e0"/>
      <path id="Path_2073" data-name="Path 2073" d="M895.853,55.335l-13.31,1.239,3.007,32.3,13.31-1.239Z" fill="#e0e0e0"/>
      <path id="Path_2074" data-name="Path 2074" d="M924.287,360.787l-13.309,1.239,3.007,32.3,13.309-1.24Z" fill="#e0e0e0"/>
      <path id="Path_2075" data-name="Path 2075" d="M815.817,220.024A66.6,66.6,0,1,0,722.186,230.2,66.6,66.6,0,0,0,815.817,220.024Z" fill="#fff"/>
      <path id="Path_2076" data-name="Path 2076" d="M763.832,245.852a67.563,67.563,0,1,1,6.308-.293C768.026,245.756,765.915,245.852,763.832,245.852Zm.1-133.192q-3.042,0-6.133.286a65.612,65.612,0,1,0,6.133-.286Z" fill="#e8505b"/>
      <path id="Path_2077" data-name="Path 2077" d="M794.826,170.652a4.682,4.682,0,0,0-7.524-.381,16.539,16.539,0,0,0-2.044,4.58c-1.3,4.032-2.457,8.112-3.729,12.156-.136.436-.651.751-.991,1.123-.274-.418-.731-.811-.792-1.258-.321-2.307-.575-4.626-.789-6.946-.421-4.554-.785-9.115-1.2-13.669-.7-7.658-1.406-15.314-2.181-22.964a4.611,4.611,0,0,0-1.013-2.372,4.458,4.458,0,0,0-5.169-.921,4.222,4.222,0,0,0-2.291,4.323q1.112,12.185,2.254,24.365a2.988,2.988,0,0,1,.055,1.133c-.1.306-.452.705-.725.731a1.157,1.157,0,0,1-.847-.58,2.922,2.922,0,0,1-.165-1.122q-1.32-14.148-2.64-28.3a15.6,15.6,0,0,0-.211-1.77,3.3,3.3,0,0,0-2.993-2.851c-3.484-.587-5.8,1.541-5.476,5.067q1.285,13.962,2.6,27.92a7.03,7.03,0,0,1,.073,1.647,1.034,1.034,0,0,1-.648.729,1.059,1.059,0,0,1-.85-.531,5.135,5.135,0,0,1-.239-1.495c-.7-7.445-1.367-14.892-2.1-22.333a4.285,4.285,0,0,0-8.527.823q1.075,11.87,2.2,23.732a4.655,4.655,0,0,1,.1,1.389,4.531,4.531,0,0,1-.692,1.188c-.34-.35-.939-.673-.981-1.057-.324-2.869-.528-5.75-.788-8.626-.274-3.046-.529-6.1-.865-9.136-.261-2.358-2.252-3.775-4.767-3.5a3.7,3.7,0,0,0-3.43,4.217q.581,8.963,1.152,17.925h0c.339,3.635.632,7.279.817,10.922a55.223,55.223,0,0,0,4.8,21.079c2.955,6.262,7.861,10.31,14.715,11.575a28.363,28.363,0,0,0,20.709-4.166,19,19,0,0,0,8.739-11.339c2.418-9.22,4.653-18.489,6.85-27.766A5.333,5.333,0,0,0,794.826,170.652Z" fill="#e8505b"/>
      <path id="Path_2078" data-name="Path 2078" d="M699.654,345.555l.2,2.165L687.213,348.9l-1.62-17.415,12.292-1.144.2,2.163-9.8.913.5,5.348,8.733-.814.2,2.115-8.732.814.523,5.622Z" fill="#263238"/>
      <path id="Path_2079" data-name="Path 2079" d="M709.386,333.407l.216,2.314a4.169,4.169,0,0,0-.553.027c-2.562.239-4.007,1.955-3.74,4.84l.612,6.567-2.39.223L702.3,334.191l2.291-.214.206,2.215C705.5,334.571,707.07,333.622,709.386,333.407Z" fill="#263238"/>
      <path id="Path_2080" data-name="Path 2080" d="M719.406,332.474l.215,2.315a4.379,4.379,0,0,0-.551.026c-2.562.239-4.007,1.955-3.74,4.84l.611,6.568-2.387.221-1.228-13.187,2.288-.212.207,2.214C715.523,333.637,717.093,332.69,719.406,332.474Z" fill="#263238"/>
      <path id="Path_2081" data-name="Path 2081" d="M721.62,339.043a6.885,6.885,0,1,1,7.494,6.105A6.589,6.589,0,0,1,721.62,339.043Zm11.3-1.051a4.465,4.465,0,1,0-4,5.066A4.343,4.343,0,0,0,732.916,337.992Z" fill="#263238"/>
      <path id="Path_2082" data-name="Path 2082" d="M745.1,330.082l.215,2.314a4.562,4.562,0,0,0-.553.027c-2.562.239-4.007,1.955-3.74,4.84l.612,6.568-2.388.222-1.227-13.186,2.288-.214.206,2.214C741.216,331.247,742.784,330.3,745.1,330.082Z" fill="#263238"/>
      <path id="Path_2083" data-name="Path 2083" d="M757.549,326.965l.563,6.071,8.736-.814.2,2.14-8.737.814.656,7.041-2.488.232-1.621-17.415,12.291-1.144.2,2.163Z" fill="#263238"/>
      <path id="Path_2084" data-name="Path 2084" d="M769.67,334.57a6.885,6.885,0,1,1,7.494,6.1A6.589,6.589,0,0,1,769.67,334.57Zm11.294-1.051a4.465,4.465,0,1,0-3.995,5.064A4.344,4.344,0,0,0,780.964,333.519Z" fill="#263238"/>
      <path id="Path_2085" data-name="Path 2085" d="M793.147,325.61l.216,2.314a4,4,0,0,0-.551.027c-2.563.239-4.01,1.955-3.742,4.84l.612,6.567-2.388.222-1.228-13.187,2.29-.213.207,2.215C789.265,326.773,790.833,325.824,793.147,325.61Z" fill="#263238"/>
      <path id="Path_2086" data-name="Path 2086" d="M810.362,330.782a6.45,6.45,0,0,1-6.04,7.364,5.6,5.6,0,0,1-4.911-1.8l.194,2.09-2.289.213L795.6,320.185l2.389-.222.677,7.266a5.629,5.629,0,0,1,4.406-2.543A6.427,6.427,0,0,1,810.362,330.782Zm-2.414.225a4.465,4.465,0,1,0-4.021,5.068A4.364,4.364,0,0,0,807.948,331.007Z" fill="#263238"/>
      <path id="Path_2087" data-name="Path 2087" d="M812.251,319.84a1.577,1.577,0,0,1,1.47-1.717,1.551,1.551,0,0,1,1.757,1.365,1.624,1.624,0,0,1-3.227.352Zm.8,4.041,2.388-.222,1.227,13.187-2.388.222Z" fill="#263238"/>
      <path id="Path_2088" data-name="Path 2088" d="M831.936,316.8l1.719,18.461-2.286.212-.194-2.09a5.594,5.594,0,0,1-4.495,2.678,6.76,6.76,0,0,1-1.254-13.461,5.631,5.631,0,0,1,4.8,1.687l-.678-7.266Zm-1.257,12.088a4.465,4.465,0,1,0-4,5.064A4.357,4.357,0,0,0,830.679,328.891Z" fill="#263238"/>
      <path id="Path_2089" data-name="Path 2089" d="M848.9,315.223l1.719,18.461-2.287.213-.193-2.09a5.6,5.6,0,0,1-4.5,2.678,6.76,6.76,0,0,1-1.252-13.461,5.627,5.627,0,0,1,4.8,1.686l-.678-7.265Zm-1.257,12.088a4.465,4.465,0,1,0-4,5.065A4.359,4.359,0,0,0,847.642,327.311Z" fill="#263238"/>
      <path id="Path_2090" data-name="Path 2090" d="M866.468,326.363l-10.7.995a4.484,4.484,0,0,0,5.136,3.412,4.95,4.95,0,0,0,3.659-1.945l1.461,1.42a6.64,6.64,0,0,1-5,2.624c-4.255.4-7.351-2.152-7.717-6.084a6.485,6.485,0,0,1,5.991-7.333c3.806-.355,6.775,2.129,7.153,6.184C866.471,325.836,866.472,326.137,866.468,326.363Zm-10.856-.721,8.458-.787a4.274,4.274,0,0,0-8.458.787Z" fill="#263238"/>
      <path id="Path_2091" data-name="Path 2091" d="M882.17,323.1l.705,7.587-2.389.223-.68-7.315c-.241-2.587-1.653-3.735-3.915-3.526-2.539.237-4.04,1.907-3.774,4.769l.633,6.792-2.39.221-1.227-13.187,2.289-.212.187,1.99a5.679,5.679,0,0,1,4.554-2.558C879.373,317.581,881.809,319.212,882.17,323.1Z" fill="#263238"/>
      <path id="Path_2092" data-name="Path 2092" d="M745.367,302.44l-9.825.915,1.174,12.6-9.983.93-1.173-12.6-30.421,2.832-.666-7.133,24.009-38.274,11.012-1.025L706.925,297.23l18.142-1.688-1.041-11.173,9.665-.9,1.042,11.173,9.825-.915Z" fill="#263238"/>
      <path id="Path_2093" data-name="Path 2093" d="M748.316,286.9c-1.7-18.222,7.327-29.451,20.479-30.674,13.232-1.232,24.172,8.138,25.869,26.359s-7.328,29.452-20.56,30.684C760.953,314.494,750.013,305.124,748.316,286.9Zm35.97-3.35c-1.247-13.389-7.053-19.082-14.658-18.373-7.527.7-12.179,7.367-10.933,20.756s7.051,19.084,14.578,18.383C780.877,303.61,785.531,296.942,784.286,283.552Z" fill="#263238"/>
      <path id="Path_2094" data-name="Path 2094" d="M841.251,289.439c.869,9.349-5.428,18.086-20.324,19.473-7.844.729-15.907-.917-21.432-4.478l3.69-8.414a25.982,25.982,0,0,0,16.751,3.954c7.368-.686,11.422-4.34,10.944-9.489-.465-4.991-4.413-7.9-12.809-7.121l-5.071.472-.656-7.048,11.2-16.148-25.193,2.345-.8-8.636,37.791-3.518.641,6.891L824,274.979C834.586,275.353,840.476,281.12,841.251,289.439Z" fill="#263238"/>
    </g>
    <path id="Path_2096" data-name="Path 2096" d="M0,435.624H861.924s-19.269-2.733-51.54-8.534-77.543-14.669-129.55-26.942S570.088,372.2,510.882,352.787,392,310.22,338.133,282.994a946.378,946.378,0,0,1-143.739-90.163A1057.859,1057.859,0,0,1,88.261,100.657C59.462,72.09,37.4,46.925,22.531,28.9S0,0,0,0Z" transform="translate(0 644.376)" fill="#fcbf49"/>
  </g>
</svg>
