<svg xmlns="http://www.w3.org/2000/svg" xmlns:xlink="http://www.w3.org/1999/xlink" width="1920" height="1080" viewBox="0 0 1920 1080">
  <defs>
    <clipPath id="clip-_404_1">
      <rect width="1920" height="1080"/>
    </clipPath>
  </defs>
  <g id="_404_1" data-name="404 – 1" clip-path="url(#clip-_404_1)">
    <rect width="1920" height="1080" fill="#fff"/>
    <path id="Path_1001" data-name="Path 1001" d="M0,0S101.962,177.914,317.949,227.964s419.238-143.522,546-27.763S825,691,825,691H0Z" transform="translate(0 389)" fill="#fcbf49"/>
    <g id="Group_1745" data-name="Group 1745" transform="translate(-2 46)">
      <circle id="Ellipse_81" data-name="Ellipse 81" cx="350" cy="350" r="350" transform="translate(90 274)" fill="#f1f5f9" opacity="0.15"/>
      <circle id="Ellipse_82" data-name="Ellipse 82" cx="325" cy="325" r="325" transform="translate(115 299)" fill="#f1f5f9" opacity="0.52"/>
      <circle id="Ellipse_83" data-name="Ellipse 83" cx="300" cy="300" r="300" transform="translate(140 324)" fill="#f1f5f9"/>
    </g>
    <g id="Group_1746" data-name="Group 1746" transform="translate(170.162 8.344)">
      <path id="Path_829" data-name="Path 829" d="M798.916,544.036s-127.323-61.053-206.28-61.053c-94.819,0-186.941,27.2-221.895,36.191-91.8,23.6-269.658,24.862-269.658,24.862Z" fill="#dbdbdb"/>
      <path id="Path_830" data-name="Path 830" d="M101.081,544.036s72.3-35.52,153.964-35.52c57,0,138.822,7.357,215.885,19.411,29.338,4.589,182.076,16.109,182.076,16.109Z" fill="#c7c7c7"/>
      <path id="Path_831" data-name="Path 831" d="M771.154,419.089c-8.593,0-223.069-1.494-283.649-1.494-4.238,0,1.117-7.335,3.452-7.847,7.45-1.63,15.21-1.715,22.779-2.5a74.473,74.473,0,0,0,21.71-5.44c5.96-2.514,11.907-5.425,18.363-6.431,12.482-1.957,23.429,4.806,35.136,7.792,7.609,1.939,14.516,1.156,21.278-2.907,5.413-3.245,10.33-7.139,15.99-10.006,21.488-10.852,47.665-11.855,70.084-3.211a81.619,81.619,0,0,1,15.333,7.848c5.717,3.749,10.645,8.546,16.381,12.251,12.705,8.222,28.41,5.547,42.266,10.258C771.039,417.656,771.9,419.089,771.154,419.089Z" fill="#ebebeb"/>
      <path id="Path_832" data-name="Path 832" d="M721.132,148.489c-11.363,0-202.579,1.258-214.6.877-.864-.025-1.326-1.3-.468-1.721,7.577-3.751,16.17-3,24.041-5.65,4.633-1.561,7.477-4.59,10.692-8.062a22.158,22.158,0,0,1,9.951-6.5,21.027,21.027,0,0,1,10.832-.34c3.881.925,7.249,3.147,10.949,4.547,9.186,3.467,18.112.173,24.669-6.626,5.411-5.6,10.728-10.888,18.081-13.9,6.156-2.529,12.993-3.054,19.156-.264,7.015,3.177,11.826,9.568,18.414,13.411,7.81,4.565,17.15,3.485,25.774,4.862,8.649,1.383,15.25,8.644,22.813,12.825,2.585,1.431,5.231,2.628,8.248,2.554,1.69-.043,3.35-.5,5.022-.709,2.6-.32,5.076-.246,6.829,1.924C721.966,146.245,721.878,148.489,721.132,148.489Z" fill="#ebebeb"/>
      <path id="Path_833" data-name="Path 833" d="M832.355,218.288c-8.3,0-147.9.918-156.676.639-.63-.018-.968-.945-.342-1.257,5.531-2.737,11.8-2.188,17.552-4.125,3.382-1.14,5.459-3.352,7.8-5.886a16.173,16.173,0,0,1,7.264-4.743,15.381,15.381,0,0,1,7.91-.249c2.833.675,5.292,2.3,7.993,3.32,6.707,2.53,13.225.126,18.013-4.837,3.949-4.09,7.832-7.949,13.2-10.152a17.52,17.52,0,0,1,13.984-.194c5.121,2.32,8.635,6.985,13.445,9.792,5.7,3.333,12.52,2.545,18.817,3.549,6.314,1.01,11.135,6.311,16.655,9.364A11.813,11.813,0,0,0,824,215.374c1.235-.033,2.446-.366,3.667-.519,1.9-.234,3.706-.18,4.986,1.406C832.963,216.65,832.9,218.288,832.355,218.288Z" fill="#ebebeb"/>
      <path id="Path_834" data-name="Path 834" d="M387.1,275.72c-8.3,0-147.9.918-156.676.639-.63-.018-.968-.945-.342-1.256,5.532-2.738,11.805-2.189,17.552-4.126,3.382-1.139,5.459-3.351,7.805-5.886a16.184,16.184,0,0,1,7.265-4.743,15.366,15.366,0,0,1,7.909-.248c2.833.675,5.292,2.3,7.994,3.319,6.706,2.531,13.224.126,18.012-4.836,3.949-4.09,7.832-7.949,13.2-10.152a17.522,17.522,0,0,1,13.985-.2c5.121,2.32,8.634,6.986,13.444,9.792,5.7,3.334,12.521,2.545,18.817,3.55,6.314,1.01,11.135,6.311,16.655,9.363a11.814,11.814,0,0,0,6.021,1.865c1.235-.032,2.447-.365,3.667-.518,1.9-.234,3.706-.18,4.986,1.406C387.7,274.081,387.642,275.72,387.1,275.72Z" fill="#ebebeb"/>
      <path id="Path_835" data-name="Path 835" d="M224.513,190.276c-8.3,0-147.9.918-156.677.639-.63-.018-.968-.945-.342-1.256,5.531-2.738,11.8-2.189,17.552-4.126,3.382-1.139,5.459-3.351,7.8-5.886a16.2,16.2,0,0,1,7.265-4.743,15.366,15.366,0,0,1,7.909-.248c2.833.675,5.292,2.3,7.994,3.319,6.707,2.531,13.224.126,18.012-4.837,3.95-4.089,7.832-7.948,13.2-10.152a17.524,17.524,0,0,1,13.984-.194c5.121,2.32,8.634,6.986,13.444,9.792,5.7,3.334,12.521,2.545,18.818,3.55,6.314,1.008,11.135,6.31,16.655,9.363a11.794,11.794,0,0,0,6.021,1.865c1.235-.032,2.446-.365,3.667-.518,1.9-.234,3.706-.18,4.986,1.4C225.121,188.636,225.058,190.276,224.513,190.276Z" fill="#ebebeb"/>
      <path id="Path_836" data-name="Path 836" d="M761.708,573.683a249.7,249.7,0,0,1,43.018,0A249.49,249.49,0,0,1,761.708,573.683Z" fill="#dbdbdb"/>
      <path id="Path_837" data-name="Path 837" d="M804.726,694.811c-71.053,1.2-150.042,1.166-221.144,0C654.7,693.644,733.659,693.614,804.726,694.811Z" fill="#dbdbdb"/>
      <path id="Path_838" data-name="Path 838" d="M339.849,628.956c-69.832,1.2-147.47,1.166-217.352,0C192.393,627.79,270,627.761,339.849,628.956Z" fill="#dbdbdb"/>
      <path id="Path_839" data-name="Path 839" d="M263.619,694.811c-38.088,1.209-76.435,1.209-114.532,0C187.187,693.6,225.527,693.6,263.619,694.811Z" fill="#dbdbdb"/>
      <path id="Path_840" data-name="Path 840" d="M506.427,732.46c-76.682,1.2-161.928,1.166-238.662,0C344.515,731.293,429.729,731.264,506.427,732.46Z" fill="#dbdbdb"/>
      <path id="Path_841" data-name="Path 841" d="M645.573,709.231c-38.088,1.209-76.435,1.209-114.532,0C569.142,708.021,607.482,708.021,645.573,709.231Z" fill="#dbdbdb"/>
      <path id="Path_842" data-name="Path 842" d="M491.275,672.152c-38.088,1.21-76.435,1.21-114.532,0C414.844,670.943,453.184,670.943,491.275,672.152Z" fill="#dbdbdb"/>
      <path id="Path_843" data-name="Path 843" d="M754.45,797.008c-38.088,1.209-76.435,1.209-114.532,0C678.019,795.8,716.359,795.8,754.45,797.008Z" fill="#dbdbdb"/>
      <path id="Path_844" data-name="Path 844" d="M697.185,775.269c-70.027,1.2-147.879,1.166-217.953,0C549.321,774.1,627.142,774.072,697.185,775.269Z" fill="#dbdbdb"/>
      <path id="Path_845" data-name="Path 845" d="M334.017,578.291c-38.088,1.21-76.436,1.21-114.533,0C257.585,577.08,295.925,577.08,334.017,578.291Z" fill="#dbdbdb"/>
      <path id="Path_846" data-name="Path 846" d="M779.356,583.11c-38.088,1.21-76.435,1.21-114.532,0C702.925,581.9,741.265,581.9,779.356,583.11Z" fill="#dbdbdb"/>
      <path id="Path_847" data-name="Path 847" d="M304,558.313c-63.09,1.2-133.236,1.167-196.369,0C170.775,557.147,240.892,557.118,304,558.313Z" fill="#dbdbdb"/>
      <path id="Path_848" data-name="Path 848" d="M751.309,667.282a356.512,356.512,0,0,1-51.2,0A355.938,355.938,0,0,1,751.309,667.282Z" fill="#dbdbdb"/>
      <path id="Path_849" data-name="Path 849" d="M350.3,747.23c-64.791,1.2-136.825,1.167-201.659,0C213.482,746.064,285.489,746.035,350.3,747.23Z" fill="#dbdbdb"/>
      <path id="Path_850" data-name="Path 850" d="M738.106,657c-85.5,1.2-180.542,1.166-266.1,0C557.58,655.833,652.588,655.8,738.106,657Z" fill="#dbdbdb"/>
      <path id="Path_851" data-name="Path 851" d="M432.641,786.092a356.212,356.212,0,0,1-51.2,0A356.512,356.512,0,0,1,432.641,786.092Z" fill="#dbdbdb"/>
      <path id="Path_852" data-name="Path 852" d="M82.357,544.036c235.536-1.1,499.753-1.111,735.286,0C582.108,545.144,317.891,545.137,82.357,544.036Z" fill="#dbdbdb"/>
      <path id="Path_853" data-name="Path 853" d="M411.277,71.375a14.944,14.944,0,0,1,0,20.588,13.326,13.326,0,0,1-9.726,4.354,13.739,13.739,0,0,1-9.97-4.354,15.168,15.168,0,0,1,0-20.588,13.575,13.575,0,0,1,9.97-4.354A13.172,13.172,0,0,1,411.277,71.375Zm-.529,10.294a10.536,10.536,0,0,0-2.767-7.121,8.772,8.772,0,0,0-6.428-2.889,8.866,8.866,0,0,0-6.593,2.889,10.357,10.357,0,0,0-2.767,7.121,10.176,10.176,0,0,0,2.767,7.079,8.9,8.9,0,0,0,6.593,2.93,8.807,8.807,0,0,0,6.428-2.93A10.362,10.362,0,0,0,410.748,81.669Z" fill="#c7c7c7"/>
      <path id="Path_854" data-name="Path 854" d="M445.46,71.375a14.947,14.947,0,0,1,0,20.588,13.324,13.324,0,0,1-9.725,4.354,13.739,13.739,0,0,1-9.97-4.354,15.165,15.165,0,0,1,0-20.588,13.575,13.575,0,0,1,9.97-4.354A13.17,13.17,0,0,1,445.46,71.375Zm-.529,10.294a10.54,10.54,0,0,0-2.766-7.121,8.774,8.774,0,0,0-6.43-2.889,8.865,8.865,0,0,0-6.593,2.889,10.353,10.353,0,0,0-2.767,7.121,10.171,10.171,0,0,0,2.767,7.079,8.7,8.7,0,0,0,13.023,0A10.357,10.357,0,0,0,444.931,81.669Z" fill="#c7c7c7"/>
      <path id="Path_855" data-name="Path 855" d="M467.111,85.249h-5v8.829a2.259,2.259,0,0,1-4.518,0V70.072a2.231,2.231,0,0,1,2.239-2.237h7.283a8.708,8.708,0,1,1,0,17.415Zm-5-4.516h5a4.191,4.191,0,1,0,0-8.383h-5Z" fill="#c7c7c7"/>
      <path id="Path_856" data-name="Path 856" d="M480.418,89.238a2.121,2.121,0,0,1,2.97-.284c1.791,1.465,4.884,3.173,7.773,3.134a8.776,8.776,0,0,0,5.086-1.5,3.665,3.665,0,0,0,1.75-2.93,2.31,2.31,0,0,0-.367-1.3,3.841,3.841,0,0,0-1.221-1.222,16.294,16.294,0,0,0-5.574-1.912h-.083a22.126,22.126,0,0,1-5.249-1.586,8.737,8.737,0,0,1-3.783-3.175,6.234,6.234,0,0,1-.936-3.335,7.517,7.517,0,0,1,3.256-5.942,12.041,12.041,0,0,1,7.04-2.156c3.906,0,6.8,1.913,8.872,3.256a2.1,2.1,0,0,1,.569,2.889,2.056,2.056,0,0,1-2.889.61c-2.076-1.384-4.07-2.6-6.551-2.6a7.767,7.767,0,0,0-4.557,1.384,3.232,3.232,0,0,0-1.546,2.563,1.982,1.982,0,0,0,.284,1.139,3.9,3.9,0,0,0,1.1,1.057,14,14,0,0,0,5.087,1.791h.082a23.916,23.916,0,0,1,5.615,1.71,9.511,9.511,0,0,1,4.069,3.377,6.6,6.6,0,0,1,.978,3.46,7.875,7.875,0,0,1-3.5,6.307,12.732,12.732,0,0,1-7.528,2.32,17.545,17.545,0,0,1-10.417-4.07A2.163,2.163,0,0,1,480.418,89.238Z" fill="#c7c7c7"/>
      <path id="Path_857" data-name="Path 857" d="M508.011,86.513V70.074a2.256,2.256,0,0,1,2.239-2.237,2.223,2.223,0,0,1,2.2,2.237V86.513a2.2,2.2,0,0,1-2.2,2.237A2.233,2.233,0,0,1,508.011,86.513Zm2.239,9.806a2.232,2.232,0,0,1-2.239-2.239v-.814a2.258,2.258,0,0,1,2.239-2.237,2.223,2.223,0,0,1,2.2,2.237v.814A2.2,2.2,0,0,1,510.25,96.319Z" fill="#c7c7c7"/>
      <path id="Path_858" data-name="Path 858" d="M799.652,334.827A21.4,21.4,0,0,1,777.887,356.2H774v29.538a21.371,21.371,0,1,1-42.741,0V356.2H608.836a19.054,19.054,0,0,1-13.216-4.664c-9.714-7.383-10.882-20.6-3.492-29.923L735.916,142.846c.389,0,.389-.389.778-.776a5.366,5.366,0,0,0,1.166-1.555,4.179,4.179,0,0,0,1.946-1.164c.389-.389,1.166-.778,1.557-1.167a4.158,4.158,0,0,1,2.324-.777c.388-.776.777-1.165,1.557-1.165.388-.389,1.166-.389,2.334-.779a2.343,2.343,0,0,0,1.557-.389h6.6a3.509,3.509,0,0,0,1.946.389c.389.388,1.557.388,2.335.779.389,0,1.166.389,1.557.389.777.776,1.546,1.164,1.935,1.553.777.389,1.166.778,1.944,1.167a.381.381,0,0,1,.389.388c.388,0,1.166.387,1.166.776l1.555,1.555c.389.387.778,1.165,1.167,1.554a10.783,10.783,0,0,1,1.557,1.942,2.956,2.956,0,0,0,.777,1.557,16.119,16.119,0,0,1,.778,2.331c0,.387.38,1.165.38,1.553a4.212,4.212,0,0,1,.388,2.331c0,.778.389,1.167.389,1.943V313.452h3.89A21.649,21.649,0,0,1,799.652,334.827Zm-68.4-117.365-77.344,95.992h77.344Z" fill="#ffc727"/>
      <path id="Path_859" data-name="Path 859" d="M312.656,334.827A21.4,21.4,0,0,1,290.892,356.2h-3.884v29.538a21.373,21.373,0,0,1-42.747,0V356.2H121.842a19.049,19.049,0,0,1-13.214-4.664c-9.714-7.383-10.879-20.6-3.495-29.923l143.79-178.767c.389,0,.389-.389.778-.776a5.332,5.332,0,0,0,1.166-1.555,4.172,4.172,0,0,0,1.941-1.164c.389-.389,1.166-.778,1.557-1.167a4.161,4.161,0,0,1,2.329-.777c.389-.776.778-1.165,1.557-1.165.389-.389,1.166-.389,2.335-.779a2.327,2.327,0,0,0,1.551-.389h6.61a3.5,3.5,0,0,0,1.944.389c.385.388,1.551.388,2.329.779.389,0,1.166.389,1.557.389.778.776,1.552,1.164,1.94,1.553.778.389,1.167.778,1.944,1.167a.381.381,0,0,1,.389.388c.389,0,1.167.387,1.167.776.777.778,1.162,1.167,1.551,1.555s.778,1.165,1.167,1.554a10.714,10.714,0,0,1,1.555,1.942,2.964,2.964,0,0,0,.777,1.557,16.119,16.119,0,0,1,.778,2.331c0,.387.383,1.165.383,1.553a4.2,4.2,0,0,1,.389,2.331c0,.778.389,1.167.389,1.943V313.452h3.884A21.65,21.65,0,0,1,312.656,334.827Zm-68.4-117.365-77.337,95.992H244.26Z" fill="#ffc727"/>
      <g id="Group_1741" data-name="Group 1741" opacity="0.2">
        <path id="Path_860" data-name="Path 860" d="M565.3,271.093c0,41.481-10.937,79.747-30.523,108.912-19.156,28.734-49.225,50.607-84.321,50.607-36,0-65.619-21.873-84.775-50.607-20.039-29.163-30.522-67.43-30.974-108.912.454-41.935,10.937-79.748,30.974-108.934,19.156-29.164,48.773-50.584,84.775-50.584,35.1,0,65.165,21.42,84.321,50.584C554.361,191.345,565.3,229.158,565.3,271.093Z" fill="#ffc727"/>
      </g>
      <g id="Group_1742" data-name="Group 1742" opacity="0.2">
        <path id="Path_861" data-name="Path 861" d="M548.833,271.093c0,35.559-9.374,68.36-26.165,93.36-16.419,24.631-42.2,43.38-72.281,43.38-30.861,0-56.248-18.749-72.669-43.38-17.178-25-26.165-57.8-26.552-93.36.389-35.946,9.374-68.361,26.552-93.379,16.419-25,41.808-43.36,72.669-43.36,30.086,0,55.862,18.362,72.281,43.36C539.459,202.732,548.833,235.147,548.833,271.093Z" fill="#ffc727"/>
      </g>
      <g id="Group_1743" data-name="Group 1743" opacity="0.2">
        <path id="Path_862" data-name="Path 862" d="M522.106,271.093c0,25.941-6.84,49.874-19.089,68.112-11.981,17.969-30.785,31.649-52.735,31.649-22.514,0-41.038-13.68-53.017-31.649-12.531-18.24-19.089-42.171-19.371-68.112.282-26.226,6.84-49.875,19.371-68.127,11.979-18.239,30.5-31.635,53.017-31.635,21.95,0,40.754,13.4,52.735,31.635C515.266,221.218,522.106,244.867,522.106,271.093Z" fill="#ffc727"/>
      </g>
      <path id="Path_863" data-name="Path 863" d="M525.267,625.739H374.736l4.221-60.341,4.221-60.341,4.221-60.342,4.223-60.343,4.221-60.354H504.16l4.221,60.354,4.223,60.343,4.221,60.342,4.221,60.341Z" fill="#ffc727"/>
      <path id="Path_864" data-name="Path 864" d="M508.38,384.372H391.621l4.221-60.354H504.159Z" opacity="0.1"/>
      <path id="Path_865" data-name="Path 865" d="M525.267,625.739H374.736l4.221-60.341H521.046Z" opacity="0.1"/>
      <path id="Path_866" data-name="Path 866" d="M516.825,505.057H383.179l4.221-60.342H512.6Z" opacity="0.1"/>
      <path id="Path_867" data-name="Path 867" d="M395.843,324.018l27.214.007,36.96,301.714H374.736Z" opacity="0.1"/>
      <path id="Path_868" data-name="Path 868" d="M450,348.865a7.286,7.286,0,0,0-7.286,7.287l-1.539,15.825h17.651l-1.539-15.825A7.288,7.288,0,0,0,450,348.865Z" fill="#263238"/>
      <path id="Path_869" data-name="Path 869" d="M479.443,405.43a7.286,7.286,0,0,0-7.287,7.287l-1.539,15.825h17.651l-1.539-15.825A7.286,7.286,0,0,0,479.443,405.43Z" fill="#263238"/>
      <path id="Path_870" data-name="Path 870" d="M406.006,465.271a7.285,7.285,0,0,0-7.286,7.287l-1.539,15.825h17.65l-1.539-15.825A7.285,7.285,0,0,0,406.006,465.271Z" fill="#263238"/>
      <path id="Path_871" data-name="Path 871" d="M450,525.341a7.285,7.285,0,0,0-7.286,7.286l-1.539,15.826h17.651l-1.539-15.826A7.285,7.285,0,0,0,450,525.341Z" fill="#263238"/>
      <path id="Path_872" data-name="Path 872" d="M482.8,237.011H417.2a32.8,32.8,0,0,1,26.376-32.167,32.277,32.277,0,0,1,6.426-.636,32.813,32.813,0,0,1,32.716,30.409C482.776,235.408,482.8,236.205,482.8,237.011Z" fill="#ffc727"/>
      <path id="Path_873" data-name="Path 873" d="M482.8,237.008H417.2a32.669,32.669,0,0,1,.621-6.37l63.421-3.626a32.157,32.157,0,0,1,1.478,7.611C482.779,235.406,482.8,236.2,482.8,237.008Z" opacity="0.1"/>
      <path id="Path_874" data-name="Path 874" d="M421.812,277.054V235.08H417.2v41.974Z" fill="#c7c7c7"/>
      <path id="Path_875" data-name="Path 875" d="M434.009,277.054V235.08H429.4v41.974Z" fill="#c7c7c7"/>
      <path id="Path_876" data-name="Path 876" d="M446.209,277.054V235.08H441.6v41.974Z" fill="#c7c7c7"/>
      <path id="Path_877" data-name="Path 877" d="M458.406,277.054V235.08h-4.613v41.974Z" fill="#c7c7c7"/>
      <path id="Path_878" data-name="Path 878" d="M470.6,277.054V235.08h-4.614v41.974Z" fill="#c7c7c7"/>
      <path id="Path_879" data-name="Path 879" d="M486.683,258.08H413.316v3.563h73.367Z" fill="#c7c7c7"/>
      <path id="Path_880" data-name="Path 880" d="M482.8,277.054V235.08h-4.614v41.974Z" fill="#c7c7c7"/>
      <path id="Path_881" data-name="Path 881" d="M489.457,277.054H410.54V315h78.917Z" fill="#ffc727"/>
      <path id="Path_882" data-name="Path 882" d="M489.459,277.054v7.135L410.54,297V277.054Z" opacity="0.1"/>
      <g id="Group_1744" data-name="Group 1744" opacity="0.05">
        <path id="Path_883" data-name="Path 883" d="M504.989,521.518H487.348v7.455h17.641Z"/>
        <path id="Path_884" data-name="Path 884" d="M495.15,530.919H477.508v7.456H495.15Z"/>
        <path id="Path_885" data-name="Path 885" d="M439.9,411.314H422.255v7.456H439.9Z"/>
        <path id="Path_886" data-name="Path 886" d="M430.054,420.716H412.412v7.455h17.642Z"/>
        <path id="Path_887" data-name="Path 887" d="M420.251,411.314H402.609v7.456h17.642Z"/>
        <path id="Path_888" data-name="Path 888" d="M458.168,217.766h-13.5v5.706h13.5Z"/>
        <path id="Path_889" data-name="Path 889" d="M450.639,224.96h-13.5v5.706h13.5Z"/>
        <path id="Path_890" data-name="Path 890" d="M443.137,217.766h-13.5v5.706h13.5Z"/>
        <path id="Path_891" data-name="Path 891" d="M410.54,527.94H392.9V535.4H410.54Z"/>
        <path id="Path_892" data-name="Path 892" d="M484.4,348.865H466.754v7.456H484.4Z"/>
        <path id="Path_893" data-name="Path 893" d="M494.237,358.267H476.6v7.455h17.642Z"/>
        <path id="Path_894" data-name="Path 894" d="M467.642,287.6H450v7.455h17.642Z"/>
        <path id="Path_895" data-name="Path 895" d="M477.484,297H459.842v7.456h17.642Z"/>
        <path id="Path_896" data-name="Path 896" d="M466.371,461.943H448.729V469.4h17.642Z"/>
      </g>
      <path id="Path_897" data-name="Path 897" d="M516.062,311.161H383.94v25.727H516.062Z" fill="#455a64"/>
      <path id="Path_898" data-name="Path 898" d="M494.127,271.093H405.873v9.288h88.254Z" fill="#455a64"/>
      <path id="Path_899" data-name="Path 899" d="M486.683,235.08H413.316V242.8h73.367Z" fill="#455a64"/>
      <path id="Path_900" data-name="Path 900" d="M495.515,564.725c-2.833.1-5.993.261-8.338-1.575-2.165-1.7-4.1-4.223-3.811-7.125.083-.828.272-1.337,1.16-.984,1.35.538,2.392,2.028,3.328,3.074a28.614,28.614,0,0,0,3.929,3.726c1.008.772,2.094,1.442,3.121,2.189.13.092.26.187.386.286.048.034.1.07.145.11.026,0,.054,0,.081,0a.143.143,0,0,1,.117.061.105.105,0,0,1,.022.048A.15.15,0,0,1,495.515,564.725Z" fill="#263238"/>
      <path id="Path_901" data-name="Path 901" d="M495.657,564.538c-2.489-.044-5.177.07-7.169-1.62a11.591,11.591,0,0,1-2.313-2.81c-.288-.468-1.151-1.865-.794-2.421.648-1.006,3.614,3.094,4.025,3.486a12.152,12.152,0,0,0,5.5,2.857c.129.092.259.187.385.286a13.55,13.55,0,0,1-4.129-1.586c-1.768-1.054-2.751-2.611-4.133-4.068-.3-.315-1.2-1.373-1.539-.714-.223.434.61,1.8.788,2.1a11.428,11.428,0,0,0,2.187,2.669c1.986,1.736,4.66,1.674,7.17,1.777A.138.138,0,0,1,495.657,564.538Z" fill="#fff"/>
      <path id="Path_902" data-name="Path 902" d="M497.079,566.453c-.025.108-.045.218-.068.327,0,0,0,.006,0,.011a.075.075,0,0,1-.05.058.121.121,0,0,1-.149-.058.087.087,0,0,1,0-.068c0-.014.009-.029.014-.045.011-.032.02-.065.031-.1l-.006-.007c0-.009-.005-.022-.007-.033-.5-1.874-.7-3.823-1.226-5.7-.5-1.789-1.132-3.544-1.495-5.371-.231-1.152-1.032-6.93,1.515-6.21,1.129.32,1.9,1.953,2.329,2.931a11.863,11.863,0,0,1,.938,4.152C499.085,559.868,497.794,563.074,497.079,566.453Z" fill="#263238"/>
      <path id="Path_903" data-name="Path 903" d="M497.894,559.256a13.877,13.877,0,0,0-.408-3.92c-.115-.443-.668-2.569-1.388-2.516-.464.03-.544.948-.583,1.251a12.213,12.213,0,0,0,.506,3.85,53.36,53.36,0,0,1,.936,7.718c-.022.162-.049.33-.067.492-.022.136-.036.271-.052.408,0,.049-.013.092-.018.141s-.009.07-.013.109a.121.121,0,0,0,.15.058c.012-.106.03-.211.043-.317.005.088.005.171.009.259,0-.005,0-.005,0-.009.018-.091.036-.18.053-.268,0-.021.009-.039.012-.061,0-.146,0-.29-.009-.43A57.355,57.355,0,0,0,497.894,559.256Zm-.86,5.836c-.07-1.516-.22-3.026-.434-4.527-.171-1.211-.4-2.41-.653-3.6a12.433,12.433,0,0,1-.326-2.047c-.022-.527.052-2.477,1.058-1.269.724.878.9,2.745.989,3.82a19.638,19.638,0,0,1-.071,3.587C497.459,562.405,497.236,563.749,497.034,565.092Z" fill="#fff"/>
      <path id="Path_904" data-name="Path 904" d="M498.6,574.225a.923.923,0,0,1-.106.013c-2.59-.132-6.041.111-8.194-1.6-1.591-1.266-3.155-3.768-2.651-5.89.572-2.392,3.8.479,4.658,1.17a79.075,79.075,0,0,1,6.347,6.174c.009.016.023.031.032.047a.063.063,0,0,0,.006.009C498.717,574.189,498.662,574.213,498.6,574.225Z" fill="#263238"/>
      <path id="Path_905" data-name="Path 905" d="M498.693,574.15c-.149-.092-.3-.184-.448-.281-1.7-1.071-3.362-2.218-4.957-3.442-.4-.308-3.319-2.9-3.759-1.976-.262.561.7,1.7,1.005,2.09A7.975,7.975,0,0,0,492.5,572.3c1.726,1.077,3.82,1.309,5.775,1.827.091.018.185.044.277.071a.421.421,0,0,0,.048.03h.006C498.663,574.211,498.715,574.189,498.693,574.15Zm-5.124-1.475a8.053,8.053,0,0,1-2.236-1.51c-.434-.412-1.967-1.962-1.559-2.6.214-.338.4-.158.808.043a5.067,5.067,0,0,1,.549.317c.436.286.836.619,1.239.94.711.57,1.431,1.119,2.169,1.656,1.2.878,2.441,1.7,3.706,2.489A39.8,39.8,0,0,1,493.569,572.675Z" fill="#fff"/>
      <path id="Path_906" data-name="Path 906" d="M503.335,568.89a15.307,15.307,0,0,1-4.438,7.753.17.17,0,0,1-.049.029.119.119,0,0,1-.133-.049.11.11,0,0,1,.012-.149c.045-.042.087-.089.132-.134.428-3.52.9-7.021,1.263-10.551.085-.832.737-6.127,2.364-5.265,1,.533,1.071,2.7,1.157,3.677A15.326,15.326,0,0,1,503.335,568.89Z" fill="#263238"/>
      <path id="Path_907" data-name="Path 907" d="M502.392,564.17c-.088-.293-.241-.6-.57-.39-.632.4-.882,2.885-.989,3.575-.433,2.84-1.107,5.571-1.791,8.35-.057.232-.113.47-.171.707l-.158.211a.114.114,0,0,0,.131.048c.009-.021.013-.048.022-.07.07-.092.147-.189.212-.286v-.005a18.091,18.091,0,0,0,2.564-5,17.264,17.264,0,0,0,.754-3.481A9.931,9.931,0,0,0,502.392,564.17Zm-3.323,11.952c-.03.049-.064.092-.1.141.031-.1.063-.189.09-.286a51.383,51.383,0,0,0,1.584-6.464c.189-1.111.308-2.23.537-3.334.1-.464.325-1.8.71-2.01s.38.3.418.6c.027.216.027.606.031.808A17.869,17.869,0,0,1,499.069,576.122Z" fill="#fff"/>
      <path id="Path_908" data-name="Path 908" d="M499.325,584.235h-.518c-.009-.457-.018-.912-.031-1.366-.061-1.84-.137-3.679-.246-5.519-.062-1.049-.137-2.09-.247-3.121a.948.948,0,0,1-.009-.106c-.013-.083-.022-.168-.031-.254s-.021-.18-.036-.272a22.225,22.225,0,0,0-1.778-6.762c-.329-.717-.689-1.413-1.067-2.108-.036-.067-.076-.132-.11-.2a.274.274,0,0,0-.031-.052c-.036-.071-.075-.137-.113-.207l-.088-.153c-1.2-2.108-2.569-4.122-3.869-6.151-.372-.58-.747-1.163-1.11-1.748a.692.692,0,0,1-.067-.106,1.277,1.277,0,0,1-.083-.128c-1.634-2.577-3.24-5.177-4.935-7.706-.067-.091.088-.176.149-.082,1.147,1.677,2.331,3.328,3.508,4.987.159.22.312.443.47.663.312.439.619.873.927,1.312.616.878,1.221,1.757,1.813,2.648a74.334,74.334,0,0,1,4.768,7.715c.1.2.2.4.293.61.062.128.123.255.177.381q.105.219.2.443a23.865,23.865,0,0,1,1.743,8.158c.012.192.027.39.036.588,0,.089.012.18.018.272a1.2,1.2,0,0,0,.009.146c0,.061.005.122.009.189v.005c0,.044.005.092.005.141.009.167.013.333.022.5.074,1.839.122,3.679.162,5.515C499.282,583.06,499.3,583.648,499.325,584.235Z" fill="#263238"/>
      <path id="Path_909" data-name="Path 909" d="M483.867,550.908c-1.419-1.906-3.235-5.841-1.145-7.886a2.227,2.227,0,0,1,2.963-.219,6.464,6.464,0,0,1,1.956,3.556c.958,3.336,1.593,6.736,2.789,10.005.021.02.1.279.129.351s-.084.095-.108.03c-.039-.106-.079-.212-.119-.32C488.073,554.789,485.546,553.171,483.867,550.908Z" fill="#263238"/>
      <path id="Path_910" data-name="Path 910" d="M490.448,556.373c-.013-.018-.022-.04-.037-.058a23.531,23.531,0,0,1-1.326-2.468,47.482,47.482,0,0,1-2.038-5.461c-.228-.716-1.247-4.219-2.5-2.824a3.141,3.141,0,0,0-.369,2.349,8.841,8.841,0,0,0,1.089,3.285,16.024,16.024,0,0,0,4.707,4.917c.083.067.167.128.25.189.018.031.036.058.052.089a.356.356,0,0,0,.036.057.067.067,0,0,0,.031.027.078.078,0,0,0,.11-.048A.06.06,0,0,0,490.448,556.373Zm-.553-.387a18.736,18.736,0,0,1-3.991-4.005,9.978,9.978,0,0,1-1.3-2.652,7.993,7.993,0,0,1-.281-1.287,5.873,5.873,0,0,1-.058-.983c.022-.72.321-1.506.747-1.58.528-.1.7.211,1.05.817a5.6,5.6,0,0,1,.311.632c.232.54.412,1.1.589,1.66.293.927.592,1.848.927,2.761.223.619.466,1.233.729,1.836a24.2,24.2,0,0,0,1.555,3.02C490.079,556.135,489.987,556.059,489.895,555.986Z" fill="#fff"/>
      <path id="Path_911" data-name="Path 911" d="M338.38,572.371c-2.452.6-5.177,1.3-7.551.121-2.191-1.089-4.329-2.947-4.6-5.528-.076-.736,0-1.215.833-1.066,1.275.227,2.45,1.34,3.453,2.085a25.45,25.45,0,0,0,4.093,2.545c1.017.493,2.084.88,3.114,1.35.129.056.259.117.387.18l.147.068a.4.4,0,0,0,.071-.012.128.128,0,0,1,.111.032.152.152,0,0,1,.029.038A.131.131,0,0,1,338.38,572.371Z" fill="#263238"/>
      <path id="Path_912" data-name="Path 912" d="M338.47,572.184c-2.178.409-4.5.988-6.539-.128a10.282,10.282,0,0,1-2.52-2.036c-.335-.356-1.337-1.42-1.125-1.969.385-.993,3.7,2.05,4.135,2.319a10.821,10.821,0,0,0,5.3,1.5c.13.056.259.117.387.18a12.121,12.121,0,0,1-3.884-.642c-1.73-.6-2.866-1.784-4.333-2.806-.317-.222-1.292-.983-1.47-.348-.117.418.855,1.462,1.063,1.685a10.27,10.27,0,0,0,2.384,1.937c2.041,1.155,4.363.623,6.57.264A.169.169,0,0,1,338.47,572.184Z" fill="#fff"/>
      <path id="Path_913" data-name="Path 913" d="M340.053,573.6c0,.1,0,.2,0,.3a.016.016,0,0,1,0,.009.066.066,0,0,1-.034.059.109.109,0,0,1-.141-.023.083.083,0,0,1-.014-.06c0-.012,0-.025.005-.041,0-.031.006-.06.009-.09a.023.023,0,0,0-.007-.006c0-.009-.009-.018-.012-.027-.774-1.544-1.293-3.207-2.09-4.748-.762-1.469-1.622-2.887-2.266-4.415-.407-.963-2.141-5.858.208-5.687,1.041.078,2.007,1.363,2.556,2.137a10.614,10.614,0,0,1,1.563,3.452C340.62,567.5,340.069,570.524,340.053,573.6Z" fill="#263238"/>
      <path id="Path_914" data-name="Path 914" d="M339.473,567.178a12.32,12.32,0,0,0-1.059-3.344c-.18-.366-1.042-2.121-1.661-1.944-.4.11-.3.923-.285,1.2a10.9,10.9,0,0,0,1.131,3.267,47.4,47.4,0,0,1,2.2,6.561c.01.146.016.295.03.441.006.122.018.243.027.365.006.044.006.083.011.126s.005.063.009.1a.108.108,0,0,0,.14.023c-.007-.094-.01-.189-.018-.284.02.075.035.147.054.225,0,0,0-.006,0-.009,0-.083,0-.164,0-.243V573.6c-.025-.126-.055-.252-.084-.375A51.511,51.511,0,0,0,339.473,567.178Zm.3,5.242c-.333-1.309-.733-2.6-1.19-3.868-.367-1.026-.781-2.031-1.217-3.026a11.325,11.325,0,0,1-.65-1.726c-.113-.456-.4-2.169.7-1.3a7.045,7.045,0,0,1,1.546,3.153,17.308,17.308,0,0,1,.582,3.139C339.658,570,339.7,571.212,339.768,572.42Z" fill="#fff"/>
      <path id="Path_915" data-name="Path 915" d="M342.774,580.1a.726.726,0,0,1-.09.031c-2.28.349-5.245,1.179-7.43.072-1.615-.819-3.425-2.718-3.368-4.658.07-2.187,3.4-.265,4.27.185a70.254,70.254,0,0,1,6.638,4.246c.013.013.025.022.038.034l.005.007C342.866,580.05,342.823,580.079,342.774,580.1Z" fill="#263238"/>
      <path id="Path_916" data-name="Path 916" d="M342.837,580.019c-.146-.054-.293-.108-.441-.165-1.677-.628-3.33-1.33-4.939-2.113-.407-.2-3.414-1.935-3.63-1.05-.13.537.914,1.359,1.251,1.642a7.094,7.094,0,0,0,2.03,1.179c1.7.628,3.564.455,5.36.558a2.419,2.419,0,0,1,.254.012.172.172,0,0,0,.047.018h0C342.821,580.079,342.862,580.05,342.837,580.019Zm-4.732-.367a7.122,7.122,0,0,1-2.219-.916c-.454-.283-2.067-1.359-1.825-1.987.126-.333.316-.209.712-.106a4.311,4.311,0,0,1,.535.178c.43.171.839.39,1.247.6.722.371,1.449.72,2.187,1.055,1.206.551,2.434,1.048,3.678,1.507A35.772,35.772,0,0,1,338.105,579.652Z" fill="#fff"/>
      <path id="Path_917" data-name="Path 917" d="M345.942,574.6a13.639,13.639,0,0,1-2.48,7.555.1.1,0,0,1-.038.032.1.1,0,0,1-.124-.018.1.1,0,0,1-.015-.133c.031-.045.06-.092.092-.138-.257-3.147-.471-6.282-.788-9.427-.076-.74-.456-5.474,1.116-5.013.972.284,1.418,2.164,1.668,3A13.706,13.706,0,0,1,345.942,574.6Z" fill="#263238"/>
      <path id="Path_918" data-name="Path 918" d="M344.277,570.656c-.129-.241-.316-.477-.567-.238-.48.457-.252,2.673-.221,3.292.13,2.555.034,5.057-.065,7.6-.007.212-.014.43-.021.646-.033.07-.067.142-.1.212a.1.1,0,0,0,.124.018c0-.021,0-.045.007-.064.045-.094.092-.191.133-.287v0a16.07,16.07,0,0,0,1.34-4.815,15.356,15.356,0,0,0,.034-3.172A8.9,8.9,0,0,0,344.277,570.656Zm-.756,11.014c-.018.047-.041.092-.059.14.009-.09.02-.176.025-.264a45.332,45.332,0,0,0,.223-5.919c-.034-1-.131-2-.129-3,0-.423-.038-1.624.259-1.881s.383.2.472.45c.061.183.131.524.171.7A15.88,15.88,0,0,1,343.521,581.67Z" fill="#fff"/>
      <path id="Path_919" data-name="Path 919" d="M345.2,588.7l-.452.094c-.09-.4-.178-.794-.272-1.185-.383-1.593-.777-3.184-1.2-4.768-.241-.9-.493-1.8-.774-2.677a.722.722,0,0,1-.027-.09c-.027-.07-.049-.142-.072-.216s-.052-.153-.079-.23a19.88,19.88,0,0,0-2.761-5.576c-.416-.566-.855-1.109-1.309-1.646-.043-.05-.088-.1-.131-.153a.26.26,0,0,0-.036-.039c-.044-.054-.09-.106-.137-.16l-.1-.119c-1.422-1.622-2.977-3.134-4.474-4.669-.429-.438-.859-.881-1.282-1.325a.627.627,0,0,1-.076-.079,1.238,1.238,0,0,1-.1-.1c-1.886-1.955-3.753-3.933-5.683-5.834-.073-.068.045-.169.116-.1,1.3,1.257,2.628,2.484,3.952,3.719.177.164.351.331.53.493.351.328.7.652,1.042.98.693.655,1.379,1.312,2.055,1.983a65.823,65.823,0,0,1,5.539,5.872c.124.158.245.317.365.479.076.1.153.2.222.3.088.114.171.232.255.351a21.232,21.232,0,0,1,2.981,6.8c.047.165.094.336.137.505.02.076.043.155.065.234.009.042.021.083.034.125s.025.106.041.163v0c.008.038.02.079.029.122.038.144.072.288.11.436.394,1.591.767,3.186,1.13,4.779C344.948,587.68,345.073,588.19,345.2,588.7Z" fill="#263238"/>
      <path id="Path_920" data-name="Path 920" d="M325.748,562.414c-1.577-1.408-3.866-4.513-2.412-6.669a1.98,1.98,0,0,1,2.543-.722,5.761,5.761,0,0,1,2.344,2.75c1.433,2.736,2.6,5.586,4.225,8.223.021.012.138.225.176.282s-.056.1-.09.045l-.16-.257C330.109,565.043,327.618,564.084,325.748,562.414Z" fill="#263238"/>
      <path id="Path_921" data-name="Path 921" d="M332.463,566c-.014-.012-.027-.03-.041-.043a21.065,21.065,0,0,1-1.6-1.913,42.26,42.26,0,0,1-2.755-4.4c-.328-.583-1.844-3.454-2.684-2.014a2.786,2.786,0,0,0,.1,2.113,7.856,7.856,0,0,0,1.537,2.668A14.315,14.315,0,0,0,332,565.855c.085.043.168.081.252.121.022.023.042.043.061.066a.289.289,0,0,0,.042.044.07.07,0,0,0,.032.018.071.071,0,0,0,.087-.062A.042.042,0,0,0,332.463,566Zm-.551-.239a16.7,16.7,0,0,1-4.2-2.776,8.816,8.816,0,0,1-1.608-2.079,7.18,7.18,0,0,1-.475-1.071,5.115,5.115,0,0,1-.225-.848c-.11-.631.009-1.369.367-1.512.443-.178.65.058,1.062.524a4.843,4.843,0,0,1,.386.495c.3.429.558.888.81,1.341.423.754.847,1.505,1.3,2.241.306.5.626.992.965,1.469a21.759,21.759,0,0,0,1.9,2.354C332.1,565.857,332.006,565.81,331.912,565.76Z" fill="#fff"/>
      <path id="Path_922" data-name="Path 922" d="M521.838,549.653c-.745,2.693-1.672,5.332-2.626,7.955-.538,1.488-1.1,2.97-1.636,4.464-.593,1.641-1.35,3.292-1.145,5.068,0,0,.009,0,.009.006a1.2,1.2,0,0,1-.016.239.227.227,0,0,1-.024.027.207.207,0,0,1-.345-.115c-.006-.041-.009-.079-.013-.117-.007-.014-.016-.027-.022-.04a6.789,6.789,0,0,1-.381-1.51,36.66,36.66,0,0,1-.776-4.167,34.7,34.7,0,0,1-.083-8.658,29.287,29.287,0,0,1,1.924-7.5c.783-1.921,1.919-4.788,3.629-6.093,1.55-1.177,2.344,1.2,2.567,2.369C523.4,544.244,522.544,547.1,521.838,549.653Z" fill="#455a64"/>
      <path id="Path_923" data-name="Path 923" d="M520.243,543.47c-1-.147-2.2,2.976-2.769,4.319a28.141,28.141,0,0,0-1.848,6.6,36.419,36.419,0,0,0,.3,12.26c.029.16.056.327.09.488.006.014.016.028.02.041.007.034.009.072.016.113a.208.208,0,0,0,.348.117c-.015-.347-.017-.685,0-1.029.007-.312.02-.616.045-.918a48.191,48.191,0,0,1,2.075-9.8C519.57,551.907,521.567,543.672,520.243,543.47Zm-4.079,22.61c-.014.454-.009.9.009,1.35-.056-.333-.11-.668-.159-1a40.348,40.348,0,0,1-.327-10.825,28.757,28.757,0,0,1,1.332-5.963,26.954,26.954,0,0,1,1.244-3.04c.2-.413,1.33-3.008,1.928-2.781.419.16.16,2.608.16,2.66-.047.488-.119.979-.2,1.469-.162,1-.38,2-.612,2.99-.513,2.143-1.145,4.264-1.727,6.391A38.261,38.261,0,0,0,516.164,566.08Z" fill="#fff"/>
      <path id="Path_924" data-name="Path 924" d="M536.472,559.559c-2.367,3.31-5.865,5.6-9.407,7.475-1.9,1.005-3.843,1.923-5.764,2.88a28.444,28.444,0,0,0-5.023,2.8,2.412,2.412,0,0,0-.2.16,7.432,7.432,0,0,0-1.127,1.152.115.115,0,0,1-.094.043,1.548,1.548,0,0,1-.084.149.037.037,0,0,1-.069-.025c.013-.056.035-.119.047-.174a.048.048,0,0,1,.006-.015.111.111,0,0,1,.01-.138.279.279,0,0,1,.042-.053c.016-.055.03-.115.048-.172,1.143-4.112,4.7-7.91,7.65-10.766a22.5,22.5,0,0,1,10.473-6.165c1.017-.227,3.351-.924,4.214,0C537.98,557.564,536.974,558.857,536.472,559.559Z" fill="#455a64"/>
      <path id="Path_925" data-name="Path 925" d="M533.632,559.156c-.744-1-3.631.772-4.349,1.181a43.443,43.443,0,0,0-6.079,4.381,38.617,38.617,0,0,0-8.238,8.816l0,.006c-.038.034-.069.068-.106.1-.022.062-.038.119-.053.175a.286.286,0,0,0-.041.052.113.113,0,0,0-.007.142c.052-.045.1-.09.149-.127.376-.348.77-.681,1.172-1.007.066-.055.133-.109.2-.158a83.089,83.089,0,0,1,8.984-5.841,40.081,40.081,0,0,0,6.049-4.36C531.785,562.093,534.256,560,533.632,559.156Zm-1.088,1.8c-2.7,3.274-6.84,5.344-10.413,7.491a43.732,43.732,0,0,0-6.895,4.848,41.142,41.142,0,0,1,7.583-7.9,55.408,55.408,0,0,1,4.97-3.8,22.631,22.631,0,0,1,2.928-1.71,8.861,8.861,0,0,1,1.914-.693C533.9,559.006,533.005,560.392,532.544,560.956Z" fill="#fff"/>
      <path id="Path_926" data-name="Path 926" d="M513.11,582.475a.223.223,0,0,1-.2.077c.012.027.025.049.037.072a.061.061,0,0,1-.025.086.06.06,0,0,1-.09-.012c-2.883-3.957-5.535-8.635-6.548-13.462a19.1,19.1,0,0,1-.321-6.2c.171-1.415.515-4.263,1.872-5.112,2.733-1.7,3.649,7.38,3.782,8.748.245,2.5.279,5.006.475,7.5.218,2.736.634,5.449,1.046,8.161A.188.188,0,0,1,513.11,582.475Z" fill="#455a64"/>
      <path id="Path_927" data-name="Path 927" d="M513.109,582.473c-.1-.243-.194-.484-.282-.733a41.214,41.214,0,0,1-2.632-12.409,37.934,37.934,0,0,0-.705-6.363c-.126-.513-.456-2.47-1.4-1.645-.486.428-.666,4.016-.636,4.952a26.147,26.147,0,0,0,1.08,6.307,43.019,43.019,0,0,0,4.227,9.858c.052.092.1.186.155.27a.061.061,0,0,0,.025-.086c-.009-.022-.025-.043-.036-.07A.226.226,0,0,0,513.109,582.473ZM509.3,574.22a30.427,30.427,0,0,1-1.469-6.181,21.53,21.53,0,0,1-.147-2.529,13.576,13.576,0,0,1,.124-1.98c.248-1.6.437-1.993.714-2.011.171-.007.375.2.7,1.224a10.483,10.483,0,0,1,.394,2.045c.11.979.186,1.962.249,2.946.131,1.968.237,3.942.515,5.892a31.866,31.866,0,0,0,2.239,8.152A49.309,49.309,0,0,1,509.3,574.22Z" fill="#fff"/>
      <path id="Path_928" data-name="Path 928" d="M525.238,575.691a12.157,12.157,0,0,1-2.911,4.3c-2.424,2.484-5.344,4.415-7.932,6.721q-.581.516-1.138,1.062c-.039.041-.378.585-.367.536,0-.01.074-.226.2-.588v0c.627-1.791,2.607-7.184,4.472-9.815a24.82,24.82,0,0,1,3.959-4.556c.728-.614,2.42-1.922,3.473-1.427C526.129,572.454,525.54,574.83,525.238,575.691Z" fill="#455a64"/>
      <path id="Path_929" data-name="Path 929" d="M523.611,574.3c-1.071-.907-4.912,4.072-5.425,4.713a34.877,34.877,0,0,0-4.691,7.765c-.144.311-.274.623-.407.943-.126.365-.2.576-.2.589.02,0,.333-.492.372-.539.062-.063.13-.124.191-.187.312-.3.628-.59.943-.869,1.611-1.78,3.258-3.535,4.835-5.353a32.323,32.323,0,0,0,3.121-4.149C522.553,576.877,524.081,574.693,523.611,574.3Zm-.563,1.48c-2.375,4.473-6.347,7.689-9.58,11.495-.054.063-.1.122-.158.185.055-.115.106-.238.162-.353a39.847,39.847,0,0,1,3.79-6.485,38.39,38.39,0,0,1,2.907-3.543,19.385,19.385,0,0,1,1.752-1.8c.281-.232,1.08-.837,1.3-.68C523.535,574.807,523.2,575.482,523.048,575.777Z" fill="#fff"/>
      <path id="Path_930" data-name="Path 930" d="M542.837,538.466c-4.691,7.53-14.438,9.918-19.57,17.086l-.025.038q-.234.327-.455.669a.166.166,0,0,1-.272,0,.121.121,0,0,1,.005-.137c.033-.054.071-.109.108-.162a42.414,42.414,0,0,1,7-13.359c2.562-3.413,5.831-6.475,9.936-7.863,1.012-.345,3-1.092,3.933-.138C544.493,535.613,543.417,537.539,542.837,538.466Z" fill="#455a64"/>
      <path id="Path_931" data-name="Path 931" d="M539.633,538.348c-.4-.4-1.132-.1-1.543.045a13.552,13.552,0,0,0-2.925,1.423,22.455,22.455,0,0,0-4.982,4.414,46.249,46.249,0,0,0-6.493,9.387c-.387.77-.743,1.55-1.056,2.351-.04.1-.076.2-.115.295a.169.169,0,0,0,.273,0c.139-.227.286-.434.436-.652a.587.587,0,0,1,.041-.059,27.271,27.271,0,0,1,3.177-4.219,64.212,64.212,0,0,1,6.163-5.444C533.436,545.206,541.008,539.7,539.633,538.348Zm-.837,1.776a30.56,30.56,0,0,1-4.9,4.426c-1.693,1.41-3.4,2.8-5.072,4.232a31.1,31.1,0,0,0-3.685,3.733,23.981,23.981,0,0,0-2.491,3.591,33.828,33.828,0,0,1,1.966-3.825.111.111,0,0,1,.032-.041,60.723,60.723,0,0,1,4.4-6.264c.016-.023.039-.052.055-.076a27.978,27.978,0,0,1,4.675-4.836,16.077,16.077,0,0,1,3.105-1.937c1.264-.574,2.342-.911,2.574-.5C539.608,538.911,539.2,539.618,538.8,540.124Z" fill="#fff"/>
      <path id="Path_932" data-name="Path 932" d="M529.209,546.091c-1.388,2.113-2.734,4.264-4.07,6.424q-.948,1.521-1.875,3.037a.487.487,0,0,0-.042.059c-.223.364-.453.735-.677,1.1a72.763,72.763,0,0,0-5.718,10.277,33.056,33.056,0,0,0-1.735,5.922c-.038.208-.081.417-.125.626v.005c-.017.116-.04.229-.058.344a1.728,1.728,0,0,0-.034.191c-.326,1.755-.562,3.532-.783,5.256-.312,2.408-.459,4.822-.582,7.232a1.266,1.266,0,0,0-.012.213c-.009.11-.013.219-.024.329,0,.058,0,.11-.005.169-.009.1-.011.207-.02.31q-.054,1.164-.129,2.331l-.733-.108a48.113,48.113,0,0,1,.162-7.216,1.451,1.451,0,0,1,.014-.148c.015-.232.038-.47.065-.7.024-.29.052-.572.088-.859.076-.693.159-1.377.245-2.053a50.99,50.99,0,0,1,2.6-11.74c.041-.1.083-.2.124-.308a.991.991,0,0,1,.052-.129c.024-.074.054-.148.085-.222l.149-.349c.09-.209.186-.416.281-.616.029-.061.058-.122.085-.183a77.629,77.629,0,0,1,5.491-9.169c.353-.54.706-1.075,1.064-1.608l.6-.887c.306-.443.621-.891.927-1.334a.1.1,0,0,1,.032-.041c1.456-2.1,2.954-4.16,4.4-6.264C529.11,545.881,529.276,545.99,529.209,546.091Z" fill="#455a64"/>
      <path id="Path_933" data-name="Path 933" d="M590.875,588.009c-.745,2.693-1.672,5.33-2.626,7.955-.538,1.488-1.1,2.97-1.636,4.465-.592,1.642-1.35,3.293-1.145,5.069,0,0,.009,0,.009.006a1.129,1.129,0,0,1-.016.239.128.128,0,0,1-.024.027.208.208,0,0,1-.345-.115c-.006-.042-.007-.079-.013-.119a.394.394,0,0,1-.021-.04,6.8,6.8,0,0,1-.382-1.51,36.634,36.634,0,0,1-.776-4.167,34.677,34.677,0,0,1-.083-8.656,29.248,29.248,0,0,1,1.925-7.5c.784-1.921,1.918-4.788,3.628-6.093,1.55-1.178,2.344,1.2,2.567,2.369C592.434,582.6,591.581,585.461,590.875,588.009Z" fill="#455a64"/>
      <path id="Path_934" data-name="Path 934" d="M589.281,581.825c-1-.148-2.205,2.975-2.769,4.318a28.136,28.136,0,0,0-1.848,6.6,36.413,36.413,0,0,0,.3,12.259c.029.161.056.328.09.49.006.014.016.029.02.041.007.034.009.072.016.114a.209.209,0,0,0,.348.117c-.015-.348-.017-.686,0-1.03.007-.311.02-.616.045-.918a48.186,48.186,0,0,1,2.075-9.8C588.606,590.261,590.606,582.028,589.281,581.825Zm-4.079,22.61c-.014.453-.009.9.009,1.35-.054-.333-.11-.668-.158-1a40.312,40.312,0,0,1-.328-10.825,28.752,28.752,0,0,1,1.332-5.964,26.764,26.764,0,0,1,1.244-3.038c.2-.412,1.33-3.008,1.928-2.781.419.16.16,2.608.16,2.66-.047.488-.119.98-.2,1.469-.162,1.005-.382,2-.612,2.99-.513,2.144-1.145,4.264-1.726,6.393A38.037,38.037,0,0,0,585.2,604.435Z" fill="#fff"/>
      <path id="Path_935" data-name="Path 935" d="M605.507,597.913c-2.367,3.31-5.864,5.6-9.407,7.476-1.9,1-3.843,1.922-5.763,2.88a28.387,28.387,0,0,0-5.024,2.8c-.067.049-.133.1-.2.16a7.51,7.51,0,0,0-1.125,1.152.108.108,0,0,1-.093.042,1.7,1.7,0,0,1-.085.149.037.037,0,0,1-.068-.025c.012-.056.034-.119.046-.175a.041.041,0,0,1,.006-.014.112.112,0,0,1,.011-.139.343.343,0,0,1,.041-.052c.016-.056.031-.115.049-.171,1.143-4.111,4.7-7.909,7.65-10.766a22.489,22.489,0,0,1,10.472-6.165c1.017-.227,3.352-.923,4.214,0C607.017,595.919,606.011,597.213,605.507,597.913Z" fill="#455a64"/>
      <path id="Path_936" data-name="Path 936" d="M602.667,597.512c-.744-1-3.631.772-4.349,1.18a43.282,43.282,0,0,0-6.079,4.382A38.662,38.662,0,0,0,584,611.89l0,.005c-.038.035-.068.069-.106.1-.022.061-.036.119-.052.175a.225.225,0,0,0-.04.052.113.113,0,0,0-.007.142c.052-.045.1-.09.149-.128.376-.347.772-.68,1.172-1.006.067-.055.133-.109.2-.16a83.394,83.394,0,0,1,8.984-5.841,40.085,40.085,0,0,0,6.049-4.36C600.818,600.447,603.29,598.352,602.667,597.512Zm-1.087,1.8c-2.7,3.272-6.84,5.344-10.413,7.492a43.669,43.669,0,0,0-6.9,4.847,41.113,41.113,0,0,1,7.583-7.9,55.192,55.192,0,0,1,4.97-3.8,22.456,22.456,0,0,1,2.929-1.709,8.882,8.882,0,0,1,1.913-.692C602.935,597.362,602.04,598.747,601.58,599.31Z" fill="#fff"/>
      <path id="Path_937" data-name="Path 937" d="M582.145,620.831a.225.225,0,0,1-.2.077.8.8,0,0,0,.038.072.064.064,0,0,1-.026.087.061.061,0,0,1-.09-.013c-2.883-3.956-5.535-8.635-6.548-13.462a19.1,19.1,0,0,1-.32-6.2c.171-1.415.514-4.262,1.872-5.112,2.732-1.7,3.648,7.38,3.781,8.748.247,2.5.279,5.006.476,7.5.217,2.736.633,5.449,1.045,8.161A.194.194,0,0,1,582.145,620.831Z" fill="#455a64"/>
      <path id="Path_938" data-name="Path 938" d="M582.145,620.829c-.1-.243-.2-.484-.282-.733a41.208,41.208,0,0,1-2.632-12.409,37.7,37.7,0,0,0-.707-6.361c-.126-.513-.456-2.47-1.4-1.645-.488.43-.666,4.017-.635,4.952a26.049,26.049,0,0,0,1.08,6.307A42.989,42.989,0,0,0,581.8,620.8c.052.092.1.186.155.27a.063.063,0,0,0,.027-.088.459.459,0,0,1-.036-.07A.231.231,0,0,0,582.145,620.829Zm-3.812-8.255a30.41,30.41,0,0,1-1.469-6.181,21.537,21.537,0,0,1-.147-2.529,13.586,13.586,0,0,1,.124-1.98c.25-1.6.437-1.993.714-2.011.171-.007.375.2.7,1.224a10.455,10.455,0,0,1,.394,2.045c.11.979.186,1.962.249,2.947.131,1.965.237,3.942.515,5.891a31.842,31.842,0,0,0,2.239,8.152A49.265,49.265,0,0,1,578.333,612.574Z" fill="#fff"/>
      <path id="Path_939" data-name="Path 939" d="M594.274,614.045a12.123,12.123,0,0,1-2.911,4.3c-2.424,2.484-5.344,4.416-7.932,6.721q-.581.516-1.138,1.062c-.038.042-.378.585-.367.537,0-.011.074-.227.2-.589v0c.627-1.791,2.607-7.184,4.472-9.816a24.857,24.857,0,0,1,3.96-4.556c.727-.613,2.419-1.922,3.472-1.427C595.165,610.808,594.575,613.186,594.274,614.045Z" fill="#455a64"/>
      <path id="Path_940" data-name="Path 940" d="M592.646,612.654c-1.071-.908-4.912,4.071-5.425,4.712a34.953,34.953,0,0,0-4.691,7.765c-.144.312-.274.623-.407.943-.126.366-.2.576-.2.589.02,0,.333-.491.373-.538.061-.063.129-.124.19-.187.312-.3.629-.591.944-.87,1.611-1.78,3.258-3.535,4.834-5.353a32.283,32.283,0,0,0,3.122-4.149C591.588,615.231,593.114,613.048,592.646,612.654Zm-.563,1.479c-2.375,4.473-6.347,7.69-9.58,11.495l-.157.185c.056-.115.107-.237.162-.354a39.934,39.934,0,0,1,3.791-6.486,38.386,38.386,0,0,1,2.907-3.542,19.129,19.129,0,0,1,1.752-1.805c.28-.233,1.08-.837,1.3-.681C592.57,613.163,592.236,613.836,592.083,614.133Z" fill="#fff"/>
      <path id="Path_941" data-name="Path 941" d="M611.87,576.823c-4.691,7.529-14.438,9.918-19.57,17.085-.01.015-.018.025-.025.038q-.234.327-.455.67a.164.164,0,0,1-.27,0,.116.116,0,0,1,.005-.136c.033-.054.07-.11.108-.162a42.407,42.407,0,0,1,7-13.36c2.562-3.413,5.83-6.475,9.936-7.862,1.012-.346,3-1.093,3.933-.139C613.526,573.97,612.45,575.9,611.87,576.823Z" fill="#455a64"/>
      <path id="Path_942" data-name="Path 942" d="M608.666,576.7c-.4-.4-1.132-.1-1.542.045a13.605,13.605,0,0,0-2.925,1.424,22.432,22.432,0,0,0-4.983,4.413,46.243,46.243,0,0,0-6.492,9.387c-.387.771-.744,1.55-1.057,2.351-.041.1-.076.2-.115.3a.169.169,0,0,0,.273,0c.139-.227.287-.434.436-.652a.6.6,0,0,1,.041-.059,27.17,27.17,0,0,1,3.177-4.219,64.1,64.1,0,0,1,6.164-5.443C602.469,583.562,610.041,578.059,608.666,576.7Zm-.835,1.776a30.56,30.56,0,0,1-4.9,4.427c-1.693,1.409-3.4,2.8-5.072,4.23a31.165,31.165,0,0,0-3.685,3.733,23.985,23.985,0,0,0-2.491,3.591,33.745,33.745,0,0,1,1.966-3.825.114.114,0,0,1,.032-.042,60.707,60.707,0,0,1,4.4-6.264c.016-.023.039-.052.057-.075a27.947,27.947,0,0,1,4.675-4.837,16.077,16.077,0,0,1,3.105-1.937c1.263-.576,2.342-.91,2.574-.5C608.643,577.265,608.232,577.973,607.831,578.48Z" fill="#fff"/>
      <path id="Path_943" data-name="Path 943" d="M598.242,584.447c-1.388,2.113-2.734,4.264-4.07,6.424q-.948,1.521-1.875,3.037a.569.569,0,0,0-.042.059c-.223.364-.453.735-.677,1.1a72.5,72.5,0,0,0-5.718,10.276,33.062,33.062,0,0,0-1.735,5.922c-.038.209-.081.417-.126.626l0,.005c-.016.116-.04.229-.058.344a1.714,1.714,0,0,0-.034.191c-.324,1.755-.562,3.532-.783,5.256-.311,2.408-.459,4.822-.581,7.232a1.166,1.166,0,0,0-.013.213c-.009.11-.013.219-.023.329,0,.058,0,.11-.006.169-.009.1-.011.207-.02.31q-.054,1.164-.129,2.331l-.733-.108a48.1,48.1,0,0,1,.162-7.216,1.221,1.221,0,0,1,.015-.148c.014-.232.037-.47.064-.7.024-.29.053-.572.089-.859.075-.691.158-1.376.244-2.053a51.042,51.042,0,0,1,2.6-11.74c.041-.1.083-.2.124-.308a1.152,1.152,0,0,1,.052-.129c.024-.074.054-.148.085-.222l.149-.349c.09-.209.186-.416.281-.616.029-.061.058-.122.085-.181a77.7,77.7,0,0,1,5.492-9.171q.528-.81,1.063-1.608l.6-.887c.306-.443.621-.891.927-1.334a.1.1,0,0,1,.032-.041c1.457-2.1,2.952-4.16,4.4-6.264C598.143,584.237,598.31,584.346,598.242,584.447Z" fill="#455a64"/>
      <path id="Path_944" data-name="Path 944" d="M610.715,648.79H295.976s-1.175-30.674,9.947-41.729,21.856-13.815,25.463-16.218,15.689-12.847,23.805-21.5,19.839-21.633,25.851-22.835,33.675-6.025,39.386-4.1,36.591,24.325,39.906,25.286,62.9,25.036,68.314,25.96,36.317,8.208,49.9,14.864C597.188,617.65,610.715,648.79,610.715,648.79Z" fill="#263238"/>
      <path id="Path_945" data-name="Path 945" d="M518.015,590.028c-13.817.628-34.283,12.855-38.339,14.742-5.952,2.775-41.787-7.218-55.915-8.421s-18.632-18.745-17.777-21.576-15.444-7.883-13.41-14.649c1.194-3.958,37.968-11.851,37.968-11.851,11.268,7.286,27.444,18.736,29.79,19.418C462.908,568.442,499.26,583.067,518.015,590.028Z" fill="#37474f"/>
      <path id="Path_946" data-name="Path 946" d="M368.9,590.879c.274-4.668,15.783-12.715,19.84-11.974s11.95,7.432,13.077,10.037,6.313,15.23,1.352,15.316-14.429-7.126-19.615-7.4S368.676,594.718,368.9,590.879Z" fill="#37474f"/>
      <path id="Path_947" data-name="Path 947" d="M485.53,608.9c-.979-2.912,13.417-8.573,17.159-8.037s7.348,6.666,4.041,8.287-8.157-.66-10.692,0S486.275,611.114,485.53,608.9Z" fill="#37474f"/>
      <path id="Path_948" data-name="Path 948" d="M295.657,655.5H228.778c-7.2,0,8.225-17.806,14.525-20.409s22.786-1.116,26.85,1.739,21.22,11.979,23.326,13.493A4.993,4.993,0,0,1,295.657,655.5Z" fill="#37474f"/>
      <path id="Path_949" data-name="Path 949" d="M537.018,657H673.1s-6.384-7.148-13.408-8.678-22.984-6.125-25.857-8.678-27.135-12-36.392-11.741-24.581,8.678-26.815,10.721-10.056,9.7-12.609,10.337S543.31,651.128,537.018,657Z" fill="#37474f"/>
      <path id="Path_950" data-name="Path 950" d="M646.348,645.03a40.117,40.117,0,0,1-7.857.551c-1.1-.094-11.767-4.284-15.693-4.7s-25.182-1.15-26.739-3.025c-1.166-1.4,6.95-5.836,12.285-8.145,10.588,2.818,23.444,8.116,25.488,9.936,1.48,1.31,6.419,3.162,11.825,4.86C645.894,644.686,646.123,644.866,646.348,645.03Z" fill="#455a64"/>
      <path id="Path_951" data-name="Path 951" d="M610.717,644.531c-.011-.945,7.056-1.652,8.69-1.445s8.626,2.624,7.252,3.087a22.825,22.825,0,0,1-6.861.707C617.514,646.744,610.729,645.593,610.717,644.531Z" fill="#455a64"/>
      <path id="Path_952" data-name="Path 952" d="M230.7,571.536C261.8,593.509,357.01,641,399.353,634.48c28.518-4.392,99.758-70.968,112.977-93.44,5.408-9.194-61.088-65.484-70.614-59.214-10.36,6.82-54.527,69.888-62.717,72.268s-87.161-10.939-131.152-13.147C221.494,539.626,216.464,561.481,230.7,571.536Z" fill="#f7a9a0"/>
      <path id="Path_953" data-name="Path 953" d="M496.6,560.037c14.893-12.749,54.213-67.944,59.528-80.539s17.991-49.948,8.759-55-13.817,5.587-13.817,5.587,3.384-18.147-6.9-20.858c-8.208-2.162-15.453,12.47-15.453,12.47s2.664-20.082-7.884-21.465c-9.61-1.26-13.437,16.488-13.437,16.488s.525-17.029-8.964-16.461c-11.416.684-12.341,30.158-19.253,43.623-1.57,3.059-59.105,61.848-59.105,61.848Z" fill="#f7a9a0"/>
      <path id="Path_954" data-name="Path 954" d="M506.747,416.09c-2.942,22.01-4.8,31.027-16.8,48.685-.236.343.225.772.5.433,13.322-16.221,16.3-26.766,17.345-49.138C507.848,414.99,506.883,415.066,506.747,416.09Z" fill="#263238"/>
      <path id="Path_955" data-name="Path 955" d="M528.511,421.76c-2.726,22.442-7.416,32.227-18.623,51.645-.159.276.29.573.473.308,12.586-18.129,19.114-29.259,18.891-52.042C529.243,420.642,528.635,420.732,528.511,421.76Z" fill="#263238"/>
      <path id="Path_956" data-name="Path 956" d="M550.514,431.055c-4.207,21.539-8.466,32.911-21.764,50.366a.4.4,0,0,0,.612.525c15.291-16.479,20.711-30.63,21.792-50.693C551.23,429.883,550.778,429.7,550.514,431.055Z" fill="#263238"/>
      <path id="Path_957" data-name="Path 957" d="M420.075,505.734s10.8-23.345,15.381-34.679,13.083-45.133,23.193-47.97C470,419.9,472.2,451.554,464.191,471.831c0,0,28.053,22.249,21.28,42.1-1.465,4.295-17.033,21.742-22.187,22.467Z" fill="#f7a9a0"/>
      <path id="Path_958" data-name="Path 958" d="M464.111,474.185c11.224,8.276,22.219,23.013,21.184,36.882a.318.318,0,0,0,.628.1c3.13-14.723-9.427-31.9-19.908-38.682C464,471.181,461.2,472.043,464.111,474.185Z" fill="#263238"/>
      <path id="Path_959" data-name="Path 959" d="M524.747,402.019,487.411,509.764l-12.162,35.119-18.7,53.964c-21.562,18.188-43.97,33.61-57.2,35.637C357.012,641.007,261.8,593.5,230.7,571.536c-14.246-10.062-9.209-31.905,17.146-30.587C291.836,543.157,370.8,556.474,379,554.09c5.2-1.519,25-27.613,41.364-48.148l-.288-.21s10.8-23.337,15.377-34.685c4.58-11.329,13.077-45.131,23.19-47.964,8.649-2.421,11.977,15.345,9.529,32.925,6.208-6.534,10.579-11.307,11-12.119,6.91-13.475,7.841-42.941,19.255-43.625,9.489-.578,8.964,16.465,8.964,16.465s3.825-17.75,13.449-16.5A6.885,6.885,0,0,1,524.747,402.019Z" opacity="0.1"/>
      <path id="Path_960" data-name="Path 960" d="M354.769,640.67l22.562-88.783S289.1,537.809,245.787,538.311c-36.4.423-44.331,26.363-3.831,49.446C280.287,609.608,354.769,640.67,354.769,640.67Z" fill="#ebebeb"/>
      <path id="Path_961" data-name="Path 961" d="M354.076,556.24c-2.245,5.124-3.586,10.587-5.184,15.856-1.669,5.493-3.123,11.023-4.612,16.549s-6.548,27.758-7.806,33.307c-.056.25.394.315.468.07,1.683-5.493,8.343-27.273,9.772-32.695s2.907-10.845,4.158-16.3c1.265-5.515,2.894-11.135,3.472-16.718C354.358,556.191,354.137,556.1,354.076,556.24Z" fill="#263238"/>
      <path id="Path_962" data-name="Path 962" d="M361.4,614.54l-6.64,26.127s-74.475-31.066-112.8-52.915c-35.592-20.279-33.792-42.766-8.131-48.19Z" opacity="0.1"/>
      <path id="Path_963" data-name="Path 963" d="M333.27,837.823l-250.954-.43C82.937,832.23,135.3,599.449,196,545.823c20.852-18.419,60.729-4.736,65.735-.648C310.28,584.813,336.929,834.806,333.27,837.823Z" fill="#ffc727"/>
      <path id="Path_964" data-name="Path 964" d="M333.118,824.269H85.188c1.611-6.893,3.849-16.2,6.669-27.261H330.534C331.756,808.025,332.632,817.335,333.118,824.269Zm-9.268-77.962H105.6c-2.751,9.531-5.28,18.673-7.6,27.247H327.686C326.559,764.968,325.281,755.824,323.85,746.307Zm-8.559-50.7H121.2c-3.03,9.171-5.906,18.3-8.642,27.247H320.142C318.639,713.891,317.028,704.763,315.291,695.606ZM304.4,644.893H139.376c-3.5,8.921-6.892,18.063-10.158,27.261h181.39C308.649,662.927,306.579,653.785,304.4,644.893Zm-14.894-50.7H161.982c-4.419,8.517-8.727,17.674-12.922,27.261H298.2C295.45,611.811,292.546,602.654,289.5,594.193Zm-27.775-49.02a15.551,15.551,0,0,0-2.932-1.681H198.982a31.672,31.672,0,0,0-2.987,2.335c-6.961,6.156-13.824,14.671-20.495,24.926H279.763C274.136,559.276,268.12,550.4,261.729,545.173Z" fill="#ebebeb"/>
      <path id="Path_965" data-name="Path 965" d="M266.5,539.032l-13.016,36.142-49.768-41.607-9,17.426S243.5,615.254,243.5,612.16L255.5,581.751l22.747,18.459-6.138-50.765Z" fill="#ffc727"/>
      <path id="Path_966" data-name="Path 966" d="M276.691,574.942c-1.307-8.347-2.378-16.791-4.086-25.067-.061-.294-.558-.384-.6-.027-1.048,8.262,4.125,40.154,4.757,47.855-.032-.027-.07-.054-.1-.081-.952-.8-21-16.157-21.161-15.871-2.748,4.9-11.565,27.054-12.126,29.048-7.719-10.209-40.2-50.284-49.113-59.8-.256-.274-.709.009-.5.336,6.982,10.883,49.048,63.836,49.563,63.641.384.236,11.36-27.059,12.514-32.135,3.465,3.425,23.877,20.945,23.832,19.69A254.736,254.736,0,0,0,276.691,574.942Z" fill="#263238"/>
      <path id="Path_967" data-name="Path 967" d="M256.228,582.656c-14.378,3.852-39.888-17.541-50.234-35.184-.7-1.213.8-14.227,1.877-30.129.616-9.651,1.073-20.413.783-30.263-.068-2.021,62.223,13.183,62.223,13.183s-5.463,20.828-4.851,38a22.089,22.089,0,0,0,.543,4.029c.027.185.087.408.11.668C268.157,550.6,270.124,578.923,256.228,582.656Z" fill="#f7a9a0"/>
      <path id="Path_968" data-name="Path 968" d="M212.459,487.224c3.357,16.567,14.9,56.5,47.891,56.268a37.229,37.229,0,0,0,6.311-.529,2.973,2.973,0,0,0-.1-.675,24.92,24.92,0,0,1-.557-4.016c-.606-17.2,4.869-38.025,4.869-38.025S225.939,489.28,212.459,487.224Z" fill="#263238"/>
      <path id="Path_969" data-name="Path 969" d="M188.464,422.793c-3.035,22.711,18.677,83.293,36.353,94.687C250.441,534,287.26,529.911,300,500.283c12.348-28.719-17.347-107.172-36.612-117C235.012,368.813,192.948,389.246,188.464,422.793Z" fill="#f7a9a0"/>
      <path id="Path_970" data-name="Path 970" d="M203.308,487.148c12.319-3.74,17.08-19.209,12.656-43.383s-2.887-33.968,7.691-40.207,25.917,1.212,31.909-.538,1.911-11.322,6.874-12.65c2.453-.657,11.212,4.829,21.233,20.171,0,0-11.432-45.357-59.76-30.068-44.949,14.218-39.582,52.038-36.839,63.038C191.541,461.445,203.308,487.148,203.308,487.148Z" fill="#263238"/>
      <path id="Path_971" data-name="Path 971" d="M171.176,403.209c-1-.464,16.888-31.354,24.7-37.789s47.841-9.7,49.671-7.224S173.543,404.312,171.176,403.209Z" fill="#ebebeb"/>
      <path id="Path_972" data-name="Path 972" d="M245.54,358.216c1.84,2.468-71.994,46.116-74.357,44.982-.506-.216,3.818-8.233,9.215-16.911.02-.048.052-.061.07-.11,6.732-7.07,14.985-14.866,16.814-16.6,1.579-1.518,11.011-6.237,19.445-10.28C229.988,357.278,244.464,356.735,245.54,358.216Z" opacity="0.1"/>
      <path id="Path_973" data-name="Path 973" d="M189.333,454.73c-1.316.445-20.094-23.187-23.269-26.393s-10.44-4.325-11.034-6.977,30.429-38.766,44.543-49.223,68.551-23.086,69.468-21.256-.58,6.576.007,10.692,9.727,33.734,8.148,33.973c-15.985,2.43-42.035,12.118-52.617,20.515C215.928,422.924,193.775,453.235,189.333,454.73Z" fill="#ebebeb"/>
      <path id="Path_974" data-name="Path 974" d="M167.351,429.834l-2.574-2.993c1.257-1.42,30.9-34.823,42.025-43.25,7.319-5.541,52.286-22.187,61.787-23.994l.914,3.951c-9.059,1.728-53.688,18.243-60.577,23.455C198.04,395.247,167.656,429.491,167.351,429.834Z" fill="#ffc727"/>
      <path id="Path_975" data-name="Path 975" d="M214.383,468.81s7.542,13.925.223,24.392-4.869,24.455.177,28.96c0,0-9.054,25.344,14.411,29.907,0,0-1.6,25.778,26.825,28.4,0,0,8.539,8.7,22.82,1.753,0,0,23.26,5.992,33.515-12.335,0,0,24.615,2.3,25.617-27.2,0,0,15.5-12.433,4.311-28.744,0,0,11.029-12.586-3.515-23.042,0,0,5.9-20.171-18.864-25.313,0,0,.689-8.163-8.473-9.605,0,0-12.427-5.488-15.033-12.613,0,0,4.591,15.151-3.465,19.694-7.188,4.052-16.341,2.873-16.341,2.873s-9.889,12.7-32.808,12.252c-19.838-.385-28.692-21.38-28.692-21.38Z" fill="#263238"/>
      <path id="Path_976" data-name="Path 976" d="M216.769,471.515s-17.81-17.517-26.012-10.8,7.794,33.928,19.256,35.929,13.525-8.571,13.525-8.571Z" fill="#f7a9a0"/>
      <path id="Path_977" data-name="Path 977" d="M195.534,468.4a.151.151,0,0,0,0,.3c8.084,1.652,13.336,7.889,17.447,14.6-2.752-2.367-6.08-3.326-9.313.025-.169.177.076.449.279.364,2.958-1.231,5.278-1.109,7.818.972a32.985,32.985,0,0,1,4.642,5.315c.477.609,1.625.024,1.226-.7-.029-.054-.063-.108-.094-.162C215.946,479.486,206.006,467.453,195.534,468.4Z" fill="#263238"/>
      <path id="Path_978" data-name="Path 978" d="M280.992,442.408c-.023-.168.389.081.441.25,1.309,4.134,3.5,8.651,7.679,8.708.13,0,.191.213.047.24C284.421,452.556,281.568,446.533,280.992,442.408Z" fill="#263238"/>
      <path id="Path_979" data-name="Path 979" d="M283.144,436.851c6.4-2.81,11.554,10.2,5.623,12.8C282.93,452.22,277.778,439.207,283.144,436.851Z" fill="#263238"/>
      <path id="Path_980" data-name="Path 980" d="M246.526,447.939a54.826,54.826,0,0,0,5.53-1.566c2.113-.625,3.863-.9,5.333-2.671a2.961,2.961,0,0,0-.25-3.606c-1.978-1.985-4.759-1.866-7.335-1.218a10.777,10.777,0,0,0-6.491,4.264C241.643,445.378,243.978,448.411,246.526,447.939Z" fill="#263238"/>
      <path id="Path_981" data-name="Path 981" d="M285.242,426.226a54.217,54.217,0,0,1-5.744-.177c-2.2-.091-3.965.063-5.821-1.3a2.959,2.959,0,0,1-.633-3.558c1.434-2.407,4.163-2.965,6.82-2.963a10.779,10.779,0,0,1,7.331,2.56C289.353,422.556,287.829,426.067,285.242,426.226Z" fill="#263238"/>
      <path id="Path_982" data-name="Path 982" d="M265.587,490.178c1.316.614,2.757,1.587,4.284,1.191a11.416,11.416,0,0,0,4.035-2.574.152.152,0,0,1,.251.148,5.836,5.836,0,0,1-4.41,4.044c-1.964.328-3.444-.952-4.488-2.487C265.113,490.286,265.394,490.09,265.587,490.178Z" fill="#fff"/>
      <path id="Path_983" data-name="Path 983" d="M246.849,454.25a11.723,11.723,0,0,1,3.121-1.779,12.23,12.23,0,0,1,3.621-.765,10.429,10.429,0,0,1,3.91.625,9.8,9.8,0,0,1,3.505,2.392l1.8,1.9-2.437.4a23.422,23.422,0,0,0-5.017,1.4,9.975,9.975,0,0,0-4.3,3.155,7.667,7.667,0,0,1,3.292-4.964,13.767,13.767,0,0,1,5.511-2.3l-.633,2.3a9.308,9.308,0,0,0-5.562-2.576A25.891,25.891,0,0,0,246.849,454.25Z" fill="#263238"/>
      <path id="Path_984" data-name="Path 984" d="M256.658,462.416c1.581-1.137,3.2-1.926,4.461-3.484.289-.357,1.38-1.88,1.2-2.173a12.171,12.171,0,0,0-1.751-2.468,8.183,8.183,0,0,1,2.257,2.243,3.772,3.772,0,0,1-1.071,3.04A10.394,10.394,0,0,1,256.658,462.416Z" fill="#263238"/>
      <path id="Path_985" data-name="Path 985" d="M266.882,484.164c4.43-3.951,11.335-5.726,15.741-6.745.447-.241.533-1.328.449-1.8l-.013-.031c-.056-.148-3.425-8.537-3.425-8.537,1.342.151,8.089.635,7.4-.956-5.731-13.151-12.1-27.776-20.581-39.652a.4.4,0,0,0-.7.372C270.763,439.672,278,451.562,283.23,464.4c-2.106-.025-5.594-.221-7.209.409-.4.288,4.088,8.852,4.45,10.3,0,0-9.15.551-14.31,7.3C264.827,484.16,264.769,486.049,266.882,484.164Z" fill="#263238"/>
      <path id="Path_986" data-name="Path 986" d="M266.884,484.164c4.43-3.951,11.334-5.726,15.741-6.745.446-.241.533-1.328.448-1.8l-.013-.031c-.055-.148-3.087-7.7-3.087-7.7-.979-1.382-3.227-.682-2.71.234.273,1,2.851,5.535,3.213,6.984,0,0-9.15.551-14.31,7.3C264.828,484.16,264.771,486.049,266.884,484.164Z" fill="#fff"/>
      <path id="Path_987" data-name="Path 987" d="M422.582,461.975,283,463.088l-1.872-31.668,138.74-15.339Z" fill="#37474f"/>
      <path id="Path_988" data-name="Path 988" d="M501.309,470.22l-139.815-2.873-2.922-49.4,138.505-19.325Z" fill="#455a64"/>
      <path id="Path_989" data-name="Path 989" d="M568.561,482.956,461.952,472.939l-4.278-72.385L562.36,378.047Z" fill="#37474f"/>
      <path id="Path_990" data-name="Path 990" d="M572.641,430.078c1.564,26.454-.384,48.089-4.349,48.323s-8.449-21.021-10.013-47.474.383-48.089,4.348-48.323S571.078,403.623,572.641,430.078Z" fill="#ffc727"/>
      <path id="Path_991" data-name="Path 991" d="M197.224,600.5c45.144,47.68,164.88,126.068,191.391,115.286,48.913-19.893,67.813-159.842,74.106-187.023,2.683-11.589-97.218-19.568-100.343-7.24-2.724,10.742-7.366,84.3-16.5,86.953-3.76,1.09-58.488-21.275-120.658-35.6C177.6,561.906,183.863,586.384,197.224,600.5Z" fill="#f7a9a0"/>
      <path id="Path_992" data-name="Path 992" d="M359.374,544.235s2.489-11.451.142-39.92c-1.834-22.243,9.355-75.787,65-104.731,21.321-11.092,38.412-.976,18.309,14.481-14.159,10.884-24.908,17.211-28.532,22.057,0,0,27.337.461,36.288,13.531,4,5.841,14.546,22.039,20.96,35.819a61.324,61.324,0,0,1-6.353,4.522,33.294,33.294,0,0,1-1.765,35.442l-4.74,23.956Z" fill="#f7a9a0"/>
      <path id="Path_993" data-name="Path 993" d="M363.958,484.751c6.712-9.582,21.278-29.646,38.9-41.919,19.575-13.629,60.958-34.608,70.871-20.054,7.268,10.673-7.828,20.07-7.828,20.07s18.932-5.065,23.391,6.011c4.061,10.094-8.052,16.664-8.052,16.664s12.014-1.1,14.051,9.378c2.454,12.6-23.124,12.834-31.667,27.745C461.707,505.994,363.958,484.751,363.958,484.751Z" fill="#f7a9a0"/>
      <path id="Path_994" data-name="Path 994" d="M413.811,465.919c7.788-7.974,30.128-21.547,51.647-23.29.488-.039.779.308.342.437A234.263,234.263,0,0,0,413.938,466.1C413.827,466.173,413.724,466.007,413.811,465.919Z" fill="#263238"/>
      <path id="Path_995" data-name="Path 995" d="M428.144,485.28c7.427-6.19,31.077-19.152,52.945-20.167.49-.024.758.345.315.459-24.631,6.258-44.532,15.253-53.143,19.9C428.146,485.536,428.049,485.359,428.144,485.28Z" fill="#263238"/>
      <path id="Path_996" data-name="Path 996" d="M305.126,688.8l38.347-83.192S259.281,575.7,216.6,568.311c-35.867-6.21-48.39,17.852-12.769,47.921C237.543,644.7,305.126,688.8,305.126,688.8Z" fill="#ebebeb"/>
      <path id="Path_997" data-name="Path 997" d="M319.819,605.653c-3.139,4.63-5.452,9.758-7.985,14.647-2.641,5.1-5.078,10.271-7.547,15.433s-11.492,26.1-13.742,31.329c-.1.236.33.382.449.155,2.655-5.1,13.168-25.3,15.561-30.37s4.833-10.134,7.056-15.267c2.248-5.193,4.874-10.421,6.458-15.806C320.105,605.657,319.9,605.529,319.819,605.653Z" fill="#263238"/>
      <path id="Path_998" data-name="Path 998" d="M216.335,626.335c22.955,14.53,44.977,30.406,66.991,46.291,7.329,5.281,14.6,10.67,22.068,15.689l-.762.237c1.437-2.532,2.887-5.06,4.4-7.556-1.159,2.88-2.39,5.722-3.632,8.561l-.54-.272c-16.117-8.469-30.827-19.107-45.634-29.589C244.534,649.087,230.134,638.1,216.335,626.335Z" fill="#263238"/>
      <path id="Path_999" data-name="Path 999" d="M218.936,631.917a98.837,98.837,0,0,1,14.844,7.2A33.036,33.036,0,0,1,218.936,631.917Z" fill="#263238"/>
      <path id="Path_1000" data-name="Path 1000" d="M82.357,837.461c235.536-1.1,499.753-1.111,735.286,0C582.108,838.572,317.891,838.563,82.357,837.461Z" fill="#263238"/>
    </g>
  </g>
</svg>
