<svg xmlns="http://www.w3.org/2000/svg" xmlns:xlink="http://www.w3.org/1999/xlink" width="1920" height="1080" viewBox="0 0 1920 1080">
  <defs>
    <clipPath id="clip-path">
      <rect id="Rectangle_190" data-name="Rectangle 190" width="1920" height="1080" fill="#16a34a"/>
    </clipPath>
  </defs>
  <g id="Web_1920_18" data-name="Web 1920 – 18" clip-path="url(#clip-path)">
    <path id="Path_2099" data-name="Path 2099" d="M0,0H1920V1080H0Z" fill="#27272a"/>
    <g id="Group_1" data-name="Group 1" transform="matrix(-0.755, 0.656, -0.656, -0.755, 1567.993, 464.637)">
      <path id="Path_27" data-name="Path 27" d="M841.177,646.122c64.873,44.845,192.879,91.868,271.685,52.247s108.413-165.884,43.539-210.73-224.227-8.272-303.033,31.348S776.3,601.276,841.177,646.122Z" transform="translate(44.382 8)" fill="#16a34a"/>
      <path id="Path_28" data-name="Path 28" d="M0,0H800V2220H0s-189.089-383.264-151.688-603.9,275.6-87.078,301.291-278.651S-68.7,986-48.936,849.809C-17.758,635,315.052,435.7,315.052,292.507,315.052-262.493,0,0,0,0Z" transform="translate(1120 -716.964)" fill="#16a34a"/>
    </g>
    <g id="Group_1626" data-name="Group 1626" transform="translate(358.278 508.381) rotate(-33.007)">
      <path id="Path_27-2" data-name="Path 27" d="M841.177,646.122c64.873,44.845,192.879,91.868,271.685,52.247s108.413-165.884,43.539-210.73-224.227-8.272-303.033,31.348S776.3,601.276,841.177,646.122Z" transform="translate(44.382 8)" fill="#16a34a"/>
      <path id="Path_28-2" data-name="Path 28" d="M0,0H800V2220H0s-189.089-383.264-151.688-603.9,275.6-87.078,301.291-278.651S-68.7,986-48.936,849.809C-17.758,635,315.052,435.7,315.052,292.507,315.052-262.493,0,0,0,0Z" transform="translate(1120 -716.964)" fill="#16a34a"/>
    </g>
  </g>
</svg>
