<svg xmlns="http://www.w3.org/2000/svg" xmlns:xlink="http://www.w3.org/1999/xlink" width="1920" height="1080" viewBox="0 0 1920 1080">
  <defs>
    <clipPath id="clip-path">
      <rect id="Rectangle_188" data-name="Rectangle 188" width="1920" height="1080" fill="#16a34a"/>
    </clipPath>
  </defs>
  <g id="Web_1920_5" data-name="Web 1920 – 5" clip-path="url(#clip-path)">
    <path id="Path_2098" data-name="Path 2098" d="M0,0H1920V1080H0Z" fill="#27272a"/>
    <g id="Group_1" data-name="Group 1" transform="translate(-188.296 -744.013)">
      <path id="Path_27" data-name="Path 27" d="M350.737,179.1A380.108,380.108,0,0,1,292,211.753,426.548,426.548,0,0,1,220.12,236.9c-24.981,6.2-50.4,9.769-74.493,9.307s-46.873-4.953-66.574-14.858S42.724,206.12,29.88,188.01A165.609,165.609,0,0,1,3.4,127.94c-4.572-21.062-4.653-42.287.463-61.05S19.3,31.827,35.513,20.616,73.855,3.282,99.149,1.023,152.906.37,181.8,4.615a584.513,584.513,0,0,1,85.269,19.429c27.035,8.3,51.771,18.014,71.472,27.919s34.369,20,44.274,30.273,15.048,20.722,15.7,31.335-3.184,21.389-11.239,32.314S366.955,167.887,350.737,179.1Z" transform="translate(683.703 1254.013)" fill="#16a34a"/>
      <path id="Path_28" data-name="Path 28" d="M800,62.026H0v2220H800s11.818-23.954,28.961-63.333,39.61-94.181,60.909-155.879,41.428-130.291,53.9-197.249,17.273-132.282,7.923-187.441-31.25-88.182-59.243-109.681-62.077-31.476-95.8-40.544-67.071-17.228-93.6-35.094-46.232-45.438-52.654-93.331,4.011-93.805,22.964-137.861,46.427-86.257,74.085-126.726,55.5-79.209,75.2-116.342,31.237-72.661,26.295-106.709c-7.795-53.7-34.441-106.434-70.026-157.563S698.8,653.616,655.25,606.328,569.125,513.99,537.437,471.813s-52.489-81.482-52.489-117.28c0-138.75,19.691-226.407,49.227-279.845S603.093,2.031,642.474.155s78.763,13.592,108.3,29.529A327.392,327.392,0,0,1,800,62.026Z" fill="#16a34a"/>
    </g>
  </g>
</svg>
