<svg id="undraw_just_saying_re_kw9c" xmlns="http://www.w3.org/2000/svg" width="581.852" height="521.108" viewBox="0 0 581.852 521.108">
  <path id="Path_161" data-name="Path 161" d="M6.5,136.015H21.26a6.5,6.5,0,0,0,6.5-6.5V6.5A6.5,6.5,0,0,0,21.26,0H6.5A6.5,6.5,0,0,0,0,6.5V129.515a6.5,6.5,0,0,0,6.5,6.5Z" transform="translate(123.975 383.512)" fill="#fcbf49"/>
  <path id="Path_162" data-name="Path 162" d="M2.263,10.5,13.81,1.306a5.995,5.995,0,0,1,8.431.956L98.865,98.5a5.995,5.995,0,0,1-.956,8.431l-.313.25L60.321,166.322a6,6,0,0,1-8.275,1.877l-12.487-7.87a6,6,0,0,1-1.877-8.275l30.759-48.806L1.307,18.931A5.995,5.995,0,0,1,2.263,10.5Z" transform="translate(106.961 343.805)" fill="#fcbf49"/>
  <path id="Path_163" data-name="Path 163" d="M8.5,34h71A8.5,8.5,0,0,0,88,25.5V8.5A8.5,8.5,0,0,0,79.5,0H8.5A8.5,8.5,0,0,0,0,8.5v17A8.5,8.5,0,0,0,8.5,34Z" transform="translate(112.156 393.612)" fill="#ccc"/>
  <path id="Rectangle_61" data-name="Rectangle 61" d="M324.033,0H0V2.241H324.033Z" transform="translate(0 518.867)" fill="#3f3d56"/>
  <path id="Ellipse_51" data-name="Ellipse 51" d="M53.519,0A53.352,53.352,0,1,0,74.351,4.206,53.351,53.351,0,0,0,53.519,0Z" transform="translate(92.148 132.662)" fill="#fcbf49"/>
  <path id="Path_164" data-name="Path 164" d="M6.492,155.475H116.554a6.5,6.5,0,0,0,6.5-6.5L101.044,36.369A36.441,36.441,0,0,0,64.589,0H57.447A36.466,36.466,0,0,0,20.992,36.455L0,148.884a6.515,6.515,0,0,0,6.492,6.591Z" transform="translate(84.036 248.499)" fill="#2f2e41"/>
  <path id="Path_165" data-name="Path 165" d="M.057,34.047c.827-.023,1.7-.048,2.6-.108a24.937,24.937,0,0,0,2.743-.32,15,15,0,0,0,2.717-.737,10.773,10.773,0,0,0,2.525-1.358,8.13,8.13,0,0,0,3.2-6.072,5.331,5.331,0,0,0-3.236-5.341A6.28,6.28,0,0,0,9,19.666a7.8,7.8,0,0,0-1.785-.038A9.892,9.892,0,0,0,5.308,20L8.007.271,6.024,0,2.853,23.191l1.654-.76a9.738,9.738,0,0,1,1.546-.557,7.84,7.84,0,0,1,1.654-.264,5.2,5.2,0,0,1,1.6.16,3.591,3.591,0,0,1,1.387.716,3.513,3.513,0,0,1,1.152,2.895,6.147,6.147,0,0,1-2.381,4.528,8.678,8.678,0,0,1-2,1.08,12.609,12.609,0,0,1-2.266.626,23.083,23.083,0,0,1-2.5.308c-.869.065-1.772.1-2.7.125Z" transform="translate(187.326 170.003)" fill="#2f2e41"/>
  <path id="Rectangle_62" data-name="Rectangle 62" d="M10.771,0H0V2H10.771Z" transform="translate(171.133 171.976)" fill="#2f2e41"/>
  <path id="Rectangle_63" data-name="Rectangle 63" d="M107.564,102.38l9.449-11.339a6,6,0,0,0-.768-8.45L21.74,3.841a6,6,0,0,0-8.45.768L3.841,15.948a6,6,0,0,0,.768,8.45l94.5,78.75a6,6,0,0,0,8.45-.768Z" transform="translate(129.75 267.341)" fill="#fcbf49"/>
  <path id="Path_166" data-name="Path 166" d="M2.347,23.873l38.98,37.042a6.521,6.521,0,0,0,9.007-.016L67.969,44.022a6.525,6.525,0,0,0-.762-10.055L20.979,1.508a6.532,6.532,0,0,0-9.189.832L1.512,14.674a6.532,6.532,0,0,0,.836,9.2Z" transform="translate(126.514 265.523)" fill="#2f2e41"/>
  <path id="Path_167" data-name="Path 167" d="M112.833,51.582a34.083,34.083,0,0,0,.774-7.789,36.939,36.939,0,0,0-.947-7.734,39.68,39.68,0,0,0-2.5-7.4,40.959,40.959,0,0,0-3.885-6.8,39.443,39.443,0,0,0-5.213-5.976,43.829,43.829,0,0,0-6.246-4.87A48.4,48.4,0,0,0,87.81,7.278a51.445,51.445,0,0,0-7.5-2.579,52.362,52.362,0,0,0-14.94-1.638A57.753,57.753,0,0,0,50.686,5.5,63.946,63.946,0,0,0,36.96,11.479,66.785,66.785,0,0,0,24.9,20.446,65.446,65.446,0,0,0,14.683,32.692a70.332,70.332,0,0,0-7,14.12,77.308,77.308,0,0,0-3.85,15.349A83.21,83.21,0,0,0,3.067,78.1,86.777,86.777,0,0,0,5.336,94.042a93.759,93.759,0,0,0,5.037,15.2,102.371,102.371,0,0,0,7.465,14.206,110.207,110.207,0,0,0,9.554,12.963q2.581,3,5.337,5.84t5.676,5.5q2.92,2.663,6,5.147t6.305,4.778c1.061.758,2.167,1.573,3.315,2.371s2.337,1.578,3.564,2.267a21.8,21.8,0,0,0,3.792,1.715,13.4,13.4,0,0,0,4,.715,10.222,10.222,0,0,0,3.062-.437,9.04,9.04,0,0,0,2.8-1.374,5.693,5.693,0,0,0,1.862-2.262,4.933,4.933,0,0,0,.25-3.1,5.887,5.887,0,0,0-.412-1.207,5.167,5.167,0,0,0-.689-1.1,3.806,3.806,0,0,0-.956-.839,3.008,3.008,0,0,0-1.211-.42,1.545,1.545,0,0,1-1.069-.6,1.787,1.787,0,0,1-.36-1.074,1.431,1.431,0,0,1,.354-.989A1.212,1.212,0,0,1,70.084,151a6.775,6.775,0,0,1,3.094,1.174,7.519,7.519,0,0,1,2.175,2.375,8.354,8.354,0,0,1,1.067,3.092,7.982,7.982,0,0,1-1.988,6.479,10.041,10.041,0,0,1-2.853,2.183,12.735,12.735,0,0,1-3.466,1.2,12.945,12.945,0,0,1-3.593.193,17.819,17.819,0,0,1-4.282-.95,26.162,26.162,0,0,1-4.01-1.823c-1.3-.715-2.552-1.518-3.777-2.352s-2.417-1.7-3.583-2.537-2.318-1.688-3.457-2.559-2.265-1.758-3.376-2.663-2.209-1.827-3.293-2.765-2.153-1.894-3.207-2.866a125.706,125.706,0,0,1-11.764-12.443A114.976,114.976,0,0,1,13.89,122.75a102.71,102.71,0,0,1-7.544-15.326A92.264,92.264,0,0,1,1.594,90.969,91.325,91.325,0,0,1,0,73.661,85.759,85.759,0,0,1,1.8,56.409,77.045,77.045,0,0,1,7.188,40,69.884,69.884,0,0,1,41.617,5.675,63.719,63.719,0,0,1,56.918.889,56.284,56.284,0,0,1,81.372,1.894a54.424,54.424,0,0,1,8.064,2.83,50.586,50.586,0,0,1,7.485,4.092,46.743,46.743,0,0,1,6.67,5.353,42.6,42.6,0,0,1,13.03,30.013q0,1.034-.056,2.065t-.168,2.058q-.112,1.026-.28,2.045t-.391,2.029a1.3,1.3,0,0,1-.684.936,1.514,1.514,0,0,1-1.072.079,1.668,1.668,0,0,1-.917-.628,1.457,1.457,0,0,1-.22-1.185Z" transform="translate(29.982 80.392)" fill="#2f2e41"/>
  <path id="Path_168" data-name="Path 168" d="M28.973,29.919A24.287,24.287,0,0,0,1.426,3.219,1.2,1.2,0,0,1,.354,2.886,1.424,1.424,0,0,1,0,1.9,1.8,1.8,0,0,1,.359.823a1.556,1.556,0,0,1,1.067-.6,27.231,27.231,0,0,1,30.547,29.7,1.514,1.514,0,0,1-.572,1.074,1.746,1.746,0,0,1-1.066.362,1.457,1.457,0,0,1-1-.356A1.244,1.244,0,0,1,28.973,29.919Z" transform="translate(106.819 103.642)" fill="#2f2e41"/>
  <path id="Path_169" data-name="Path 169" d="M18.741,0a4.5,4.5,0,0,1,1.415,8.773h0l-14.243,4.7A4.5,4.5,0,1,1,3.091,4.93L17.335.227q.17-.056.344-.1t.35-.071q.176-.028.355-.043T18.741,0Z" transform="translate(128.969 121.275)" fill="#2f2e41"/>
  <path id="Path_170" data-name="Path 170" d="M155.557,311.556h.223A155.819,155.819,0,0,0,216.356,12.261,155.779,155.779,0,0,0,48.242,268.474L16.9,303.606l1.607.682a49.5,49.5,0,0,0,19.3,3.9,62.336,62.336,0,0,0,17.936-2.714,85.042,85.042,0,0,0,15.083-6.189,98.788,98.788,0,0,0,10.738-6.522,155.492,155.492,0,0,0,73.993,18.789ZM155.779,2.5a153.317,153.317,0,0,1,59.6,294.489,153.178,153.178,0,0,1-133.3-6.79l-.688-.379-.639.456a96.414,96.414,0,0,1-9.949,6.191A84.5,84.5,0,0,1,56.579,302.6a61.759,61.759,0,0,1-17.049,3.064,47.51,47.51,0,0,1-18.414-3.029L51.73,268.321l-.891-.834A153.271,153.271,0,0,1,155.778,2.5Z" transform="translate(270.296)" fill="#3f3d56"/>
  <path id="Path_171" data-name="Path 171" d="M6.9,16q11.988-.125,23.976-.289t23.975-.343q11.987-.179,23.974-.362T102.8,14.66q4-.054,7.993-.105t7.993-.1q4-.048,7.993-.092t7.993-.085a6.636,6.636,0,0,0,5.169-2.285,7.632,7.632,0,0,0,1.727-4.926,7.473,7.473,0,0,0-1.721-4.891A6.5,6.5,0,0,0,134.767,0q-11.988.125-23.976.289T86.817.632Q74.829.811,62.842.994t-23.975.346q-4,.054-7.993.105t-7.993.1q-4,.048-7.993.092T6.9,1.72A6.636,6.636,0,0,0,1.727,4,7.633,7.633,0,0,0,0,8.931a7.473,7.473,0,0,0,1.721,4.891A6.5,6.5,0,0,0,6.9,16Z" transform="translate(370.934 114.291)" fill="#fcbf49"/>
  <path id="Path_172" data-name="Path 172" d="M6.9,16,136.1,14.66l36.746-.381a6.636,6.636,0,0,0,5.169-2.285,7.632,7.632,0,0,0,1.727-4.926,7.473,7.473,0,0,0-1.721-4.891A6.5,6.5,0,0,0,172.845,0L43.642,1.339,6.9,1.72A6.636,6.636,0,0,0,1.727,4,7.632,7.632,0,0,0,0,8.931a7.473,7.473,0,0,0,1.721,4.891A6.5,6.5,0,0,0,6.9,16Z" transform="translate(335.912 147.608)" fill="#fcbf49"/>
  <path id="Path_173" data-name="Path 173" d="M6.9,16,136.1,14.66l36.746-.381a6.636,6.636,0,0,0,5.169-2.285,7.632,7.632,0,0,0,1.727-4.926,7.473,7.473,0,0,0-1.721-4.891A6.5,6.5,0,0,0,172.845,0L43.642,1.339,6.9,1.72A6.636,6.636,0,0,0,1.727,4,7.632,7.632,0,0,0,0,8.931a7.473,7.473,0,0,0,1.721,4.891A6.5,6.5,0,0,0,6.9,16Z" transform="translate(335.912 180.926)" fill="#fcbf49"/>
  <path id="Ellipse_52" data-name="Ellipse 52" d="M9,0a8.972,8.972,0,1,0,3.5.707A8.972,8.972,0,0,0,9,0Z" transform="translate(261.852 312.556)" fill="#e6e6e6"/>
</svg>
